<svg width="469" height="469" viewBox="0 0 469 469" fill="none" xmlns="http://www.w3.org/2000/svg">
<path d="M468.549 234.653C468.549 363.894 363.778 468.665 234.537 468.665C105.296 468.665 0.525391 363.894 0.525391 234.653C0.525391 105.412 105.296 0.641602 234.537 0.641602C363.778 0.641602 468.549 105.412 468.549 234.653Z" fill="#FFF0E4"/>
<path fill-rule="evenodd" clip-rule="evenodd" d="M234.537 453.665C355.494 453.665 453.549 355.61 453.549 234.653C453.549 113.696 355.494 15.6416 234.537 15.6416C113.58 15.6416 15.5254 113.696 15.5254 234.653C15.5254 355.61 113.58 453.665 234.537 453.665ZM234.537 468.665C363.778 468.665 468.549 363.894 468.549 234.653C468.549 105.412 363.778 0.641602 234.537 0.641602C105.296 0.641602 0.525391 105.412 0.525391 234.653C0.525391 363.894 105.296 468.665 234.537 468.665Z" fill="#FFA800"/>
</svg>
