<svg width="26" height="26" viewBox="0 0 26 26" fill="none" xmlns="http://www.w3.org/2000/svg">
<path fill-rule="evenodd" clip-rule="evenodd" d="M12.2341 15.9216L7.25845 10.946C6.83963 10.5272 6.83963 9.84816 7.25845 9.42935C7.67726 9.01053 8.3563 9.01053 8.77511 9.42935L13.0001 13.6543L17.2251 9.42935C17.6439 9.01053 18.323 9.01053 18.7418 9.42935C19.1606 9.84816 19.1606 10.5272 18.7418 10.946L13.7661 15.9216C13.3431 16.3447 12.6571 16.3447 12.2341 15.9216V15.9216Z" fill="white"/>
<mask id="mask0_1369_54212" style="mask-type:alpha" maskUnits="userSpaceOnUse" x="6" y="9" width="14" height="8">
<path fill-rule="evenodd" clip-rule="evenodd" d="M12.2341 15.9216L7.25845 10.946C6.83963 10.5272 6.83963 9.84816 7.25845 9.42935C7.67726 9.01053 8.3563 9.01053 8.77511 9.42935L13.0001 13.6543L17.2251 9.42935C17.6439 9.01053 18.323 9.01053 18.7418 9.42935C19.1606 9.84816 19.1606 10.5272 18.7418 10.946L13.7661 15.9216C13.3431 16.3447 12.6571 16.3447 12.2341 15.9216V15.9216Z" fill="white"/>
</mask>
<g mask="url(#mask0_1369_54212)">
<path fill-rule="evenodd" clip-rule="evenodd" d="M0 26H26V0H0V26Z" fill="white"/>
</g>
</svg>
