<svg width="26" height="26" viewBox="0 0 26 26" fill="none" xmlns="http://www.w3.org/2000/svg">
<path fill-rule="evenodd" clip-rule="evenodd" d="M13.7659 10.0784L18.7416 15.054C19.1604 15.4728 19.1604 16.1518 18.7416 16.5707C18.3227 16.9895 17.6437 16.9895 17.2249 16.5707L12.9999 12.3457L8.77489 16.5707C8.35607 16.9895 7.67704 16.9895 7.25822 16.5707C6.8394 16.1518 6.8394 15.4728 7.25822 15.054L12.2339 10.0784C12.6569 9.65529 13.3429 9.65529 13.7659 10.0784Z" fill="white"/>
<mask id="mask0_1369_54216" style="mask-type:alpha" maskUnits="userSpaceOnUse" x="6" y="9" width="14" height="8">
<path fill-rule="evenodd" clip-rule="evenodd" d="M13.7659 10.0784L18.7416 15.054C19.1604 15.4728 19.1604 16.1518 18.7416 16.5707C18.3227 16.9895 17.6437 16.9895 17.2249 16.5707L12.9999 12.3457L8.77489 16.5707C8.35607 16.9895 7.67704 16.9895 7.25822 16.5707C6.8394 16.1518 6.8394 15.4728 7.25822 15.054L12.2339 10.0784C12.6569 9.65529 13.3429 9.65529 13.7659 10.0784Z" fill="white"/>
</mask>
<g mask="url(#mask0_1369_54216)">
<path fill-rule="evenodd" clip-rule="evenodd" d="M26 0L0 0L0 26L26 26L26 0Z" fill="white"/>
</g>
</svg>
