<svg width="673" height="694" xmlns="http://www.w3.org/2000/svg" xml:space="preserve" style="fill-rule:evenodd;clip-rule:evenodd;stroke-linejoin:round;stroke-miterlimit:2" class="featureSvg_fujm" role="img">
  <path d="M562.155 2847.07c-13.155 4-20.161 12.01-23.45 26.59l-1.573 7.01-10.009 1.86c-47.185 8.58-99.803 31.03-131.832 55.91l-3.432 2.71 4.29 7.01c2.287 3.86 5.719 11.15 7.578 16.16 3.575 9.44 10.438 18.44 19.875 25.88l5.576 4.43 11.868-9.15c6.577-5.01 14.013-10.3 16.586-11.72 4.147-2.44 4.576-3.44 4.576-9.58 0-15.02 9.151-22.31 26.881-21.31 1.716 0 5.577 2.29 8.436 5.01l5.291 4.86 9.437-2.58c5.147-1.43 12.153-3 15.728-3.57 3.575-.43 8.722-1.43 11.439-2.15 2.717-.85 10.009-1.43 16.014-1.43h11.01l.429-13.29.429-13.16 6.148-.43 6.006-.43v12.87c0 15.02-1.573 13.73 18.874 15.02 6.863.42 18.445 2.14 25.737 3.86 7.292 1.71 14.728 3.43 16.586 3.86 2.288.43 4.004-.29 5.434-2.29 2.86-4.15 13.726-8.01 19.446-6.86 11.296 2.28 21.162 14.29 19.303 23.59-1.001 4.43 1.287 6.43 29.741 26.59 1.43 1 4.289-.57 10.295-5.86 6.863-6.01 9.723-10.01 16.872-23.88 4.718-9.15 9.437-17.87 10.438-19.59 1.716-2.71.858-3.43-12.44-12.15-30.885-20.3-79.071-40.04-113.816-46.76-8.579-1.57-16.586-3.14-17.444-3.43-1.001-.28-1.859-2.57-1.859-5.15-.143-11.01-11.439-25.16-22.449-28.16-6.148-1.72-16.586-1.86-22.019-.29Z" style="fill:#FFFFFF;fill-rule:nonzero" transform="translate(-236.67 -2845.95)"></path>
  <path d="M335.809 2939.44c-24.45 8.72-32.744 38.89-15.871 57.62 8.722 9.73 18.874 13.87 31.599 12.73 5.005-.29 10.152-1.57 11.439-2.57 1.859-1.58 15.157 11.15 98.231 94.22l95.943 95.95-93.512 93.08c-51.475 51.04-94.37 92.94-95.228 92.94-.858 0-3.575-1-6.006-2.29-10.724-5.29-26.166-3.57-36.461 4.29-6.863 5.29-13.298 16.02-14.727 24.74-2.145 14.01 7.292 29.88 21.733 37.03 6.578 3.29 9.151 3.72 16.158 3 20.875-1.86 34.888-17.44 35.174-39.46l.143-10.44 93.941-93.94 93.941-93.8 189.313 188.74-.429 9.58c-1.001 26.17 21.877 44.76 46.327 37.61 21.448-6.15 32.315-30.75 22.306-50.48-1.573-3.14-5.863-8.29-9.58-11.58-10.438-9.15-21.591-11.01-35.175-5.86-4.146 1.57-8.15 2.86-9.008 2.86-1.143 0-172.583-170.01-183.879-182.45l-4.003-4.43 93.512-93.37c51.475-51.48 94.37-93.94 95.514-94.66 1.144-.57 4.147-.43 6.864.29 7.435 2.14 19.875 1.57 26.881-1.29 7.292-3 16.014-11.15 19.732-18.59 3.431-7 3.431-23.45 0-29.74-9.437-17.44-26.31-25.16-44.04-20.02-19.303 5.72-29.884 25.88-24.879 47.9l1.001 4.86-95.228 94.95-95.371 94.94-95.086-95.23c-83.789-83.64-95.085-95.51-94.084-98.23.715-1.72 1.144-7.72 1.144-13.15 0-7.87-.715-11.59-3.432-17.02-8.722-17.16-27.453-25.02-44.897-18.73Z" style="fill:#FFFFFF;fill-rule:nonzero" transform="translate(-236.67 -2845.95)"></path>
  <path d="M535.845 2956.03c-7.864 1.43-17.73 3.57-22.019 4.58-7.579 1.85-7.722 2-9.437 8.57-1.001 3.72-2.86 8.16-4.433 9.73-6.291 7-19.017 9.01-27.739 4.29l-5.005-2.58-12.153 8.3c-6.721 4.57-13.727 9.58-15.729 11.15l-3.574 2.86 68.49 68.49 68.346 68.49 67.918-68.06c47.9-48.05 67.489-68.63 66.632-69.92-.572-1-7.293-6.29-14.728-11.73l-13.584-9.72-4.432 2.72c-5.719 3.43-17.873 3.57-23.45.43-4.718-2.86-8.15-8.44-9.723-15.59-1.001-4.86-1.715-5.58-7.435-7.29-9.58-2.86-39.464-7.72-47.328-7.72h-7.006v28.59c0 28.31 0 28.6 3.288 30.75 7.579 4.86 8.866 15.44 2.717 22.3-3.289 3.72-5.433 4.72-11.439 5.29-7.006.57-7.721.29-12.439-4.43-3.575-3.58-5.005-6.29-5.005-9.44 0-5.57 3.289-12.15 7.435-15.15 3.146-2.15 3.289-3.01 3.718-30.03l.572-27.88-9.151.14c-4.862 0-15.443 1.29-23.307 2.86ZM311.501 3027.23c-19.588 32.03-37.033 83.79-40.321 118.82-1.287 13.44-1.43 13.87-7.436 14.87-7.149 1-14.012 5.72-19.875 13.44-9.008 11.87-9.58 25.45-1.429 39.18 4.861 8.15 13.297 13.87 22.305 15.44l5.005.72 3.145 18.59c3.146 18.58 6.721 33.88 11.296 47.18 8.007 23.74 30.742 72.21 33.888 72.21.715 0 3.145-1.15 5.147-2.72 5.148-3.57 13.727-5.86 22.592-5.86 7.435 0 7.435 0 18.588-11.58 6.291-6.29 11.296-12.3 11.153-13.16-.143-1-3.861-6.86-8.436-13.15-4.433-6.29-8.579-12.3-8.865-13.3-.429-1-3.575-1.71-8.579-1.71-4.29 0-9.723-1.01-12.011-2.29-4.719-2.43-9.866-11.73-9.866-17.73 0-5.29 5.004-15.16 9.008-17.88l3.574-2.28-3.574-11.01c-4.004-12.59-7.578-34.46-7.578-46.47v-8.15h-22.878v-11.44h21.162l1.001-11.87c.858-9.58 3.717-26.31 8.722-50.9.429-2.29-.429-4.58-2.717-7.15-5.147-5.58-6.72-9.3-6.72-16.3 0-12.3 10.438-21.74 22.877-20.59 6.292.57 6.721.28 9.151-4.72 1.43-2.86 5.148-8.72 8.151-12.73 3.145-4.14 5.576-8.15 5.29-8.86-.286-.72-5.719-6.72-12.297-13.3-11.152-11.15-12.439-12.01-19.303-12.87-8.579-1.14-18.016-5-20.875-8.44-1.001-1.42-2.431-2.43-3.146-2.43-.572 0-3.432 3.87-6.149 8.44ZM822.245 3022.37c-6.864 4.72-11.153 6.29-20.161 7.29-6.864.86-7.864 1.58-18.016 12.44-6.006 6.29-11.296 12.16-11.868 13.16-.715 1 .572 4 3.003 7 2.287 2.86 6.291 8.44 8.722 12.3 4.432 6.86 4.861 7.15 10.866 7.15 13.012 0 20.876 6.72 22.735 19.3 1.144 7.15-.858 12.73-6.434 17.88l-4.29 4 2.145 8.44c1.144 4.57 2.431 10.15 2.86 12.58.286 2.29 1.001 5.86 1.43 7.86 1 5.43 1.858 12.58 2.859 25.31l1.001 11.87h22.592v11.44h-22.878l-.143 5c-.143 2.72-.286 5.43-.429 6.01-.143.71-.858 5.72-1.43 11.29-.572 5.58-2.859 17.3-5.004 26.03l-4.004 16.01 3.575 3.15c6.005 5.57 9.151 14.29 7.578 21.16-2.717 12.15-9.151 17.58-20.59 17.44l-7.435-.14-9.294 13.44c-5.004 7.29-9.437 14.01-9.723 14.87-.286.86 4.433 6.72 10.438 12.87l10.867 11.15 11.01.72c8.865.57 12.439 1.43 18.016 4.72l6.863 4 2.574-3.29c1.287-1.72 7.435-13.16 13.44-25.17 15.3-30.45 28.026-70.63 31.6-99.51 1.144-9.15 1.859-9.87 10.009-12.3 15.586-4.72 24.308-16.87 24.308-34.03 0-8.58-.572-10.87-4.004-16.01-5.004-7.73-14.298-14.45-21.305-15.45-3.002-.57-5.719-1.28-6.005-1.86-.286-.42-.858-4.14-1.43-8-1.43-12.3-4.861-28.74-9.294-45.04-1.716-5.87-3.289-11.73-3.575-13.16-3.86-15.01-25.88-63.2-32.6-71.63l-3.289-4.01-5.29 3.72Z" style="fill:#FFFFFF;fill-rule:nonzero" transform="translate(-236.67 -2845.95)"></path>
  <path d="M379.705 3066.98c-.857 1.43-4.432 6.72-8.007 11.72l-6.291 9.16 2.431 4.43c4.289 7.58 4.718 12.87 1.572 20.02-3.145 7.15-9.865 12.29-16.157 12.29-3.431 0-4.146.86-6.005 7.44-3.146 11.01-6.435 31.6-7.006 45.04l-.715 11.87h89.079l4.004-4.15c5.147-5.58 10.867-6.72 17.587-3.57 7.006 3.28 10.152 10.43 7.864 18.01-3.145 10.15-17.158 13.3-24.45 5.44l-4.004-4.29h-90.08l.572 8.86c1.572 24.59 7.149 51.76 11.152 54.34.858.57 3.003 1.14 4.576 1.14 4.003 0 10.152 4.86 13.012 10.44 3.002 5.86 2.859 14.87-.143 20.87-2.431 4.58-2.431 4.86 1.143 9.87 2.002 3 6.578 9.01 10.152 13.58l6.578 8.15 5.29-6c3.003-3.44 31.6-32.46 63.629-64.77 32.028-32.18 58.052-59.06 57.909-59.63-.286-.71-131.404-132.69-131.976-132.69 0 0-.715 1.14-1.716 2.43ZM734.595 3092.01c-15.014 15.16-44.469 45.18-65.773 66.49l-38.464 39.03 64.773 64.35c35.746 35.31 65.344 64.34 65.773 64.34.429 0 3.575-4.15 7.006-9.01 3.289-4.86 7.435-10.58 9.008-12.58l3.003-3.72-3.003-5.86c-3.86-7.58-3.717-13.87.286-21.02 2.574-4.58 4.576-6.15 10.009-8.01 3.718-1.14 7.007-2.57 7.435-3 1.573-1.57 9.009-35.6 10.009-45.18.429-5.29 1.287-11.3 1.573-13.59l.858-3.86H761.19c-36.175 0-46.041.43-46.899 1.86-3.575 5.86-13.155 8.44-19.446 5.15-11.439-5.86-10.295-22.02 1.859-27.02 5.433-2.29 10.152-1.01 16.3 4.28l4.861 4.29h89.223l-1.001-9.72c-1.144-11.87-2.001-18.59-2.859-23.16-.429-2-1.001-5.15-1.43-7.15-.429-2-1.716-8.3-3.146-14.01-2.145-9.44-2.717-10.3-6.005-10.3-14.442 0-23.164-17.73-15.872-32.03l2.717-5.43-5.576-8.15c-5.863-8.3-10.867-14.44-11.725-14.44-.286 0-12.726 12.44-27.596 27.45ZM506.247 3320.35c-36.032 36.03-65.487 66.06-65.487 66.77 0 .72 4.719 4.44 10.295 8.44 16.014 11.15 15.585 11.01 22.02 7.87 10.009-5.15 21.162-3.01 27.596 5.14 1.716 2.15 3.003 5.29 3.003 7.01 0 1.71.858 3.86 1.858 4.72 2.717 2.14 35.318 8.72 48.901 9.72l12.154 1v-20.45c0-20.01 0-20.3-3.575-23.16-6.434-5-7.864-9.44-5.576-17.16 1.716-5.72 2.86-7 8.436-9.72 7.721-3.72 13.012-3 18.445 2.72 7.578 7.86 7.15 16.72-1.144 24.3-3.717 3.44-3.717 3.72-3.717 24.17v20.59l4.003-.86c2.145-.29 7.722-1.14 12.44-1.57 4.576-.57 9.723-1.29 11.439-1.58 1.573-.42 7.435-1.57 12.869-2.71 21.304-4.58 19.874-3.86 22.019-10.44 3.861-12.44 19.875-18.45 31.028-11.87l5.291 3.15 10.151-6.87a919.944 919.944 0 0 0 13.441-9.15c3.146-2.43 2.86-2.71-62.913-69.06-36.462-36.6-66.489-66.63-66.918-66.63-.428.14-30.169 29.6-66.059 65.63Z" style="fill:#FFFFFF;fill-rule:nonzero" transform="translate(-236.67 -2845.95)"></path>
  <path d="M707.285 3399.28c-3.146 2.43-9.295 7.01-13.727 10.01-7.578 5.15-8.293 6.15-8.293 10.87 0 7.15-5.148 17.3-10.581 20.73-3.432 2.14-6.291 2.57-13.584 2.14-9.294-.43-11.724-1.85-16.586-10.15-1.287-2.14-2.145-2.14-11.439.43-5.433 1.57-12.868 3.15-16.443 3.72-3.432.57-6.72 1.14-7.149 1.43-.858.57-8.293 1.57-21.019 2.86l-9.008 1v31.17h-12.869v-15.73c0-15.3-.143-15.73-3.146-15.73-5.719-.14-18.731-1.71-29.741-3.71-14.584-2.58-16.872-3.01-24.593-5.3-6.434-2-6.577-2-8.15 1.29-2.431 5.43-9.866 9.15-18.016 9.15-12.583-.14-19.303-6.57-20.59-20.02l-.858-8.29-14.013-9.44c-7.721-5.14-14.727-9.43-15.728-9.43-1.001 0-7.149 5.29-13.584 11.86-8.293 8.3-14.012 15.73-18.874 24.6-4.003 6.86-7.006 12.72-6.863 13.01.286.14 6.577 4.15 14.013 8.87 34.316 21.44 68.49 34.88 107.811 42.46 10.294 2 20.16 4.01 22.019 4.43 2.574.58 3.146 1.58 3.146 6.44 0 7.29 2.717 13.73 8.722 20.59 13.155 14.87 37.748 14.58 49.902-.72 4.861-6.14 8.579-15.44 8.579-21.59 0-3.57.572-4.14 5.433-4.86 36.176-6.15 70.206-16.73 101.806-31.88 9.294-4.44 30.17-16.31 36.032-20.45l4.147-3-3.003-4.44c-1.573-2.57-5.004-8.43-7.292-13.15-2.86-5.43-9.008-13.16-16.73-21.16-6.863-6.87-12.725-12.44-13.297-12.44-.429 0-3.432 2-6.434 4.43Z" style="fill:#FFFFFF;fill-rule:nonzero" transform="translate(-236.67 -2845.95)"></path>
</svg>
