<svg width="49" height="36" viewBox="0 0 49 36" fill="none" xmlns="http://www.w3.org/2000/svg">
<path d="M8.77358 28.74C11.1219 30.1635 13.4702 31.587 15.8547 33.0377C15.4195 34.706 14.3587 35.4041 12.763 35.1593C8.5469 34.5246 4.66631 33.0558 1.51107 30.1182C0.867326 29.5198 0.241722 28.4771 0.268922 27.6611C0.55906 19.9906 2.31804 12.6555 5.84502 5.79196C7.21411 3.12632 14.2771 -0.30999 17.2873 0.134283C17.4777 0.161483 17.6318 0.42442 17.9764 0.741758C15.3017 2.02018 12.7267 3.23512 10.1608 4.45914C10.2333 4.69488 10.2968 4.93968 10.3693 5.17542C19.7535 1.07723 29.1195 0.986561 38.7121 4.64954C37.5335 3.9514 36.391 3.18979 35.167 2.58232C33.8795 1.94764 32.5195 1.4671 31.1867 0.914026C31.3862 0.515087 31.4315 0.270284 31.5222 0.25215C34.9222 -0.28279 41.7314 3.03566 43.2909 6.0005C46.8088 12.7009 48.2504 19.9543 48.876 27.3891C48.9394 28.1507 48.468 29.1661 47.8968 29.7283C44.6418 32.9742 40.5527 34.5428 36.0646 35.1593C34.5595 35.3678 33.5712 34.6425 33.2992 33.0105C35.6385 31.5507 37.9596 30.1091 40.2807 28.6584C29.7179 33.3459 19.3545 33.2462 8.78265 28.7309L8.77358 28.74ZM35.3574 19.8818C35.3755 17.2614 33.9792 15.6204 31.7125 15.6204C29.5275 15.6204 27.9227 17.4247 27.9499 19.8636C27.9771 22.2029 29.4912 23.9255 31.5766 23.9799C33.943 24.0434 35.3302 22.5474 35.3483 19.8908L35.3574 19.8818ZM13.6334 19.8455C13.6515 22.4386 15.0931 24.0253 17.387 23.9799C19.4724 23.9346 20.9866 22.2301 21.0319 19.8999C21.0772 17.4609 19.4905 15.6294 17.3326 15.6204C15.1113 15.6113 13.6153 17.3158 13.6334 19.8455Z" fill="white"/>
</svg>
