<svg width="52" height="51" viewBox="0 0 52 51" fill="none" xmlns="http://www.w3.org/2000/svg">
<path d="M26.1794 1.7677e-05C40.4094 0.0163365 51.906 11.4069 51.8325 25.4329C51.7591 39.1896 39.9443 50.7759 26.0652 50.6943C12.0392 50.6128 0.460969 39.1406 0.428331 25.3105C0.387534 11.2681 11.876 -0.0163011 26.1794 1.7677e-05ZM25.9836 39.7363C30.2509 39.7689 34.2654 38.7898 37.4557 35.934C38.8509 34.6856 39.6342 32.7355 40.5644 31.0302C41.2008 29.8716 41.772 28.6232 42.0739 27.3422C42.3595 26.1509 42.7185 24.6169 42.2044 23.6949C41.6986 22.781 39.9198 21.7366 39.0876 21.9977C36.8111 22.6995 35.1303 21.7938 33.2454 20.986C31.9807 20.4475 30.5528 20.2843 29.1984 19.9579C28.6354 19.8192 27.6399 19.8029 27.5665 19.5418C27.3135 18.5626 27.1096 17.4366 27.3543 16.482C27.7623 14.8664 28.2356 12.2636 29.1902 12.0188C30.8221 11.6027 33.1965 11.7006 34.4856 13.6996C35.3995 15.1194 36.7866 15.6253 38.0023 14.5482C38.6469 13.9771 38.9407 12.3125 38.5817 11.4884C37.9534 10.0442 36.55 10.2237 35.1547 10.8275C34.2898 11.1947 33.2454 11.26 32.2908 11.2518C31.4259 11.2355 30.5528 10.9744 29.6961 10.7459C28.2682 10.3706 27.4931 10.7949 27.232 12.3207C26.9219 14.1239 26.3916 15.8864 26.0489 17.6896C25.7714 19.1256 24.9881 19.6886 23.5357 19.9661C21.3898 20.374 19.3337 21.2063 17.2122 21.7366C16.2086 21.9896 15.0908 22.2099 14.1117 22.0222C12.3982 21.6877 11.0192 21.957 10.0238 23.393C8.9957 24.878 9.38738 26.2651 10.3502 27.6685C10.8642 28.411 11.1172 29.3249 11.5251 30.1408C12.4553 31.993 13.0183 34.2124 14.4135 35.6158C17.5141 38.7245 21.6346 39.6792 25.9672 39.7444L25.9836 39.7363Z" fill="white"/>
<path d="M31.7114 25.1882C33.3922 25.1882 34.8364 26.559 34.6895 27.9624C34.5182 29.5454 33.5228 30.4429 31.9398 30.549C30.4303 30.6469 29.0922 29.2842 29.1983 27.7829C29.3125 26.151 30.3325 25.3596 31.7114 25.1882Z" fill="white"/>
<path d="M20.3698 25.1636C21.969 25.4165 22.9645 26.2488 23.0134 27.897C23.0624 29.3983 21.6182 30.7364 20.1332 30.5488C18.5421 30.3448 17.5711 29.382 17.6364 27.7501C17.7017 26.0856 18.8276 25.3594 20.3698 25.1717V25.1636Z" fill="white"/>
<path d="M32.5598 33.2904C31.9315 35.9911 29.8346 36.8642 25.657 36.7744C22.0587 36.701 20.1901 35.779 19.7495 33.3475C24.0087 35.7708 28.1374 35.828 32.5598 33.2822V33.2904Z" fill="white"/>
</svg>
