<svg width="46" height="33" viewBox="0 0 46 33" fill="none" xmlns="http://www.w3.org/2000/svg">
<path d="M22.8952 0.168003C27.9635 0.403739 33.0409 0.585074 38.1092 0.902412C42.9781 1.20162 45.3626 3.44111 45.5349 8.27372C45.7435 13.7954 45.7344 19.3352 45.5349 24.8478C45.3626 29.626 43.1775 32.0468 38.3812 32.1647C28.0723 32.4095 17.7543 32.4004 7.44532 32.1647C2.66712 32.0559 0.418551 29.5897 0.246282 24.875C0.0468123 19.3533 0.0468123 13.8135 0.246282 8.29185C0.418551 3.45018 2.80316 1.19255 7.65389 0.893345C12.7222 0.576007 17.7996 0.394672 22.8861 0.158936L22.8952 0.168003ZM18.8332 10.2865V22.9256C22.6231 20.7043 26.005 18.7187 29.8222 16.4792C25.8781 14.2578 22.5053 12.3538 18.8332 10.2865Z" fill="white"/>
</svg>