<?xml version="1.0" encoding="UTF-8"?>
<svg id="Layer_1" xmlns="http://www.w3.org/2000/svg" version="1.1" viewBox="0 0 49 36">
  <!-- Generator: Adobe Illustrator 30.1.0, SVG Export Plug-In . SVG Version: 2.1.1 Build 136)  -->
  <path d="M8.8,28.7c2.3,1.4,4.7,2.8,7.1,4.3-.4,1.7-1.5,2.4-3.1,2.1-4.2-.6-8.1-2.1-11.3-5-.6-.6-1.3-1.6-1.2-2.5.3-7.7,2-15,5.6-21.9C7.2,3.1,14.3-.3,17.3.1c.2,0,.3.3.7.6-2.7,1.3-5.2,2.5-7.8,3.7,0,.2.1.5.2.7,9.4-4.1,18.8-4.2,28.3-.5-1.2-.7-2.3-1.5-3.5-2.1-1.3-.6-2.6-1.1-4-1.7.2-.4.2-.6.3-.7,3.4-.5,10.2,2.8,11.8,5.7,3.5,6.7,5,14,5.6,21.4,0,.8-.4,1.8-1,2.3-3.3,3.2-7.3,4.8-11.8,5.4-1.5.2-2.5-.5-2.8-2.1,2.3-1.5,4.7-2.9,7-4.4-10.6,4.7-20.9,4.6-31.5,0h0ZM35.4,19.9c0-2.6-1.4-4.3-3.6-4.3s-3.8,1.8-3.8,4.2c0,2.3,1.5,4.1,3.6,4.1,2.4,0,3.8-1.4,3.8-4.1h0ZM13.6,19.8c0,2.6,1.5,4.2,3.8,4.1,2.1,0,3.6-1.7,3.6-4.1,0-2.4-1.5-4.3-3.7-4.3-2.2,0-3.7,1.7-3.7,4.2Z"/>
</svg>