<?xml version="1.0" encoding="UTF-8"?>
<svg id="Layer_1" xmlns="http://www.w3.org/2000/svg" version="1.1" viewBox="0 0 52 51">
  <!-- Generator: Adobe Illustrator 30.1.0, SVG Export Plug-In . SVG Version: 2.1.1 Build 136)  -->
  <path d="M26.2,0c14.2,0,25.7,11.4,25.7,25.4,0,13.8-11.9,25.3-25.8,25.3C12,50.6.5,39.1.4,25.3.4,11.3,11.9,0,26.2,0ZM26,39.7c4.3,0,8.3-.9,11.5-3.8,1.4-1.2,2.2-3.2,3.1-4.9.6-1.2,1.2-2.4,1.5-3.7.3-1.2.6-2.7.1-3.6-.5-.9-2.3-2-3.1-1.7-2.3.7-4-.2-5.8-1-1.3-.5-2.7-.7-4-1-.6-.1-1.6-.2-1.6-.4-.3-1-.5-2.1-.2-3.1.4-1.6.9-4.2,1.8-4.5,1.6-.4,4-.3,5.3,1.7.9,1.4,2.3,1.9,3.5.8.6-.6.9-2.2.6-3.1-.6-1.4-2-1.3-3.4-.7-.9.4-1.9.4-2.9.4-.9,0-1.7-.3-2.6-.5-1.4-.4-2.2,0-2.5,1.6-.3,1.8-.8,3.6-1.2,5.4-.3,1.4-1.1,2-2.5,2.3-2.1.4-4.2,1.2-6.3,1.8-1,.3-2.1.5-3.1.3-1.7-.3-3.1,0-4.1,1.4-1,1.5-.6,2.9.3,4.3.5.7.8,1.7,1.2,2.5.9,1.9,1.5,4.1,2.9,5.5,3.1,3.1,7.2,4.1,11.6,4.1h0Z"/>
  <path d="M31.7,25.2c1.7,0,3.1,1.4,3,2.8-.2,1.6-1.2,2.5-2.7,2.6-1.5,0-2.8-1.3-2.7-2.8.1-1.6,1.1-2.4,2.5-2.6Z"/>
  <path d="M20.4,25.2c1.6.3,2.6,1.1,2.6,2.7,0,1.5-1.4,2.8-2.9,2.7-1.6-.2-2.6-1.2-2.5-2.8,0-1.7,1.2-2.4,2.7-2.6h0Z"/>
  <path d="M32.6,33.3c-.6,2.7-2.7,3.6-6.9,3.5-3.6,0-5.5-1-5.9-3.4,4.3,2.4,8.4,2.5,12.8,0h0Z"/>
</svg>