<svg width="54" height="45" viewBox="0 0 54 45" fill="none" xmlns="http://www.w3.org/2000/svg">
<path d="M20.1784 41.9635C20.1784 39.7784 20.3234 37.8562 20.1512 35.9613C19.6888 30.7116 22.6717 27.5201 26.3891 24.4374C31.9743 19.7952 37.3055 14.8357 42.7365 9.994C43.0176 9.74013 43.2171 9.38652 43.1899 8.62491C42.392 9.00572 41.5397 9.30492 40.7962 9.76733C32.5273 14.8991 24.2493 20.0128 16.0258 25.2262C14.5751 26.142 13.2967 26.3777 11.6646 25.8155C8.727 24.8001 5.68962 24.0657 2.77012 22.9958C1.74557 22.624 0.938628 21.6267 0.0410156 20.9195C0.911428 20.1488 1.64584 19.0517 2.66132 18.6618C15.4818 13.6842 28.3294 8.80625 41.177 3.90111C43.6251 2.96723 46.064 2.00615 48.5211 1.09947C52.0935 -0.224277 53.789 1.15388 53.0273 4.90753C51.486 12.4964 49.8268 20.0581 48.2038 27.6198C47.2337 32.1623 46.2998 36.7138 45.2752 41.2382C44.432 45.0009 42.6912 45.6718 39.5269 43.4686C36.4442 41.3198 33.3343 39.18 30.4148 36.8136C28.7193 35.4354 27.6675 35.7165 26.3256 37.1853C24.9566 38.6904 23.3789 40.0141 21.8467 41.356C21.5293 41.6371 20.9853 41.6734 20.1874 41.9544L20.1784 41.9635Z" fill="white"/>
</svg>
