<svg width="44" height="37" viewBox="0 0 44 37" fill="none" xmlns="http://www.w3.org/2000/svg">
<path d="M1.38174 13.6554C2.43348 13.7824 3.21323 13.8731 4.38284 14.0091C1.69001 10.3914 0.0398389 6.80095 2.61481 2.27663C3.69376 3.26491 4.5279 3.99932 5.33484 4.76093C9.20636 8.39671 13.8123 10.4911 19.0529 11.3343C20.7121 11.5973 21.5009 11.3343 21.4737 9.45752C21.4193 5.65854 23.2599 2.82063 26.6509 1.26114C29.9784 -0.262077 33.2968 0.0733936 36.4249 2.22222C37.1593 2.72996 38.3924 2.81156 39.3353 2.6665C40.4959 2.48516 41.5839 1.86862 43.4063 1.17048C42.2911 2.98383 41.5476 4.18972 40.6591 5.63134C41.738 5.46813 42.6356 5.32307 43.9957 5.11453C43.5151 5.86707 43.3156 6.51082 42.8895 6.80095C40.378 8.53271 40.0879 11.1439 39.7252 13.8549C37.0777 33.2488 17.3484 41.9076 1.52681 33.8835C1.19134 33.7112 0.901192 33.4483 0.157715 32.9224C4.72738 32.6685 8.67143 31.9794 12.28 29.2503C9.0341 27.8994 5.86072 26.7298 4.9087 22.8673C5.80632 22.6406 6.54982 22.4502 7.5381 22.2054C3.89325 20.4193 1.45428 17.9894 1.39081 13.6464L1.38174 13.6554Z" fill="white"/>
</svg>
