<svg width="1428" height="824" viewBox="0 0 1428 824" fill="none" xmlns="http://www.w3.org/2000/svg">
  <g opacity="0.1">
    <path d="M400.025 327.161L195.373 194.354" stroke="url(#paint0_linear_1369_48507)" stroke-width="4.35432"/>
    <path d="M400.025 327.163L604.678 180.204" stroke="url(#paint1_linear_1369_48507)" stroke-width="4.35432"/>
    <path opacity="0.5" d="M548.073 52.8409L604.679 180.205" stroke="#6665D8" stroke-width="4.35432"/>
    <path opacity="0.5" d="M101.755 97.4716L197.55 193.267" stroke="#6665D8" stroke-width="4.35432"/>
    <path opacity="0.5" d="M197.548 46.309V193.267" stroke="#6665D8" stroke-width="4.35432"/>
    <path opacity="0.5" d="M317.292 95.2938L197.548 193.266" stroke="#6665D8" stroke-width="4.35432"/>
    <path opacity="0.5" d="M114.816 299.947L197.548 193.267" stroke="#6665D8" stroke-width="4.35432"/>
    <path opacity="0.5" d="M34.2622 201.975L197.549 193.267" stroke="#6665D8" stroke-width="4.35432"/>
    <path opacity="0.5" d="M671.082 52.8409L604.678 180.205" stroke="#6665D8" stroke-width="4.35432"/>
    <path opacity="0.5" d="M764.699 136.661L604.678 180.204" stroke="#6665D8" stroke-width="4.35432"/>
    <path opacity="0.5" d="M735.308 257.493L604.678 180.204" stroke="#6665D8" stroke-width="4.35432"/>
    <path d="M365.19 891.046L966.086 657.001" stroke="#00FEFF" stroke-width="6.53148"/>
    <path d="M356.481 896.489L401.113 332.605" stroke="#00FEFF" stroke-width="6.53148"/>
    <ellipse opacity="0.25" cx="365.027" cy="880.094" rx="273" ry="273" transform="rotate(-90 365.027 880.094)" fill="#00FEFF"/>
    <circle cx="365.028" cy="880.094" r="192.624" transform="rotate(-90 365.028 880.094)" fill="#00FEFF"/>
    <circle cx="366.049" cy="880.095" r="131.489" transform="rotate(-90 366.049 880.095)" fill="#06152B"/>
    <circle cx="545.895" cy="52.8398" r="43.5432" transform="rotate(-90 545.895 52.8398)" fill="#0092F6"/>
    <circle cx="195.371" cy="44.1305" r="43.5432" transform="rotate(-90 195.371 44.1305)" fill="#0092F6"/>
    <circle cx="312.936" cy="94.2046" r="43.5432" transform="rotate(-90 312.936 94.2046)" fill="#0092F6"/>
    <circle cx="112.64" cy="298.86" r="43.5432" transform="rotate(-90 112.64 298.86)" fill="#0092F6"/>
    <circle cx="69.0944" cy="74.6116" r="43.5432" transform="rotate(-90 69.0944 74.6116)" fill="#0092F6"/>
    <circle cx="32.0847" cy="200.888" r="43.5432" transform="rotate(-90 32.0847 200.888)" fill="#0092F6"/>
    <circle cx="669.99" cy="50.6619" r="43.5432" transform="rotate(-90 669.99 50.6619)" fill="#0092F6"/>
    <circle cx="763.611" cy="133.394" r="43.5432" transform="rotate(-90 763.611 133.394)" fill="#0092F6"/>
    <circle cx="730.952" cy="257.493" r="43.5432" transform="rotate(-90 730.952 257.493)" fill="#0092F6"/>
    <circle cx="600.322" cy="184.911" r="60.9604" transform="rotate(-90 600.322 184.911)" fill="#01F1E3"/>
    <circle cx="599.951" cy="185.278" r="41.3615" transform="rotate(-90 599.951 185.278)" fill="#06152B"/>
    <path d="M586.911 194.051H585.245L576.251 182.537V194.051H574.315V179.269H576.001L584.996 190.782V179.269H586.911V194.051ZM591.036 194.051V179.269H599.635V181.101H592.973V185.577H598.24V187.409H592.973V194.051H591.036ZM605.287 194.051V181.101H600.685V179.269H611.783V181.101H607.181V194.051H605.287ZM615.519 194.259C614.562 194.259 613.722 194.058 613 193.655C612.278 193.239 611.758 192.635 611.439 191.844L612.896 191.032C613.09 191.546 613.43 191.948 613.916 192.24C614.402 192.531 614.943 192.677 615.54 192.677C616.054 192.677 616.484 192.552 616.831 192.302C617.178 192.052 617.352 191.712 617.352 191.282C617.352 190.907 617.213 190.595 616.935 190.345C616.671 190.095 616.206 189.866 615.54 189.658L614.499 189.325C612.764 188.825 611.897 187.812 611.897 186.285C611.897 185.424 612.237 184.737 612.917 184.224C613.611 183.696 614.464 183.433 615.478 183.433C617.06 183.433 618.205 184.036 618.913 185.244L617.581 186.16C617.011 185.369 616.29 184.973 615.415 184.973C614.943 184.973 614.534 185.091 614.187 185.327C613.854 185.549 613.687 185.848 613.687 186.223C613.687 186.57 613.791 186.868 613.999 187.118C614.222 187.354 614.61 187.555 615.165 187.722L616.311 188.076C618.198 188.659 619.142 189.679 619.142 191.136C619.142 192.108 618.802 192.871 618.122 193.426C617.456 193.982 616.588 194.259 615.519 194.259Z" fill="white"/>
    <circle cx="195.371" cy="191.443" r="60.9604" transform="rotate(-90 195.371 191.443)" fill="#01F1E3"/>
    <circle cx="195.001" cy="191.811" r="41.3615" transform="rotate(-90 195.001 191.811)" fill="#06152B"/>
    <path d="M720.842 924.025C726.786 877.042 723.418 829.347 710.93 783.665C698.442 737.983 677.079 695.208 648.059 657.782C619.04 620.356 582.934 589.013 541.801 565.541C500.669 542.069 455.316 526.929 408.332 520.985C361.348 515.041 313.654 518.409 267.972 530.897C222.29 543.385 179.515 564.748 142.089 593.767C104.663 622.787 73.3196 658.893 49.8479 700.026C26.3762 741.158 11.2359 786.511 5.29161 833.495C-0.652693 880.479 2.71533 928.173 15.2034 973.855C27.6915 1019.54 49.055 1062.31 78.0742 1099.74C107.093 1137.16 143.2 1168.51 184.333 1191.98C225.465 1215.45 270.818 1230.59 317.802 1236.54C364.785 1242.48 412.48 1239.11 458.162 1226.62C503.844 1214.14 546.619 1192.77 584.045 1163.75C621.471 1134.73 652.814 1098.63 676.286 1057.49C699.758 1016.36 714.898 971.009 720.842 924.025L720.842 924.025Z" stroke="#00FEFF" stroke-width="31.7429" stroke-dasharray="1.4 13.98"/>
    <g filter="url(#filter0_dii_1369_48507)">
      <circle cx="400.024" cy="324.985" r="108.858" fill="#000062"/>
    </g>
    <g filter="url(#filter1_dii_1369_48507)">
      <circle cx="963.907" cy="653.735" r="108.858" fill="#000062"/>
    </g>
  </g>
  <defs>
    <filter id="filter0_dii_1369_48507" x="121.584" y="55.0238" width="556.88" height="556.88" filterUnits="userSpaceOnUse" color-interpolation-filters="sRGB">
      <feFlood flood-opacity="0" result="BackgroundImageFix"/>
      <feColorMatrix in="SourceAlpha" type="matrix" values="0 0 0 0 0 0 0 0 0 0 0 0 0 0 0 0 0 0 127 0" result="hardAlpha"/>
      <feOffset dy="8.47911"/>
      <feGaussianBlur stdDeviation="84.7911"/>
      <feColorMatrix type="matrix" values="0 0 0 0 0.135917 0 0 0 0 0 0 0 0 0 0.970833 0 0 0 1 0"/>
      <feBlend mode="normal" in2="BackgroundImageFix" result="effect1_dropShadow_1369_48507"/>
      <feBlend mode="normal" in="SourceGraphic" in2="effect1_dropShadow_1369_48507" result="shape"/>
      <feColorMatrix in="SourceAlpha" type="matrix" values="0 0 0 0 0 0 0 0 0 0 0 0 0 0 0 0 0 0 127 0" result="hardAlpha"/>
      <feOffset dx="21.1978" dy="33.9165"/>
      <feGaussianBlur stdDeviation="21.1978"/>
      <feComposite in2="hardAlpha" operator="arithmetic" k2="-1" k3="1"/>
      <feColorMatrix type="matrix" values="0 0 0 0 0 0 0 0 0 0.996078 0 0 0 0 1 0 0 0 0.95 0"/>
      <feBlend mode="normal" in2="shape" result="effect2_innerShadow_1369_48507"/>
      <feColorMatrix in="SourceAlpha" type="matrix" values="0 0 0 0 0 0 0 0 0 0 0 0 0 0 0 0 0 0 127 0" result="hardAlpha"/>
      <feOffset dy="4.23956"/>
      <feGaussianBlur stdDeviation="10.5989"/>
      <feComposite in2="hardAlpha" operator="arithmetic" k2="-1" k3="1"/>
      <feColorMatrix type="matrix" values="0 0 0 0 1 0 0 0 0 1 0 0 0 0 1 0 0 0 0.58 0"/>
      <feBlend mode="normal" in2="effect2_innerShadow_1369_48507" result="effect3_innerShadow_1369_48507"/>
    </filter>
    <filter id="filter1_dii_1369_48507" x="685.467" y="383.774" width="556.88" height="556.88" filterUnits="userSpaceOnUse" color-interpolation-filters="sRGB">
      <feFlood flood-opacity="0" result="BackgroundImageFix"/>
      <feColorMatrix in="SourceAlpha" type="matrix" values="0 0 0 0 0 0 0 0 0 0 0 0 0 0 0 0 0 0 127 0" result="hardAlpha"/>
      <feOffset dy="8.47911"/>
      <feGaussianBlur stdDeviation="84.7911"/>
      <feColorMatrix type="matrix" values="0 0 0 0 0.135917 0 0 0 0 0 0 0 0 0 0.970833 0 0 0 1 0"/>
      <feBlend mode="normal" in2="BackgroundImageFix" result="effect1_dropShadow_1369_48507"/>
      <feBlend mode="normal" in="SourceGraphic" in2="effect1_dropShadow_1369_48507" result="shape"/>
      <feColorMatrix in="SourceAlpha" type="matrix" values="0 0 0 0 0 0 0 0 0 0 0 0 0 0 0 0 0 0 127 0" result="hardAlpha"/>
      <feOffset dx="21.1978" dy="33.9165"/>
      <feGaussianBlur stdDeviation="21.1978"/>
      <feComposite in2="hardAlpha" operator="arithmetic" k2="-1" k3="1"/>
      <feColorMatrix type="matrix" values="0 0 0 0 0 0 0 0 0 0.996078 0 0 0 0 1 0 0 0 0.95 0"/>
      <feBlend mode="normal" in2="shape" result="effect2_innerShadow_1369_48507"/>
      <feColorMatrix in="SourceAlpha" type="matrix" values="0 0 0 0 0 0 0 0 0 0 0 0 0 0 0 0 0 0 127 0" result="hardAlpha"/>
      <feOffset dy="4.23956"/>
      <feGaussianBlur stdDeviation="10.5989"/>
      <feComposite in2="hardAlpha" operator="arithmetic" k2="-1" k3="1"/>
      <feColorMatrix type="matrix" values="0 0 0 0 1 0 0 0 0 1 0 0 0 0 1 0 0 0 0.58 0"/>
      <feBlend mode="normal" in2="effect2_innerShadow_1369_48507" result="effect3_innerShadow_1369_48507"/>
    </filter>
    <linearGradient id="paint0_linear_1369_48507" x1="237.827" y1="224.835" x2="323.825" y2="281.441" gradientUnits="userSpaceOnUse">
      <stop stop-color="#02EAE4"/>
      <stop offset="1" stop-color="#2C3BD5"/>
    </linearGradient>
    <linearGradient id="paint1_linear_1369_48507" x1="551.338" y1="208.507" x2="455.543" y2="285.797" gradientUnits="userSpaceOnUse">
      <stop stop-color="#02EAE4"/>
      <stop offset="1" stop-color="#2C3BD5"/>
    </linearGradient>
  </defs>
</svg>
