<svg width="1428" height="824" viewBox="0 0 1428 824" fill="none" xmlns="http://www.w3.org/2000/svg">
  <g opacity="0.1">
    <path d="M400.026 327.161L195.373 194.354" stroke="url(#paint0_linear_2255_148937)" stroke-width="4.35432"/>
    <path d="M400.026 327.163L604.679 180.204" stroke="url(#paint1_linear_2255_148937)" stroke-width="4.35432"/>
    <path opacity="0.5" d="M548.076 52.8409L604.682 180.205" stroke="#6665D8" stroke-width="4.35432"/>
    <path opacity="0.5" d="M101.758 97.4716L197.553 193.267" stroke="#6665D8" stroke-width="4.35432"/>
    <path opacity="0.5" d="M197.552 46.309V193.267" stroke="#6665D8" stroke-width="4.35432"/>
    <path opacity="0.5" d="M317.295 95.2938L197.552 193.266" stroke="#6665D8" stroke-width="4.35432"/>
    <path opacity="0.5" d="M114.818 299.947L197.55 193.267" stroke="#6665D8" stroke-width="4.35432"/>
    <path opacity="0.5" d="M34.2632 201.975L197.55 193.267" stroke="#6665D8" stroke-width="4.35432"/>
    <path opacity="0.5" d="M671.082 52.8409L604.679 180.205" stroke="#6665D8" stroke-width="4.35432"/>
    <path opacity="0.5" d="M764.7 136.661L604.679 180.204" stroke="#6665D8" stroke-width="4.35432"/>
    <path opacity="0.5" d="M735.308 257.493L604.679 180.204" stroke="#6665D8" stroke-width="4.35432"/>
    <path d="M365.192 891.046L966.088 657.001" stroke="#00FEFF" stroke-width="6.53148"/>
    <path d="M356.483 896.489L401.115 332.605" stroke="#00FEFF" stroke-width="6.53148"/>
    <ellipse opacity="0.25" cx="365.027" cy="880.094" rx="273" ry="273" transform="rotate(-90 365.027 880.094)" fill="#00FEFF"/>
    <circle cx="365.03" cy="880.094" r="192.624" transform="rotate(-90 365.03 880.094)" fill="#00FEFF"/>
    <circle cx="366.052" cy="880.095" r="131.489" transform="rotate(-90 366.052 880.095)" fill="#06152B"/>
    <circle cx="545.892" cy="52.8398" r="43.5432" transform="rotate(-90 545.892 52.8398)" fill="#0092F6"/>
    <circle cx="195.373" cy="44.1305" r="43.5432" transform="rotate(-90 195.373 44.1305)" fill="#0092F6"/>
    <circle cx="312.936" cy="94.2046" r="43.5432" transform="rotate(-90 312.936 94.2046)" fill="#0092F6"/>
    <circle cx="112.64" cy="298.86" r="43.5432" transform="rotate(-90 112.64 298.86)" fill="#0092F6"/>
    <circle cx="69.0969" cy="74.6116" r="43.5432" transform="rotate(-90 69.0969 74.6116)" fill="#0092F6"/>
    <circle cx="32.0847" cy="200.888" r="43.5432" transform="rotate(-90 32.0847 200.888)" fill="#0092F6"/>
    <circle cx="669.99" cy="50.6619" r="43.5432" transform="rotate(-90 669.99 50.6619)" fill="#0092F6"/>
    <circle cx="763.611" cy="133.394" r="43.5432" transform="rotate(-90 763.611 133.394)" fill="#0092F6"/>
    <circle cx="730.95" cy="257.493" r="43.5432" transform="rotate(-90 730.95 257.493)" fill="#0092F6"/>
    <circle cx="600.322" cy="184.911" r="60.9604" transform="rotate(-90 600.322 184.911)" fill="#00FEFF"/>
    <circle cx="599.951" cy="185.278" r="41.3615" transform="rotate(-90 599.951 185.278)" fill="#06152B"/>
    <circle cx="195.374" cy="191.443" r="60.9604" transform="rotate(-90 195.374 191.443)" fill="#00FEFF"/>
    <circle cx="195.003" cy="191.811" r="41.3615" transform="rotate(-90 195.003 191.811)" fill="#06152B"/>
    <path d="M720.844 924.025C726.788 877.041 723.42 829.347 710.932 783.665C698.444 737.983 677.08 695.208 648.061 657.782C619.042 620.356 582.935 589.013 541.803 565.541C500.67 542.069 455.317 526.929 408.333 520.985C361.35 515.04 313.655 518.408 267.973 530.897C222.291 543.385 179.516 564.748 142.09 593.767C104.665 622.787 73.321 658.893 49.8493 700.026C26.3776 741.158 11.2374 786.511 5.29308 833.495C-0.651228 880.479 2.7168 928.173 15.2049 973.855C27.6929 1019.54 49.0565 1062.31 78.0757 1099.74C107.095 1137.16 143.202 1168.51 184.334 1191.98C225.467 1215.45 270.819 1230.59 317.803 1236.54C364.787 1242.48 412.481 1239.11 458.163 1226.62C503.845 1214.14 546.621 1192.77 584.046 1163.75C621.472 1134.73 652.816 1098.63 676.287 1057.49C699.759 1016.36 714.899 971.009 720.844 924.025L720.844 924.025Z" stroke="#00FEFF" stroke-width="31.7429" stroke-dasharray="1.4 13.98"/>
    <g filter="url(#filter0_dii_2255_148937)">
      <circle cx="400.024" cy="324.985" r="108.858" fill="#000062"/>
    </g>
    <g filter="url(#filter1_dii_2255_148937)">
      <circle cx="963.91" cy="653.735" r="108.858" fill="#000062"/>
    </g>
  </g>
  <defs>
    <filter id="filter0_dii_2255_148937" x="121.584" y="55.0238" width="556.88" height="556.88" filterUnits="userSpaceOnUse" color-interpolation-filters="sRGB">
      <feFlood flood-opacity="0" result="BackgroundImageFix"/>
      <feColorMatrix in="SourceAlpha" type="matrix" values="0 0 0 0 0 0 0 0 0 0 0 0 0 0 0 0 0 0 127 0" result="hardAlpha"/>
      <feOffset dy="8.47911"/>
      <feGaussianBlur stdDeviation="84.7911"/>
      <feColorMatrix type="matrix" values="0 0 0 0 0.135917 0 0 0 0 0 0 0 0 0 0.970833 0 0 0 1 0"/>
      <feBlend mode="normal" in2="BackgroundImageFix" result="effect1_dropShadow_2255_148937"/>
      <feBlend mode="normal" in="SourceGraphic" in2="effect1_dropShadow_2255_148937" result="shape"/>
      <feColorMatrix in="SourceAlpha" type="matrix" values="0 0 0 0 0 0 0 0 0 0 0 0 0 0 0 0 0 0 127 0" result="hardAlpha"/>
      <feOffset dx="21.1978" dy="33.9165"/>
      <feGaussianBlur stdDeviation="21.1978"/>
      <feComposite in2="hardAlpha" operator="arithmetic" k2="-1" k3="1"/>
      <feColorMatrix type="matrix" values="0 0 0 0 0 0 0 0 0 0.996078 0 0 0 0 1 0 0 0 0.95 0"/>
      <feBlend mode="normal" in2="shape" result="effect2_innerShadow_2255_148937"/>
      <feColorMatrix in="SourceAlpha" type="matrix" values="0 0 0 0 0 0 0 0 0 0 0 0 0 0 0 0 0 0 127 0" result="hardAlpha"/>
      <feOffset dy="4.23956"/>
      <feGaussianBlur stdDeviation="10.5989"/>
      <feComposite in2="hardAlpha" operator="arithmetic" k2="-1" k3="1"/>
      <feColorMatrix type="matrix" values="0 0 0 0 1 0 0 0 0 1 0 0 0 0 1 0 0 0 0.58 0"/>
      <feBlend mode="normal" in2="effect2_innerShadow_2255_148937" result="effect3_innerShadow_2255_148937"/>
    </filter>
    <filter id="filter1_dii_2255_148937" x="685.469" y="383.774" width="556.88" height="556.88" filterUnits="userSpaceOnUse" color-interpolation-filters="sRGB">
      <feFlood flood-opacity="0" result="BackgroundImageFix"/>
      <feColorMatrix in="SourceAlpha" type="matrix" values="0 0 0 0 0 0 0 0 0 0 0 0 0 0 0 0 0 0 127 0" result="hardAlpha"/>
      <feOffset dy="8.47911"/>
      <feGaussianBlur stdDeviation="84.7911"/>
      <feColorMatrix type="matrix" values="0 0 0 0 0.135917 0 0 0 0 0 0 0 0 0 0.970833 0 0 0 1 0"/>
      <feBlend mode="normal" in2="BackgroundImageFix" result="effect1_dropShadow_2255_148937"/>
      <feBlend mode="normal" in="SourceGraphic" in2="effect1_dropShadow_2255_148937" result="shape"/>
      <feColorMatrix in="SourceAlpha" type="matrix" values="0 0 0 0 0 0 0 0 0 0 0 0 0 0 0 0 0 0 127 0" result="hardAlpha"/>
      <feOffset dx="21.1978" dy="33.9165"/>
      <feGaussianBlur stdDeviation="21.1978"/>
      <feComposite in2="hardAlpha" operator="arithmetic" k2="-1" k3="1"/>
      <feColorMatrix type="matrix" values="0 0 0 0 0 0 0 0 0 0.996078 0 0 0 0 1 0 0 0 0.95 0"/>
      <feBlend mode="normal" in2="shape" result="effect2_innerShadow_2255_148937"/>
      <feColorMatrix in="SourceAlpha" type="matrix" values="0 0 0 0 0 0 0 0 0 0 0 0 0 0 0 0 0 0 127 0" result="hardAlpha"/>
      <feOffset dy="4.23956"/>
      <feGaussianBlur stdDeviation="10.5989"/>
      <feComposite in2="hardAlpha" operator="arithmetic" k2="-1" k3="1"/>
      <feColorMatrix type="matrix" values="0 0 0 0 1 0 0 0 0 1 0 0 0 0 1 0 0 0 0.58 0"/>
      <feBlend mode="normal" in2="effect2_innerShadow_2255_148937" result="effect3_innerShadow_2255_148937"/>
    </filter>
    <linearGradient id="paint0_linear_2255_148937" x1="237.828" y1="224.835" x2="323.825" y2="281.441" gradientUnits="userSpaceOnUse">
      <stop stop-color="#02EAE4"/>
      <stop offset="1" stop-color="#2C3BD5"/>
    </linearGradient>
    <linearGradient id="paint1_linear_2255_148937" x1="551.338" y1="208.507" x2="455.543" y2="285.797" gradientUnits="userSpaceOnUse">
      <stop stop-color="#02EAE4"/>
      <stop offset="1" stop-color="#2C3BD5"/>
    </linearGradient>
  </defs>
</svg>
