<svg width="215" height="204" viewBox="0 0 215 204" fill="none" xmlns="http://www.w3.org/2000/svg">
<g clip-path="url(#clip0_2_7340)">
<path d="M227.33 58.2788C224.404 57.8035 221.586 57.0037 218.95 55.7797C211.787 52.452 207.314 46.7744 202.987 41.2828C197.681 34.5444 192.668 28.1808 183.048 25.7582C169.46 22.3356 154.97 20.3988 140.958 18.5209C134.031 17.5945 126.867 16.6353 119.965 15.5142L46.61 3.59882L46.8309 2.23919L120.186 14.1546C127.069 15.2726 134.222 16.2301 141.141 17.1563C155.193 19.0369 169.721 20.9811 183.384 24.4229C193.459 26.9588 198.854 33.8083 204.07 40.4298C208.296 45.7946 212.665 51.3409 219.529 54.53C230.89 59.8055 245.396 56.9629 258.197 54.4576C260.007 54.1029 261.768 53.758 263.463 53.4487C266.73 52.8523 269.983 52.221 273.231 51.5915C288.3 48.6685 303.882 45.6449 319.752 46.5751L319.671 47.9492C303.975 47.0309 288.479 50.0373 273.492 52.9436C270.24 53.5751 266.981 54.2069 263.71 54.8026C262.021 55.1115 260.265 55.456 258.461 55.8088C248.87 57.6878 237.458 59.9227 227.33 58.2788Z" fill="#EFEFEF"/>
<path d="M228.755 72.5512C225.889 72.0856 223.093 71.3534 220.411 70.2718C213.216 67.3723 207.629 62.4419 202.228 57.6737C195.564 51.7915 189.269 46.235 180.094 43.957C176.197 42.9901 172.279 42.002 168.345 41.01C151.593 36.7873 134.271 32.4213 117.306 29.3399C104.693 27.0566 91.7023 26.1758 79.1499 25.3347C67.6573 24.5636 55.7763 23.7676 44.1557 21.88C43.9871 21.8526 43.82 21.8241 43.6527 21.7969L43.8762 20.4377C55.5919 22.3353 67.6151 23.179 79.2424 23.9597C91.8311 24.8039 104.831 25.6728 117.554 27.9846C134.562 31.0745 151.908 35.4469 168.681 39.6747C172.614 40.6664 176.531 41.6543 180.426 42.6208C189.928 44.9793 196.645 50.9082 203.139 56.6416C208.454 61.333 213.95 66.1833 220.926 68.9954C232.406 73.6158 246.253 71.6403 258.474 69.8969C260.149 69.6578 261.796 69.4225 263.411 69.2078C266.133 68.8445 268.846 68.4662 271.554 68.0884C286.257 66.0353 301.46 63.9122 316.794 64.773L316.717 66.1479C301.516 65.295 287.056 67.314 271.745 69.4523C269.035 69.831 266.318 70.2102 263.592 70.5728C261.982 70.7869 260.338 71.0228 258.669 71.2599C249.088 72.6282 238.518 74.1371 228.755 72.5512Z" fill="#EFEFEF"/>
<path d="M235.48 83.0483C232.385 82.5456 229.318 81.8974 226.283 81.0705C218.043 78.8257 210.279 75.2942 202.768 71.8788C194.612 68.1704 186.179 64.3353 177.142 62.1586C166.198 59.521 155.884 54.8463 145.908 50.3245C135.99 45.8283 125.732 41.179 114.948 38.5999C101.286 35.3247 87.1415 36.9615 73.45 38.5357C62.7251 39.7672 51.6348 41.0416 40.743 40.0028L40.8732 38.6312C51.6213 39.6561 62.638 38.3902 73.2922 37.1663C87.1029 35.5802 101.387 33.947 115.269 37.2594C126.181 39.8699 136.499 44.5469 146.477 49.0704C156.393 53.5648 166.647 58.2135 177.466 60.8185C186.63 63.0267 195.124 66.8894 203.339 70.625C210.798 74.0185 218.513 77.5257 226.646 79.7421C242.905 84.167 260.283 83.4043 277.086 82.6599C289.239 82.1224 301.807 81.5677 313.879 82.9767L313.72 84.3436C301.757 82.9483 289.246 83.5012 277.147 84.0367C263.353 84.6458 249.175 85.2728 235.48 83.0483Z" fill="#EFEFEF"/>
<path d="M234.801 92.9368C233.704 92.7586 232.611 92.5756 231.518 92.3857C213.922 89.3328 194.634 85.2865 174.185 80.3583C162.116 77.4493 151.832 70.607 141.887 63.9915C132.741 57.9065 123.283 51.6154 112.549 48.509C98.6815 44.5052 84.2733 48.5618 70.3352 52.4931C59.6932 55.4961 48.6887 58.5996 37.8273 58.205L37.8764 56.8284C48.5225 57.2153 59.4213 54.1409 69.9617 51.1677C84.0854 47.1848 98.689 43.066 112.933 47.1867C123.87 50.3507 133.417 56.7025 142.649 62.8452C152.495 69.3941 162.676 76.1679 174.509 79.0182C194.927 83.9401 214.187 87.9802 231.754 91.0287C244.805 93.2985 258.194 94.7033 271.138 96.0673C284.222 97.4457 297.757 98.8743 310.961 101.181L310.725 102.538C297.557 100.24 284.056 98.8142 270.993 97.4379C259.109 96.1861 246.85 94.894 234.801 92.9368Z" fill="#EFEFEF"/>
<path d="M213.733 106.927C199.419 104.602 185.161 101.919 171.229 98.558C158.872 95.575 148.706 88.1672 138.873 81.003C129.889 74.4549 120.598 67.6855 109.749 64.4404C95.8351 60.267 82.3461 64.7891 68.0758 69.5658C57.3579 73.1534 46.2767 76.8632 35.1087 76.4433L35.1605 75.0671C46.0769 75.4761 57.0381 71.8081 67.638 68.2586C81.4846 63.6243 95.8033 58.835 110.143 63.1199C121.219 66.433 130.606 73.2741 139.685 79.8893C149.408 86.9743 159.462 94.3012 171.553 97.2178C199.553 103.981 228.935 107.99 257.352 111.869C273.941 114.135 291.087 116.479 307.72 119.335L307.485 120.692C290.883 117.838 273.742 115.497 257.165 113.234C242.836 111.277 228.257 109.286 213.733 106.927Z" fill="#EFEFEF"/>
<path d="M233.166 132.402C231.783 132.178 230.404 131.933 229.027 131.669C217.256 129.4 205.432 126.239 193.996 123.181C185.584 120.931 176.886 118.605 168.29 116.658C156.497 113.986 145.986 107.982 135.819 102.175C126.047 96.5938 115.941 90.8215 104.805 88.1146C92.2935 85.0738 79.5002 88.1485 67.1332 91.1248C57.2284 93.5075 46.986 95.9717 36.7556 95.392L36.8344 94.0175C46.8609 94.5859 57.0027 92.1449 66.8112 89.7846C79.3371 86.7701 92.2889 83.6421 105.131 86.7775C116.454 89.5299 126.647 95.3502 136.503 100.98C146.581 106.736 157.002 112.689 168.596 115.315C177.215 117.267 185.927 119.597 194.353 121.85C205.764 124.901 217.566 128.057 229.288 130.315C241.761 132.72 254.571 133.344 266.957 133.947C277.555 134.463 288.515 134.997 299.258 136.64L299.051 138.002C288.377 136.369 277.453 135.837 266.891 135.322C255.817 134.784 244.407 134.228 233.166 132.402Z" fill="#EFEFEF"/>
<path d="M229.183 157.85C227.129 157.516 225.071 157.064 223.006 156.465C214.207 153.918 205.749 150.168 197.569 146.539C187.288 141.98 176.655 137.262 165.342 134.961C154.404 132.736 143.781 129.014 133.507 125.416C123.571 121.936 113.299 118.338 102.804 116.122C91.5666 113.753 80.2166 114.369 69.2312 114.964C60.0332 115.463 50.5216 115.978 41.0339 114.77L41.2069 113.402C50.5718 114.595 60.02 114.084 69.1561 113.589C80.2311 112.988 91.6812 112.368 103.088 114.775C113.67 117.008 123.985 120.622 133.963 124.116C144.192 127.699 154.771 131.405 165.616 133.61C177.077 135.944 187.778 140.69 198.128 145.28C206.265 148.889 214.681 152.622 223.39 155.143C235.875 158.754 247.708 157.05 260.238 155.245C269.102 153.967 278.266 152.647 287.594 153.427L287.481 154.798C278.308 154.033 269.222 155.342 260.435 156.609C250.272 158.072 239.817 159.577 229.183 157.85Z" fill="#EFEFEF"/>
<path d="M225.457 181.67C223.359 181.331 221.202 180.787 218.962 180.001C210.323 176.965 202.311 172.218 194.561 167.627C184.514 161.675 174.124 155.52 162.387 153.161C139.858 148.631 116.793 145.211 94.4861 141.907C77.8267 139.435 60.5989 136.881 43.7259 133.887L43.968 132.531C60.8142 135.522 78.0383 138.074 94.6884 140.544C117.011 143.85 140.095 147.274 162.658 151.81C174.625 154.216 185.116 160.432 195.263 166.443C202.955 170.999 210.908 175.711 219.418 178.701C231.94 183.094 242.025 179.552 252.701 175.797C260.498 173.053 268.56 170.215 277.845 170.526L277.798 171.903C268.773 171.6 260.834 174.394 253.159 177.097C244.131 180.273 235.516 183.304 225.457 181.67Z" fill="#EFEFEF"/>
<path d="M221.742 199.35C219.609 199.004 217.424 198.455 215.169 197.664C206.679 194.682 198.793 190.042 191.168 185.554C181.252 179.719 170.998 173.686 159.431 171.361C138.747 167.204 117.33 162.931 95.8779 159.473C87.5945 158.15 79.1217 157.17 70.9287 156.221C61.0191 155.076 50.7714 153.89 40.7684 152.086L41.0131 150.73C50.9739 152.526 61.1961 153.709 71.0867 154.854C79.2947 155.803 87.7821 156.785 96.0961 158.113C117.54 161.545 139.004 165.849 159.702 170.01C171.498 172.381 181.852 178.474 191.866 184.368C199.435 188.821 207.262 193.428 215.625 196.364C228.147 200.752 238.599 197.34 249.672 193.724C257.571 191.143 265.739 188.474 274.884 188.726L274.846 190.102C265.939 189.857 257.887 192.489 250.099 195.034C240.766 198.083 231.859 200.994 221.742 199.35Z" fill="#EFEFEF"/>
<path d="M216.035 209.171C213.586 208.775 211.15 208.258 208.728 207.598C200.743 205.419 193.009 202.291 185.529 199.267C176.217 195.503 166.589 191.608 156.473 189.56C144.725 187.181 133.417 182.945 122.479 178.85C112.11 174.968 101.39 170.954 90.3688 168.555C79.6456 166.236 69.1278 167.392 58.9458 168.52C50.2874 169.479 41.3347 170.472 32.1691 169.369L32.3342 168C41.3407 169.085 50.2141 168.102 58.7946 167.151C69.0851 166.01 79.7253 164.822 90.6609 167.21C101.781 169.628 112.548 173.66 122.961 177.559C133.849 181.636 145.106 185.852 156.747 188.209C166.988 190.284 176.676 194.202 186.045 197.99C193.489 201 201.185 204.111 209.091 206.269C222.477 209.925 236.486 209.08 250.032 208.267C259.457 207.699 269.202 207.114 278.734 208.026L278.604 209.397C269.178 208.496 259.487 209.078 250.114 209.642C238.888 210.316 227.347 211.009 216.035 209.171Z" fill="#EFEFEF"/>
<path d="M190.158 214.38C177.847 212.38 165.539 210.178 153.427 207.6C139.988 204.741 128.12 197.617 116.643 190.728C105.901 184.278 94.7919 177.612 82.497 174.539C70.9065 171.644 60.5137 175.639 49.4985 179.865C40.742 183.224 31.6888 186.698 21.9921 186.39L22.0359 185.013C31.4547 185.312 40.3769 181.89 49.0043 178.578C59.7346 174.461 70.8431 170.197 82.8312 173.203C95.3253 176.324 106.523 183.047 117.351 189.547C128.731 196.378 140.499 203.441 153.714 206.254C178.212 211.462 203.551 215.151 228.056 218.715C246.616 221.415 265.809 224.205 284.499 227.641L284.249 228.995C265.585 225.566 246.406 222.776 227.857 220.078C215.434 218.271 202.796 216.432 190.158 214.38Z" fill="#EFEFEF"/>
<path d="M153.058 226.427C152.22 226.291 151.387 226.135 150.553 225.956C136.04 222.846 124.044 213.883 112.441 205.215C102.132 197.511 91.4701 189.546 79.1517 185.821C65.9664 181.82 55.1392 187.692 43.6856 193.905C34.6114 198.825 25.2308 203.912 14.437 203.839L14.4455 202.461C24.8852 202.533 34.109 197.53 43.0291 192.694C54.2255 186.622 65.8058 180.343 79.5514 184.501C92.1007 188.298 102.861 196.337 113.267 204.111C124.75 212.691 136.624 221.562 150.843 224.61C159.309 226.425 168.203 225.876 176.794 225.343C183.001 224.959 189.421 224.56 195.668 225.053C214.691 226.546 233.702 232.118 252.088 237.5C263.556 240.858 275.415 244.331 287.049 246.733L286.77 248.083C275.082 245.668 263.195 242.188 251.701 238.822C233.383 233.459 214.443 227.909 195.56 226.425C189.409 225.941 183.039 226.336 176.878 226.719C169.031 227.206 160.942 227.707 153.058 226.427Z" fill="#EFEFEF"/>
<path d="M149.831 244.578C149.086 244.457 148.342 244.317 147.596 244.155C133.261 241.046 121.419 232.273 109.969 223.789C99.7369 216.208 89.1566 208.369 76.9049 204.704C63.6819 200.742 52.6381 206.437 40.9457 212.458C31.6788 217.231 22.0952 222.167 11.235 222L11.2571 220.622C21.772 220.784 31.198 215.93 40.3146 211.234C51.7338 205.351 63.5343 199.268 77.2993 203.383C89.7822 207.119 100.461 215.031 110.788 222.683C122.123 231.079 133.843 239.763 147.888 242.81C156.669 244.7 165.527 243.572 174.085 242.466C180.598 241.623 187.333 240.752 194.081 241.196C211.99 242.379 229.438 248.297 246.311 254.022C258.708 258.227 271.526 262.576 284.363 264.977L284.111 266.331C271.177 263.912 258.311 259.547 245.869 255.327C229.078 249.63 211.716 243.739 193.992 242.572C187.377 242.135 180.709 242.998 174.261 243.831C166.304 244.861 158.098 245.921 149.831 244.578Z" fill="#EFEFEF"/>
<path d="M219.076 289.145C219.773 281.071 218.704 272.584 217.669 264.378C216.197 252.706 214.675 240.638 218.117 229.293C220.128 222.662 223.814 217.016 227.378 211.556C231.351 205.474 235.458 199.182 237.157 191.577C242.4 168.091 247.326 142.781 251.798 116.354C253.499 106.297 254.47 97.7806 250.322 87.4134C249.451 85.2358 248.594 83.2446 247.782 81.3574C244.444 73.6074 241.808 67.4854 242.061 57.3545L243.437 57.39C243.192 67.2183 245.776 73.2173 249.046 80.8132C249.864 82.7108 250.726 84.7124 251.602 86.9017C255.875 97.5838 254.834 106.664 253.156 116.582C248.681 143.034 243.751 168.367 238.501 191.877C236.748 199.726 232.572 206.123 228.532 212.309C225.02 217.687 221.388 223.249 219.434 229.693C216.079 240.757 217.582 252.678 219.036 264.208C220.079 272.483 221.158 281.042 220.45 289.265L219.076 289.145Z" fill="#EFEFEF"/>
<path d="M200.776 283.932C201.456 275.741 200.1 267.387 198.787 259.31C197.078 248.793 195.311 237.915 198.015 227.238C199.964 219.548 204.787 214.258 209.451 209.142C214.22 203.912 219.15 198.504 220.942 190.509C224.894 172.871 227.538 154.48 230.096 136.695C231.299 128.321 232.544 119.661 233.905 111.227C235.384 102.064 236.174 94.3686 231.865 85.7318C230.605 83.2048 229.396 81.0461 228.227 78.9578C224.404 72.132 221.385 66.7409 221.583 56.3354L222.96 56.3629C222.768 66.3947 225.562 71.381 229.428 78.2848C230.606 80.3868 231.823 82.5605 233.099 85.1172C237.589 94.1215 236.785 102.035 235.265 111.447C233.905 119.87 232.662 128.524 231.458 136.892C228.899 154.702 226.251 173.12 222.286 190.809C220.414 199.162 215.358 204.707 210.469 210.07C205.71 215.291 201.214 220.222 199.35 227.578C196.716 237.976 198.461 248.711 200.148 259.09C201.473 267.25 202.843 275.685 202.147 284.046L200.776 283.932Z" fill="#EFEFEF"/>
<path d="M182.855 287.064C183.723 278.573 183.115 269.722 182.527 261.167C181.736 249.66 180.917 237.762 183.644 226.44C185.544 218.547 189.586 211.744 193.494 205.164C197.577 198.288 201.8 191.179 203.516 182.869C207.468 163.752 210.396 143.971 213.228 124.842C214.055 119.255 214.881 113.677 215.731 108.118C217.295 97.8885 217.706 89.5536 214.93 79.6203C214.604 78.4498 214.278 77.3039 213.956 76.1764C211.277 66.7589 208.962 58.6259 209.538 48.1332L210.913 48.2094C210.35 58.4711 212.635 66.5012 215.281 75.8001C215.603 76.9291 215.929 78.0764 216.258 79.25C219.091 89.3873 218.64 98.205 217.092 108.326C216.243 113.883 215.417 119.459 214.591 125.044C211.756 144.192 208.824 163.991 204.866 183.149C203.102 191.685 198.82 198.895 194.678 205.867C190.822 212.359 186.835 219.072 184.984 226.762C182.306 237.879 183.117 249.669 183.901 261.071C184.493 269.687 185.105 278.596 184.225 287.205L182.855 287.064Z" fill="#EFEFEF"/>
<path d="M165.096 293.702C166.561 283.736 167.186 273.494 167.79 263.592C168.555 251.053 169.346 238.089 171.848 225.512C173.578 216.816 176.347 208.311 179.024 200.085C181.91 191.219 184.894 182.052 186.567 172.662C189.155 158.139 191.486 143.307 193.741 128.965C194.927 121.417 196.114 113.869 197.341 106.332C199.319 94.1876 199.378 81.9034 199.435 70.0223C199.489 59.1886 199.543 47.9842 201.047 36.8873L202.412 37.0736C200.92 48.0811 200.865 59.2391 200.813 70.0294C200.755 81.9636 200.696 94.3022 198.701 106.553C197.474 114.087 196.288 121.633 195.102 129.179C192.846 143.528 190.513 158.366 187.923 172.904C186.234 182.387 183.234 191.601 180.334 200.512C177.67 208.699 174.913 217.165 173.2 225.78C170.715 238.266 169.927 251.183 169.165 263.676C168.559 273.608 167.932 283.877 166.459 293.902L165.096 293.702Z" fill="#EFEFEF"/>
<path d="M148.597 298.471L147.239 298.24C154.371 256.331 160.901 213.564 167.215 172.206C174.469 124.697 181.969 75.5705 190.424 27.4784L191.781 27.7179C183.33 75.7942 175.83 124.912 168.577 172.415C162.261 213.779 155.731 256.55 148.597 298.471Z" fill="#EFEFEF"/>
<path d="M130.42 295.74L129.062 295.508C142.519 215.646 155.605 134.322 168.259 55.6748L173.437 23.5035L174.797 23.7217L169.618 55.8943C156.964 134.544 143.878 215.87 130.42 295.74Z" fill="#EFEFEF"/>
<path d="M110.653 286.445C112.344 275.273 113.403 263.814 114.427 252.732C115.702 238.964 117.018 224.728 119.555 210.886C121.19 201.974 123.731 193.172 126.19 184.661C128.78 175.692 131.458 166.418 133.066 157.032C137.643 130.314 141.982 103.074 146.178 76.7315C149.113 58.3077 152.148 39.2554 155.237 20.5446L156.597 20.7681C153.507 39.4763 150.473 58.5259 147.538 76.9484C143.341 103.295 139.002 130.538 134.424 157.263C132.804 166.726 130.114 176.038 127.513 185.043C125.065 193.521 122.532 202.29 120.91 211.134C118.383 224.915 117.07 239.121 115.799 252.86C114.773 263.961 113.711 275.44 112.016 286.65L110.653 286.445Z" fill="#EFEFEF"/>
<path d="M92.1865 275.67C93.4909 265.08 93.6909 253.924 93.8839 243.137C94.1725 226.964 94.4717 210.238 98.4531 194.688C100.21 187.823 103.367 181.586 106.418 175.552C109.827 168.816 113.351 161.851 114.869 154.064C117.974 138.151 120.016 121.698 121.993 105.788C123.17 96.3077 124.386 86.5051 125.815 76.9304C127.52 65.4955 129.863 54.0156 132.13 42.9132C133.82 34.628 135.57 26.0623 137.039 17.583L138.396 17.8171C136.923 26.3174 135.172 34.894 133.479 43.1882C131.216 54.2737 128.878 65.7351 127.178 77.1327C125.752 86.6914 124.535 96.4859 123.36 105.957C121.38 121.891 119.334 138.367 116.222 154.327C114.666 162.303 111.099 169.355 107.647 176.174C104.629 182.141 101.507 188.31 99.7876 195.03C95.8465 210.425 95.5484 227.068 95.2604 243.162C95.0671 253.984 94.8669 265.175 93.5547 275.837L92.1865 275.67Z" fill="#EFEFEF"/>
<path d="M73.8191 267.747C75.4368 253.518 75.4506 239.699 75.4653 225.069L75.4695 221.695C75.4738 219.672 75.4504 217.593 75.426 215.478C75.3067 204.886 75.1701 192.882 78.5738 182.809C80.5443 176.979 83.9769 172.576 87.2958 168.319C91.3444 163.128 95.1679 158.223 96.6425 150.873C100.108 133.615 102.195 115.714 104.214 98.4031C105.455 87.7664 106.738 76.7684 108.326 66.0449C109.761 56.3515 111.949 46.7054 114.064 37.3758C115.749 29.951 117.491 22.2724 118.839 14.6241L120.196 14.8635C118.841 22.5435 117.096 30.2393 115.408 37.6812C113.298 46.9844 111.116 56.6042 109.688 66.2472C108.102 76.9492 106.822 87.9366 105.582 98.5627C103.56 115.902 101.47 133.83 97.9939 151.144C96.4539 158.813 92.3501 164.076 88.382 169.166C85.1335 173.333 81.7737 177.641 79.8786 183.25C76.5505 193.101 76.6841 204.98 76.8036 215.462C76.827 217.583 76.8508 219.668 76.8481 221.698L76.8428 225.07C76.8285 239.094 76.8139 253.597 75.1864 267.904L73.8191 267.747Z" fill="#EFEFEF"/>
<path d="M55.6814 266.633C56.8722 256.256 56.6966 244.996 56.5279 234.104C56.263 217.143 55.991 199.605 60.6961 184.037C62.6983 177.416 66.5922 172.271 70.358 167.293C74.7138 161.536 78.827 156.097 80.4221 148.459C83.7082 132.7 85.0385 116.255 86.3246 100.35C87.2019 89.5044 88.109 78.2902 89.6281 67.3947C91.1448 56.522 93.524 45.6749 95.8234 35.1855C97.509 27.502 99.2505 19.5576 100.64 11.6678L101.996 11.9073C100.603 19.8236 98.8573 27.7837 97.1696 35.4805C94.8744 45.9447 92.5009 56.7641 90.9927 67.585C89.4787 78.4404 88.5735 89.6346 87.6979 100.462C86.4078 116.408 85.0744 132.898 81.7692 148.74C80.1128 156.681 75.7118 162.498 71.4565 168.123C67.7636 173.005 63.9457 178.051 62.0144 184.437C57.3715 199.798 57.6422 217.227 57.9051 234.082C58.0749 245.018 58.2511 256.325 57.0487 266.789L55.6814 266.633Z" fill="#EFEFEF"/>
<path d="M37.7192 270.638C39.1172 260.421 39.587 249.701 40.0405 239.333C40.7169 223.901 41.4161 207.943 45.1687 193.021C47.3127 184.495 52.1223 177.437 56.773 170.612C61.7514 163.303 66.8995 155.747 68.6523 146.459C71.2931 132.475 71.0135 117.869 70.7443 103.745C70.5362 92.8441 70.3214 81.573 71.4447 70.6309C72.7992 57.4342 75.4956 44.1651 78.1018 31.3339C79.6082 23.9224 81.1649 16.2601 82.4406 8.71711L83.7989 8.94593C82.5196 16.5115 80.9596 24.1855 79.4528 31.6079C76.8518 44.4072 74.1623 57.642 72.8146 70.7716C71.6996 81.6292 71.9142 92.8594 72.1222 103.719C72.3923 117.913 72.6726 132.59 70.0063 146.714C68.1994 156.286 62.9688 163.963 57.9104 171.386C53.3277 178.113 48.5891 185.069 46.504 193.358C42.7858 208.144 42.0901 224.03 41.4167 239.393C40.9625 249.791 40.4915 260.543 39.084 270.827L37.7192 270.638Z" fill="#EFEFEF"/>
<path d="M21.1376 275.44L19.7779 275.219C21.2672 266.11 22.2309 256.544 23.1623 247.295C24.7574 231.459 26.4071 215.086 30.7489 199.917C33.4034 190.64 38.6292 182.463 43.6819 174.555C49.5458 165.378 55.6092 155.887 57.5141 144.764C59.6753 132.147 57.6328 118.998 55.6564 106.281C54.2198 97.0282 52.7336 87.4598 52.8744 78.1612C53.1223 61.8356 56.5744 44.8953 59.9141 28.5132C61.4458 20.9968 63.0301 13.2231 64.2402 5.76487L65.5998 5.98572C64.3852 13.4719 62.7987 21.2588 61.2636 28.7883C57.9365 45.1097 54.4975 61.9854 54.2527 78.1834C54.1132 87.365 55.59 96.8733 57.0183 106.068C59.011 118.894 61.0703 132.158 58.872 144.995C56.9209 156.394 50.7797 166.003 44.8424 175.297C39.8427 183.122 34.6733 191.211 32.0721 200.296C27.7645 215.346 26.1218 231.659 24.5326 247.433C23.5991 256.704 22.6333 266.291 21.1376 275.44Z" fill="#EFEFEF"/>
<path d="M3.0572 276.019L1.69757 275.799C2.91872 268.281 3.9536 260.425 4.95593 252.828C7.17581 235.982 9.47139 218.56 14.0317 202.433C16.8555 192.448 22.4265 183.497 27.8146 174.841C34.0932 164.755 40.5842 154.327 42.6003 142.343C44.6165 130.359 41.6789 118.366 38.8393 106.768C36.6699 97.9077 34.4268 88.7451 34.3607 79.5709C34.2373 62.1752 37.9982 43.7451 41.6361 25.9219C43.2733 17.8979 44.8206 10.3186 46.0405 2.8088L47.4001 3.02965C46.1759 10.566 44.6265 18.1586 42.9855 26.197C39.3629 43.9518 35.6163 62.3106 35.7389 79.5604C35.8023 88.5747 38.0258 97.6564 40.1777 106.44C43.051 118.175 46.0216 130.308 43.9587 142.572C41.8977 154.824 35.3331 165.37 28.9842 175.569C23.6461 184.144 18.127 193.01 15.358 202.809C10.8244 218.839 8.53415 236.21 6.3207 253.009C5.31797 260.616 4.2818 268.48 3.0572 276.019Z" fill="#EFEFEF"/>
</g>
<defs>
<clipPath id="clip0_2_7340">
<rect width="281" height="281" fill="white" transform="translate(45.0536) rotate(9.22622)"/>
</clipPath>
</defs>
</svg>
