<svg width="235" height="205" viewBox="0 0 235 205" fill="none" xmlns="http://www.w3.org/2000/svg">
<g clip-path="url(#clip0_2_7238)">
<path d="M102.107 77.9736C100.604 77.9736 99.1797 77.3938 98.089 76.3339C96.9258 75.2034 96.2754 73.6706 96.2573 72.0165C96.2246 68.7389 98.8409 66.1227 102.214 66.0593C102.251 66.0593 102.285 66.0593 102.321 66.0593C103.825 66.0593 105.249 66.6391 106.34 67.699C107.503 68.8295 108.153 70.3623 108.172 72.0165C108.202 75.2922 105.586 77.9084 102.214 77.9736C102.18 77.9736 102.144 77.9736 102.107 77.9736ZM102.321 66.1372C102.287 66.1372 102.251 66.1372 102.214 66.139C98.8843 66.2006 96.3026 68.7824 96.337 72.0165C96.3533 73.6471 96.9947 75.1617 98.1433 76.2778C99.2213 77.3232 100.624 77.8957 102.107 77.8957C102.142 77.8957 102.178 77.8957 102.214 77.8939C105.543 77.8305 108.124 75.2487 108.092 72.0165C108.076 70.3859 107.434 68.8712 106.285 67.7552C105.207 66.7098 103.805 66.1372 102.321 66.1372Z" fill="#EFEFEF"/>
<path d="M102.131 78.72C100.47 78.72 98.8952 78.0787 97.6867 76.9065C96.3895 75.6509 95.6629 73.9424 95.643 72.0998C95.6014 68.4654 98.5093 65.5593 102.26 65.4814C102.305 65.4796 102.348 65.4796 102.392 65.4796C104.053 65.4796 105.626 66.1209 106.836 67.2931C108.133 68.5505 108.86 70.2572 108.88 72.0998C108.92 75.7342 106.012 78.6403 102.261 78.7182C102.218 78.72 102.174 78.72 102.131 78.72ZM102.392 65.5665C102.348 65.5665 102.305 65.5683 102.261 65.5683C98.56 65.6444 95.6901 68.5143 95.73 72.0998C95.7499 73.9188 96.4674 75.6038 97.7465 76.8449C98.9405 78.0008 100.493 78.6331 102.131 78.6331C102.174 78.6331 102.218 78.6313 102.261 78.6313C105.961 78.5552 108.831 75.6853 108.793 72.0998C108.773 70.2808 108.056 68.5958 106.775 67.3547C105.582 66.1988 104.03 65.5665 102.392 65.5665Z" fill="#EFEFEF"/>
<path d="M102.162 79.5589C100.326 79.5589 98.5871 78.8523 97.2482 77.5587C95.8006 76.1618 94.9908 74.2595 94.9654 72.2031C94.9165 68.1737 98.1451 64.9433 102.318 64.8491C102.372 64.8491 102.424 64.8473 102.477 64.8473C104.312 64.8473 106.052 65.5539 107.391 66.8475C108.838 68.2443 109.648 70.1467 109.673 72.2031C109.721 76.2343 106.492 79.4629 102.321 79.5571C102.267 79.5571 102.214 79.5589 102.162 79.5589ZM102.477 64.9451C102.424 64.9451 102.374 64.9451 102.321 64.9469C98.2012 65.0375 95.0143 68.2262 95.0632 72.2031C95.0886 74.2323 95.8876 76.1093 97.3153 77.4881C98.6361 78.7635 100.352 79.4611 102.162 79.4611C102.214 79.4611 102.265 79.4611 102.318 79.4593C106.436 79.3687 109.623 76.1799 109.576 72.2031C109.55 70.1739 108.751 68.2969 107.324 66.9181C106.003 65.6426 104.287 64.9451 102.477 64.9451Z" fill="#EFEFEF"/>
<path d="M102.2 80.5029C100.172 80.5029 98.2502 79.7238 96.7681 78.2943C95.1556 76.7416 94.2498 74.6236 94.219 72.3299C94.161 67.8603 97.7501 64.2711 102.388 64.1588C102.453 64.157 102.519 64.157 102.584 64.157C104.608 64.157 106.53 64.936 108.012 66.3619C109.625 67.9146 110.53 70.0344 110.561 72.3299C110.619 76.7978 107.03 80.3869 102.392 80.5011C102.327 80.5029 102.263 80.5029 102.2 80.5029ZM102.584 64.2639C102.519 64.2639 102.455 64.2657 102.392 64.2675C97.8117 64.378 94.2697 67.9182 94.3277 72.3299C94.3585 74.5928 95.2517 76.6836 96.8424 78.2164C98.3045 79.626 100.201 80.396 102.2 80.396C102.263 80.396 102.325 80.3942 102.388 80.3923C106.968 80.28 110.51 76.738 110.453 72.3299C110.422 70.0652 109.529 67.9726 107.936 66.4398C106.476 65.0339 104.581 64.2639 102.584 64.2639Z" fill="#EFEFEF"/>
<path d="M102.247 81.5664C100.009 81.5664 97.886 80.7076 96.2446 79.1313C94.4473 77.4047 93.4345 75.044 93.3983 72.4839C93.3276 67.5305 97.3153 63.5428 102.475 63.4051C104.805 63.3471 107.012 64.2095 108.71 65.8383C110.509 67.5649 111.52 69.9239 111.556 72.4839C111.627 77.4373 107.639 81.4251 102.479 81.5628C102.401 81.5646 102.323 81.5664 102.247 81.5664ZM102.705 63.521C102.629 63.521 102.555 63.5229 102.479 63.5247C97.3842 63.6605 93.449 67.5957 93.5178 72.4839C93.5541 75.0114 94.5524 77.3413 96.3279 79.0444C97.9476 80.5989 100.04 81.4468 102.247 81.4468C102.323 81.4468 102.399 81.445 102.475 81.4432C107.57 81.3073 111.505 77.3721 111.436 72.4839C111.4 69.9583 110.402 67.6283 108.628 65.9253C107.008 64.3708 104.912 63.521 102.705 63.521Z" fill="#EFEFEF"/>
<path d="M102.309 82.7658C99.8392 82.7658 97.4929 81.8182 95.6757 80.0789C93.6701 78.1602 92.5413 75.5313 92.496 72.6759C92.4127 67.1844 96.8425 62.7528 102.582 62.5861C102.675 62.5843 102.767 62.5825 102.859 62.5825C105.329 62.5825 107.675 63.5301 109.492 65.2694C111.498 67.1881 112.627 69.817 112.672 72.6723C112.755 78.1638 108.326 82.5954 102.586 82.7621C102.493 82.7639 102.401 82.7658 102.309 82.7658ZM102.859 62.7166C102.769 62.7166 102.676 62.7166 102.586 62.7202C96.9204 62.8833 92.5468 67.2551 92.6301 72.6723C92.6736 75.4933 93.7878 78.0895 95.7681 79.9829C97.56 81.6968 99.8736 82.6317 102.309 82.6317C102.399 82.6317 102.492 82.6317 102.582 82.6281C108.248 82.465 112.621 78.0932 112.538 72.6759C112.494 69.855 111.38 67.2587 109.4 65.3654C107.608 63.6515 105.294 62.7166 102.859 62.7166Z" fill="#EFEFEF"/>
<path d="M102.383 84.1191C99.6598 84.1191 97.069 83.0738 95.0579 81.1569C92.8203 79.0244 91.5593 76.0948 91.5068 72.9079C91.4053 66.8221 96.3261 61.8977 102.713 61.6984C102.823 61.6947 102.936 61.6929 103.046 61.6929C105.771 61.6929 108.36 62.7383 110.371 64.6552C112.609 66.7877 113.87 69.7173 113.922 72.9042C114.024 78.99 109.103 83.9144 102.716 84.1137C102.606 84.1173 102.493 84.1191 102.383 84.1191ZM103.046 61.8415C102.936 61.8415 102.827 61.8433 102.716 61.8469C96.4131 62.0426 91.5539 66.9 91.6554 72.9042C91.7079 76.0513 92.9526 78.9447 95.1612 81.05C97.1432 82.9415 99.6978 83.9706 102.383 83.9706C102.493 83.9706 102.602 83.9688 102.713 83.9651C109.016 83.7695 113.875 78.9121 113.774 72.9079C113.721 69.759 112.476 66.8674 110.27 64.7621C108.286 62.8706 105.731 61.8415 103.046 61.8415Z" fill="#EFEFEF"/>
<path d="M102.477 85.6501C99.4732 85.6501 96.616 84.5015 94.3911 82.3889C91.8945 80.0173 90.485 76.7525 90.4215 73.1923C90.3001 66.4489 95.7681 60.9773 102.87 60.7381C103.003 60.7327 103.135 60.7309 103.267 60.7309C106.273 60.7309 109.132 61.8814 111.357 63.9957C113.853 66.3655 115.263 69.6304 115.326 73.1887C115.448 79.9358 109.98 85.4055 102.878 85.6429C102.743 85.6483 102.611 85.6501 102.477 85.6501ZM103.267 60.8958C103.137 60.8958 103.006 60.8976 102.878 60.9012C95.8641 61.1385 90.465 66.5358 90.5846 73.1887C90.648 76.7036 92.0413 79.9285 94.5053 82.2693C96.6976 84.3529 99.5167 85.4853 102.479 85.4853C102.609 85.4853 102.74 85.4834 102.87 85.4798C109.884 85.2443 115.283 79.847 115.163 73.1923C115.1 69.6775 113.708 66.4543 111.244 64.1135C109.05 62.0299 106.229 60.8958 103.267 60.8958Z" fill="#EFEFEF"/>
<path d="M102.602 87.384C99.2883 87.384 96.1322 86.1176 93.6718 83.7876C90.8853 81.1533 89.309 77.5134 89.2329 73.5402C89.0898 66.0666 95.1665 59.9881 103.066 59.7018C103.224 59.6946 103.379 59.6927 103.537 59.6927C106.851 59.6927 110.007 60.9592 112.469 63.2873C115.254 65.9235 116.83 69.5633 116.906 73.5366C117.049 81.0102 110.972 87.0887 103.073 87.3749C102.916 87.3822 102.76 87.384 102.602 87.384ZM103.537 59.8757C103.381 59.8757 103.227 59.8776 103.073 59.883C95.2734 60.1674 89.2746 66.1644 89.4141 73.5366C89.4902 77.4609 91.0465 81.0536 93.7968 83.6554C96.2246 85.9527 99.3354 87.201 102.604 87.201C102.758 87.201 102.912 87.1992 103.066 87.1938C110.866 86.9093 116.864 80.9123 116.725 73.5402C116.649 69.6159 115.092 66.0213 112.344 63.4214C109.916 61.1241 106.804 59.8757 103.537 59.8757Z" fill="#EFEFEF"/>
<path d="M102.756 89.3479C99.0999 89.3479 95.6158 87.9529 92.8927 85.3856C89.7855 82.4577 88.0245 78.4012 87.9339 73.9641C87.8487 69.8079 89.4485 65.947 92.438 63.088C95.3078 60.3468 99.1669 58.747 103.305 58.5875C103.49 58.5803 103.676 58.5767 103.861 58.5767C107.516 58.5767 111 59.9717 113.723 62.539C116.83 65.4669 118.591 69.5234 118.682 73.9605C118.767 78.1167 117.167 81.9776 114.178 84.8366C111.308 87.5778 107.449 89.1776 103.312 89.3371C103.127 89.3443 102.941 89.3479 102.756 89.3479ZM103.861 58.7796C103.678 58.7796 103.495 58.7832 103.312 58.7905C94.6357 59.1256 87.9701 65.7894 88.1368 73.9605C88.2274 78.3414 89.9649 82.3472 93.0322 85.2388C95.7173 87.7699 99.1524 89.145 102.756 89.145C102.939 89.145 103.122 89.1414 103.305 89.1342C111.982 88.799 118.645 82.1352 118.479 73.9641C118.388 69.5832 116.651 65.5774 113.583 62.6858C110.898 60.1547 107.463 58.7796 103.861 58.7796Z" fill="#EFEFEF"/>
<path d="M102.948 91.5746C98.9169 91.5746 95.0723 90.0382 92.0593 87.2082C88.5934 83.9543 86.6239 79.4339 86.5171 74.4805C86.4156 69.8605 88.193 65.5702 91.5212 62.3977C94.7081 59.363 98.9948 57.5856 103.593 57.3972C103.812 57.3882 104.032 57.3827 104.249 57.3827C108.282 57.3827 112.127 58.9209 115.14 61.7509C118.606 65.0049 120.573 69.5253 120.68 74.4769C120.781 79.0969 119.004 83.389 115.676 86.5596C112.489 89.5962 108.202 91.3717 103.604 91.5601C103.385 91.5692 103.166 91.5746 102.948 91.5746ZM104.249 57.6092C104.033 57.6092 103.82 57.6128 103.604 57.6219C95.1429 57.9697 86.5225 64.3689 86.7417 74.4769C86.8486 79.3669 88.7908 83.8311 92.2133 87.0434C95.344 89.9839 99.3952 91.5058 103.593 91.3355C112.054 90.9894 120.675 84.5902 120.455 74.4805C120.35 69.5905 118.408 65.1281 114.986 61.914C112.014 59.1238 108.222 57.6092 104.249 57.6092Z" fill="#EFEFEF"/>
<path d="M104.037 94.0876C104.008 94.0876 103.981 94.0876 103.952 94.0876C99.0293 94.0676 94.1302 91.946 90.5067 88.2717C86.9411 84.6518 84.9228 79.8542 84.9717 75.1055C85.0732 65.4107 94.2969 56.1887 103.952 56.1271C103.985 56.1271 104.017 56.1271 104.05 56.1271C108.664 56.1271 113.38 58.1527 117.008 61.6947C120.787 65.3871 122.89 70.1485 122.932 75.1055C122.976 80.1604 121.032 84.92 117.459 88.5073C113.873 92.1073 109.108 94.0876 104.037 94.0876ZM104.052 56.3772C104.019 56.3772 103.986 56.3772 103.952 56.3772C94.4238 56.4369 85.3214 65.5411 85.2217 75.1092C85.1746 79.7908 87.1658 84.5232 90.6861 88.096C94.2625 91.7232 99.0981 93.8176 103.952 93.8375C103.981 93.8375 104.008 93.8375 104.037 93.8375C109.041 93.8375 113.743 91.8844 117.281 88.3297C120.805 84.7913 122.724 80.0952 122.682 75.1092C122.599 65.2784 113.732 56.3772 104.052 56.3772Z" fill="#EFEFEF"/>
<path d="M104.475 96.9611C104.445 96.9611 104.412 96.9611 104.381 96.9611C98.9151 96.9357 93.4689 94.575 89.4395 90.4821C85.4753 86.4564 83.2341 81.1297 83.2921 75.8683C83.4099 65.0991 93.6573 54.8517 104.379 54.781C104.417 54.781 104.456 54.781 104.494 54.781C109.603 54.781 114.837 57.0331 118.872 60.9719C123.019 65.0176 125.423 70.4475 125.47 75.8683C125.519 81.4812 123.361 86.7662 119.392 90.7539C115.404 94.7598 110.11 96.9611 104.475 96.9611ZM104.497 55.06C104.459 55.06 104.421 55.06 104.383 55.06C93.8004 55.1289 83.6871 65.244 83.5711 75.8719C83.515 81.0591 85.7253 86.3132 89.637 90.2865C93.6156 94.3267 98.9912 96.6585 104.381 96.6821C104.412 96.6821 104.445 96.6821 104.475 96.6821C110.036 96.6821 115.259 94.5097 119.194 90.5582C123.111 86.623 125.24 81.4087 125.191 75.8719C125.097 64.9469 115.248 55.06 104.497 55.06Z" fill="#EFEFEF"/>
<path d="M105.014 100.23C104.975 100.23 104.937 100.228 104.901 100.228C98.8317 100.201 92.7786 97.5716 88.2944 93.015C83.89 88.5399 81.4024 82.6281 81.4695 76.7941C81.6035 64.8327 92.9924 53.4457 104.899 53.3642C104.945 53.3624 104.99 53.3624 105.035 53.3624C117.134 53.3624 128.222 64.4939 128.333 76.7941C128.391 83.0266 125.992 88.8986 121.579 93.3302C117.147 97.7818 111.268 100.23 105.014 100.23ZM105.035 53.6722C104.99 53.6722 104.947 53.6722 104.903 53.6722C93.15 53.7537 81.9115 64.9922 81.7775 76.7977C81.7122 82.5501 84.169 88.3823 88.5155 92.7994C92.9416 97.2962 98.9151 99.8907 104.901 99.9197C104.939 99.9197 104.975 99.9197 105.014 99.9197C111.186 99.9197 116.986 97.5046 121.359 93.1128C125.713 88.7392 128.079 82.9451 128.025 76.7977C127.914 64.6588 116.973 53.6722 105.035 53.6722Z" fill="#EFEFEF"/>
<path d="M104.691 103.969C98.8535 103.969 93.0196 101.423 88.1749 96.7455C82.7721 91.5275 79.4457 84.3112 79.4928 77.912C79.5399 71.6885 82.995 64.5392 88.51 59.2525C93.4308 54.5346 99.3843 51.8658 104.939 51.8658C105.139 51.8658 105.338 51.8695 105.535 51.8767C111.502 52.0851 118.091 55.1252 123.162 60.0062C128.476 65.1226 131.54 71.6505 131.567 77.9138C131.623 91.1942 119.459 103.362 105.537 103.951C105.256 103.962 104.974 103.969 104.691 103.969ZM104.939 52.2101C99.4713 52.2101 93.6048 54.8444 88.7474 59.5007C83.2975 64.7259 79.8823 71.7809 79.837 77.9156C79.7899 84.2224 83.0765 91.3427 88.4122 96.4972C93.4236 101.335 99.5003 103.859 105.523 103.607C119.269 103.025 131.279 91.0202 131.223 77.9138C131.163 64.1769 117.116 52.6268 105.524 52.221C105.329 52.2137 105.135 52.2101 104.939 52.2101Z" fill="#EFEFEF"/>
<path d="M105.358 108.21C98.8734 108.21 92.3927 105.382 87.0062 100.181C81.002 94.3829 77.3041 86.3658 77.3585 79.26C77.411 72.348 81.252 64.4034 87.3813 58.5278C92.851 53.2863 99.464 50.3204 105.633 50.3204C105.854 50.3204 106.073 50.324 106.294 50.3331C119.339 50.786 135.149 63.791 135.216 79.2618C135.281 94.0187 121.767 107.536 106.294 108.19C105.983 108.205 105.669 108.21 105.358 108.21ZM105.633 50.7027C99.5619 50.7027 93.0449 53.6305 87.6458 58.8032C81.5872 64.6099 77.7915 72.4495 77.739 79.2636C77.6882 86.2679 81.339 94.1782 87.2708 99.907C92.5847 105.038 98.973 107.828 105.358 107.828C105.664 107.828 105.972 107.823 106.28 107.81C121.555 107.163 134.899 93.8231 134.835 79.2618C134.768 63.9957 119.16 51.1611 106.28 50.7136C106.066 50.7063 105.849 50.7027 105.633 50.7027Z" fill="#EFEFEF"/>
<path d="M107.773 113.032C107.579 113.032 107.387 113.028 107.193 113.024C90.2928 112.649 74.9724 97.3288 75.0539 80.8779C75.0938 73.0256 78.826 64.9197 85.2977 58.6419C91.6063 52.5217 99.5872 48.9108 107.193 48.7369C114.775 48.5684 122.731 51.9655 129.005 58.0802C135.551 64.4559 139.318 72.7665 139.341 80.8797C139.365 89.1251 135.703 97.4593 129.297 103.746C123.26 109.667 115.446 113.032 107.773 113.032ZM107.751 49.1554C107.568 49.1554 107.385 49.1572 107.204 49.1608C90.9758 49.5341 75.5576 64.9487 75.4779 80.8815C75.3982 97.1114 90.5193 112.231 107.204 112.6C107.392 112.604 107.583 112.606 107.773 112.606C115.335 112.606 123.041 109.287 128.998 103.444C135.326 97.2364 138.941 89.0128 138.917 80.8797C138.894 72.8807 135.172 64.6806 128.71 58.3828C122.669 52.4981 115.062 49.1554 107.751 49.1554Z" fill="#EFEFEF"/>
<path d="M108.925 118.539C108.711 118.539 108.498 118.538 108.282 118.532C89.5029 118.114 72.4812 101.09 72.5718 82.8147C72.6587 64.8762 90.0138 47.5194 108.282 47.1027C108.489 47.0972 108.695 47.0954 108.9 47.0954C117.16 47.0954 125.737 50.8549 132.529 57.4733C139.792 64.5537 143.974 73.7902 144.001 82.8165C144.028 91.9732 139.961 101.231 132.839 108.219C126.128 114.802 117.448 118.539 108.925 118.539ZM108.902 47.5665C108.699 47.5665 108.496 47.5701 108.293 47.5737C90.2602 47.985 73.1298 65.1136 73.0428 82.8183C72.9541 100.851 89.7565 117.648 108.293 118.061C108.503 118.065 108.715 118.068 108.927 118.068C117.326 118.068 125.885 114.38 132.507 107.882C139.541 100.983 143.557 91.8482 143.53 82.8165C143.503 73.917 139.374 64.8038 132.199 57.8121C125.496 51.2788 117.036 47.5665 108.902 47.5665Z" fill="#EFEFEF"/>
<path d="M109.596 124.808H109.583C99.5329 124.803 89.4014 120.415 81.7883 112.765C74.1916 105.136 69.8596 95.0587 69.8994 85.1211C69.9393 75.4353 74.476 65.4161 82.3428 57.6291C90.1443 49.9109 100.073 45.4666 109.583 45.4395C109.612 45.4395 109.643 45.4395 109.673 45.4395C119.414 45.4395 129.424 49.8475 137.153 57.5403C144.835 65.1879 149.25 75.2414 149.268 85.1229C149.284 95.5171 145.125 105.417 137.553 112.999C130.058 120.503 119.868 124.808 109.596 124.808ZM109.673 45.9649C109.643 45.9649 109.614 45.9649 109.583 45.9649C89.9015 46.021 70.5046 65.418 70.4249 85.1247C70.3832 94.9228 74.6608 104.864 82.1598 112.396C89.675 119.947 99.6706 124.279 109.583 124.283H109.596C119.731 124.283 129.784 120.036 137.182 112.629C144.655 105.147 148.761 95.3776 148.743 85.1229C148.726 75.3791 144.367 65.4614 136.783 57.9117C129.152 50.315 119.276 45.9649 109.673 45.9649Z" fill="#EFEFEF"/>
<path d="M111.123 131.948C99.9315 131.947 88.6731 127.091 80.2374 118.628C71.809 110.173 66.9933 98.9558 67.0259 87.855C67.0948 65.2368 88.5227 43.8089 111.119 43.7617C111.145 43.7617 111.172 43.7617 111.199 43.7617C122.111 43.7617 133.268 48.6481 141.823 57.1744C150.321 65.6462 155.202 76.8286 155.213 87.855C155.223 99.4015 150.592 110.403 142.171 118.831C133.843 127.167 122.526 131.948 111.123 131.948ZM111.199 44.3451C111.172 44.3451 111.146 44.3451 111.119 44.3451C88.8216 44.3904 67.6763 65.5357 67.6093 87.855C67.5767 98.8036 72.329 109.87 80.6487 118.217C88.9775 126.571 100.084 131.363 111.119 131.365C122.369 131.365 133.54 126.647 141.76 118.418C150.071 110.1 154.642 99.2457 154.629 87.855C154.618 76.9826 149.801 65.9506 141.412 57.5874C132.966 49.1681 121.957 44.3451 111.199 44.3451Z" fill="#EFEFEF"/>
<path d="M111.973 140.071C100.298 140.071 88.8108 135.103 79.5273 126.015C69.7364 116.43 63.9061 103.366 63.9315 91.0673C63.9568 78.9918 69.8614 66.0195 79.7284 56.3699C89.2475 47.0538 101.345 41.8521 112.933 42.075C124.824 42.3105 137.109 47.793 146.637 57.1146C156.349 66.6119 161.918 78.9864 161.918 91.0674C161.918 116.554 139.028 139.447 112.933 140.058C112.612 140.067 112.292 140.071 111.973 140.071ZM112.194 42.7145C101.006 42.7145 89.3797 47.831 80.1795 56.8319C70.4358 66.3637 64.6036 79.1621 64.5801 91.0674C64.5547 103.197 70.3108 116.088 79.9802 125.553C89.3906 134.766 101.111 139.71 112.918 139.413C138.676 138.808 161.269 116.217 161.269 91.0674C161.269 66.7116 137.772 43.2146 112.918 42.72C112.677 42.7164 112.435 42.7145 112.194 42.7145Z" fill="#EFEFEF"/>
<path d="M113.976 149.262C100.942 149.262 88.1585 143.756 77.8676 133.682C66.8683 122.917 60.5742 108.75 60.5977 94.8141C60.6195 81.0119 66.9589 66.9054 77.9926 56.1108C88.2509 46.0754 101.39 40.3701 114.17 40.3701C114.46 40.3701 114.75 40.3719 115.04 40.3791C143.516 40.9571 169.457 66.9018 169.468 94.8141C169.477 123.143 144.045 148.58 115.042 149.249C114.687 149.258 114.33 149.262 113.976 149.262ZM114.17 41.0894C101.575 41.0894 88.6205 46.7186 78.4945 56.6254C67.5984 67.2841 61.3369 81.204 61.3152 94.8141C61.2934 108.558 67.5097 122.538 78.3695 133.169C88.5245 143.109 101.131 148.542 113.976 148.542C114.326 148.542 114.674 148.539 115.024 148.532C143.653 147.87 168.759 122.77 168.75 94.8141C168.739 67.2714 143.132 41.6673 115.025 41.0966C114.741 41.0912 114.455 41.0894 114.17 41.0894Z" fill="#EFEFEF"/>
<path d="M116.247 159.638C101.629 159.64 87.4049 153.576 76.065 142.482C63.9188 130.602 56.9634 114.805 56.9815 99.1406C56.9978 83.5032 63.9641 67.7352 76.0903 55.8771C87.4828 44.7383 101.74 38.6453 116.352 38.6453C116.725 38.6453 117.098 38.6489 117.473 38.658C149.674 39.3428 177.934 67.6066 177.947 99.1406C177.963 130.613 149.705 158.877 117.473 159.623C117.066 159.634 116.654 159.638 116.247 159.638ZM116.352 39.4443C101.95 39.4443 87.8905 45.4558 76.6484 56.4478C64.6743 68.1574 57.7968 83.717 57.7787 99.1406C57.7624 114.592 64.6308 130.182 76.623 141.911C87.8125 152.856 101.841 158.839 116.247 158.839C116.649 158.839 117.051 158.835 117.455 158.826C149.27 158.087 177.164 130.198 177.15 99.1406C177.135 68.0233 149.241 40.1328 117.455 39.4552C117.087 39.4479 116.72 39.4443 116.352 39.4443Z" fill="#EFEFEF"/>
<path d="M120.888 171.278C120.669 171.278 120.452 171.277 120.231 171.275C84.4154 170.864 53.0136 139.458 53.0317 104.07C53.0499 68.0396 83.823 37.2647 120.231 36.8661C137.495 36.6958 154.106 43.5896 166.995 56.3319C179.98 69.1684 187.431 86.5687 187.441 104.07C187.45 121.288 179.931 138.605 166.812 151.581C154.131 164.122 137.428 171.278 120.888 171.278ZM120.919 37.7503C120.695 37.7503 120.468 37.7503 120.242 37.7539C84.3085 38.147 53.9376 68.5161 53.9195 104.07C53.9014 138.993 84.8937 169.981 120.242 170.387C120.457 170.391 120.673 170.391 120.888 170.391C137.196 170.391 153.673 163.328 166.188 150.95C179.139 138.141 186.562 121.054 186.553 104.07C186.544 86.8042 179.188 69.634 166.371 56.9624C153.823 44.5571 137.705 37.7503 120.919 37.7503Z" fill="#EFEFEF"/>
<path d="M123.356 184.264H123.341C104.205 184.26 85.1147 176.165 70.9665 162.053C56.5792 147.702 48.6617 129.071 48.669 109.593C48.6871 68.4273 82.1851 34.9311 123.341 34.9221H123.361C163.815 34.9221 197.998 69.1104 198.012 109.593C198.019 128.511 189.821 147.551 175.521 161.83C161.242 176.087 142.227 184.264 123.356 184.264ZM123.361 35.9077H123.341C82.7286 35.9167 49.6727 68.9727 49.6546 109.593C49.6473 128.809 57.4633 147.191 71.6641 161.355C85.6275 175.284 104.465 183.274 123.341 183.278H123.352C141.97 183.278 160.728 175.206 174.823 161.132C188.941 147.037 197.034 128.252 197.027 109.593C197.012 69.6485 163.279 35.9077 123.361 35.9077Z" fill="#EFEFEF"/>
<path d="M126.733 198.604C105.876 198.604 84.8086 189.576 68.9265 173.831C52.9285 157.971 43.7591 136.76 43.7717 115.637C43.7826 93.3429 52.3976 72.4676 68.0279 56.8591C83.64 41.2687 104.49 32.6773 126.739 32.6682C126.749 32.6682 126.76 32.6682 126.771 32.6682C148.511 32.6682 169.225 41.4282 185.105 57.3392C200.969 73.2322 209.705 93.9354 209.707 115.637C209.709 136.172 200.415 157.199 184.21 173.326C168.069 189.391 147.121 198.604 126.739 198.604H126.733ZM126.771 33.7625C126.759 33.7625 126.751 33.7625 126.739 33.7625C81.6198 33.7825 44.8914 70.5109 44.8661 115.637C44.8552 136.471 53.905 157.398 69.6965 173.054C85.3738 188.595 106.164 197.509 126.733 197.509H126.739C168.824 197.508 208.615 157.719 208.613 115.637C208.611 94.2289 199.987 73.7993 184.33 58.1129C168.658 42.4102 148.215 33.7625 126.771 33.7625Z" fill="#EFEFEF"/>
<path d="M130.295 214.223C107.324 214.223 83.8882 203.956 65.9842 186.046C48.2759 168.331 38.1299 144.999 38.1498 122.036C38.1734 97.1585 47.7414 73.9315 65.0946 56.6326C82.4007 39.3809 105.572 29.869 130.337 29.8491C130.36 29.8491 130.384 29.8491 130.407 29.8491C154.337 29.8491 177.262 39.5947 194.97 57.2958C212.492 74.8102 222.535 98.4069 222.526 122.036C222.506 168.537 176.842 214.2 130.337 214.223C130.324 214.223 130.308 214.223 130.295 214.223ZM130.407 31.0666C130.382 31.0666 130.362 31.0666 130.337 31.0666C79.3732 31.1065 39.4144 71.0653 39.3673 122.036C39.3474 144.68 49.3629 167.697 66.8466 185.186C84.5205 202.867 107.646 213.006 130.295 213.006C130.31 213.006 130.322 213.006 130.337 213.006C176.227 212.982 221.288 167.923 221.308 122.036C221.317 98.7275 211.405 75.4444 194.11 58.1564C176.633 40.6854 154.01 31.0666 130.407 31.0666Z" fill="#EFEFEF"/>
<path d="M132.908 230.919C108.371 230.919 83.0784 219.807 63.3535 200.323C43.1069 180.321 31.5079 154.137 31.5314 128.482C31.5568 100.487 42.3387 74.4207 61.8914 55.0872C80.8571 36.3353 106.028 26.0462 132.877 26.0462C133.239 26.0462 133.603 26.048 133.968 26.0516C160.023 26.3216 186.098 37.4694 205.511 56.6327C225.426 76.2941 236.393 101.811 236.391 128.482C236.389 153.047 224.459 178.781 203.66 199.088C183.264 218.999 157.863 230.598 133.969 230.911C133.616 230.917 133.261 230.919 132.908 230.919ZM132.877 27.3978C106.385 27.3978 81.5529 37.5474 62.8426 56.0493C43.5471 75.1273 32.9084 100.851 32.883 128.482C32.8613 153.779 44.3135 179.613 64.3047 199.359C84.0567 218.87 109.405 229.819 133.951 229.56C184.02 228.904 235.036 177.891 235.04 128.482C235.043 74.2613 188.75 27.9739 133.953 27.4032C133.596 27.3996 133.234 27.3978 132.877 27.3978Z" fill="#EFEFEF"/>
<path d="M136.107 248.261C108.923 248.261 80.8553 235.905 58.902 214.229C36.3761 191.985 23.4726 162.904 23.4998 134.441C23.5306 103.025 35.4213 73.9823 56.9869 52.6576C77.9057 31.9725 105.954 20.6235 136.08 20.6235C136.493 20.6235 136.905 20.6253 137.319 20.6289C199.02 21.2685 251.135 73.388 251.123 134.441C251.112 190.049 193.68 247.486 137.323 248.254C136.919 248.259 136.511 248.261 136.107 248.261ZM136.08 22.1255C106.351 22.1255 78.6812 33.3205 58.0432 53.7266C36.7657 74.7668 25.0326 103.431 25.0036 134.441C24.9764 162.506 37.7168 191.197 59.9583 213.158C81.9515 234.876 110.186 247.101 137.301 246.75C192.925 245.993 249.61 189.313 249.619 134.441C249.632 74.1924 198.197 22.7614 137.305 22.1327C136.897 22.1273 136.486 22.1255 136.08 22.1255Z" fill="#EFEFEF"/>
<path d="M140.479 265.516C140.285 265.516 140.095 265.516 139.903 265.513C109.027 265.317 77.1901 251.26 52.5553 226.944C27.6578 202.365 13.4027 170.331 13.4498 139.056C13.5567 68.6429 69.1023 13.0974 139.903 12.6009C172.394 12.3672 203.687 25.5787 228.053 49.7859C252.413 73.9822 266.376 106.522 266.365 139.058C266.354 169.061 251.666 200.852 226.069 226.279C200.94 251.238 169.777 265.516 140.479 265.516ZM140.727 14.2678C140.456 14.2678 140.186 14.2696 139.914 14.2714C70.0408 14.7606 15.2254 69.5742 15.1203 139.06C15.0243 202.793 75.6718 263.437 139.914 263.846C169.02 263.973 199.911 249.906 224.892 225.094C250.177 199.979 264.684 168.619 264.695 139.058C264.706 106.962 250.922 74.8555 226.878 50.969C203.033 27.2836 172.466 14.2678 140.727 14.2678Z" fill="#EFEFEF"/>
<path d="M141.023 281.507C141.014 281.507 141.008 281.507 140.999 281.507C104.952 281.5 68.9936 266.18 42.3405 239.476C15.7326 212.815 0.479269 176.922 0.491951 141C0.519131 60.9121 60.9239 0.507306 140.999 0.492813H141.026C218.467 0.492813 281.479 63.5138 281.508 141C281.521 175.793 265.901 211.379 238.658 238.63C211.414 265.879 175.827 281.507 141.023 281.507ZM141.026 2.34808C141.017 2.34808 141.008 2.34808 140.999 2.34808C61.982 2.36257 2.37439 61.9701 2.34721 141C2.33453 176.435 17.3904 211.851 43.654 238.166C69.9611 264.524 105.441 279.645 140.999 279.652H141.023C175.341 279.652 210.445 264.223 237.346 237.318C264.244 210.411 279.666 175.306 279.653 141C279.624 64.5429 217.438 2.34808 141.026 2.34808Z" fill="#EFEFEF"/>
<path d="M102.181 66.1154C102.181 66.1154 102.475 64.9272 102.99 62.8478C103.544 60.7788 104.311 57.8064 105.659 54.3736C106.97 50.9415 109.156 47.1007 112.421 43.7997C115.642 40.4709 119.616 37.524 123.493 34.5652C127.368 31.609 130.99 28.3232 133.521 24.6001C136.045 20.8729 137.311 16.812 138.102 13.2843C138.894 9.74637 139.303 6.72012 139.623 4.61309C139.915 2.49622 140.082 1.28658 140.082 1.28658L141.918 1.55353C141.918 1.55353 141.722 2.76482 141.381 4.88459C141.008 7.00266 140.529 10.04 139.634 13.6513C138.743 17.242 137.319 21.4844 134.579 25.3345C131.842 29.1694 128.034 32.4471 124.073 35.3303C120.107 38.215 116.117 41.0368 112.87 44.2426C109.588 47.4134 107.359 51.1246 105.977 54.5046C104.562 57.8799 103.726 60.8319 103.126 62.8834C102.564 64.9503 102.243 66.1314 102.243 66.1314L102.181 66.1154Z" fill="#EFEFEF"/>
<path d="M96.3335 72.0432C96.3335 72.0432 94.5775 72.6882 91.5045 73.8171C90.7363 74.0994 89.8857 74.4118 88.9597 74.752C88.0851 75.2043 87.1393 75.6935 86.1287 76.2162C84.1033 77.2525 81.7991 78.3799 79.5355 80.0472C78.3774 80.8318 77.171 81.6492 75.9223 82.4951C74.7566 83.4532 73.5515 84.4437 72.3125 85.462C69.7579 87.4065 67.4656 89.9236 64.9022 92.2971C62.5176 94.8621 59.9899 97.4473 57.6005 100.249C55.193 103.033 52.7473 105.862 50.3016 108.691C47.8303 111.506 45.4168 114.37 42.8693 117.05C40.4197 119.816 37.7411 122.294 35.2279 124.768C32.4937 126.998 30.0471 129.417 27.2847 131.148C25.9472 132.071 24.6461 132.969 23.3876 133.837C22.0365 134.559 20.7312 135.256 19.478 135.925C17.0285 137.394 14.535 138.198 12.3748 139.025C11.2886 139.421 10.2871 139.845 9.3325 140.14C8.35697 140.364 7.46088 140.569 6.65152 140.755C3.41013 141.495 1.55793 141.917 1.55793 141.917L1.28101 140.083C1.28101 140.083 3.08208 139.699 6.23391 139.026C7.02288 138.859 7.89633 138.673 8.84728 138.471C9.77769 138.199 10.7531 137.8 11.8132 137.432C13.9209 136.658 16.3597 135.919 18.7642 134.521C19.9962 133.887 21.2795 133.227 22.6077 132.544C23.8515 131.712 25.1374 130.852 26.4594 129.969C29.1899 128.319 31.6358 125.967 34.3645 123.812C36.8849 121.401 39.5712 118.993 42.0494 116.277C44.6182 113.655 47.0715 110.831 49.5783 108.06C52.0685 105.266 54.5588 102.471 57.0102 99.7199C59.4443 96.9511 62.0253 94.3881 64.4554 91.8519C67.0703 89.5013 69.4058 87.0133 72.0067 85.0928C73.2669 84.0884 74.4929 83.1114 75.6787 82.1663C76.9468 81.3343 78.1721 80.5305 79.3482 79.7589C81.6434 78.121 83.9837 77.0174 86.0348 76.0071C87.057 75.4981 88.0138 75.0217 88.8984 74.5813C89.8294 74.255 90.6845 73.9553 91.4569 73.6845C94.5464 72.6017 96.3118 71.983 96.3118 71.983L96.3335 72.0432Z" fill="#EFEFEF"/>
<path d="M102.244 77.9C102.244 77.9 102.54 81.118 103.058 86.7495C103.259 89.5721 103.708 92.9753 104.276 96.871C104.774 100.776 105.43 105.167 106.345 109.927C107.136 114.709 108.219 119.845 109.393 125.271C110.511 130.708 111.973 136.381 113.371 142.273C116.336 154.018 119.748 166.483 123.168 178.949C126.576 191.419 129.898 203.919 132.687 215.727C133.982 221.653 135.354 227.359 136.341 232.836C137.387 238.302 138.349 243.476 138.987 248.296C139.337 250.7 139.672 253.005 139.991 255.196C140.217 257.401 140.432 259.491 140.634 261.456C141.069 265.384 141.393 268.813 141.474 271.653C141.762 277.323 141.927 280.563 141.927 280.563L140.072 280.598C140.072 280.598 139.936 277.381 139.698 271.753C139.644 268.935 139.35 265.526 138.952 261.619C138.768 259.665 138.573 257.585 138.367 255.392C138.069 253.209 137.755 250.914 137.427 248.519C136.835 243.719 135.922 238.559 134.926 233.105C133.991 227.64 132.671 221.937 131.431 216.015C128.751 204.21 125.54 191.694 122.242 179.198C118.929 166.704 115.624 154.203 112.758 142.423C111.41 136.513 109.997 130.824 108.924 125.371C107.796 119.929 106.756 114.78 106.007 109.986C105.132 105.216 104.513 100.813 104.048 96.8983C103.514 92.9932 103.095 89.5854 102.917 86.7617C102.448 81.1259 102.18 77.9055 102.18 77.9055L102.244 77.9Z" fill="#EFEFEF"/>
<path d="M108.108 71.9817C108.108 71.9817 110.991 72.502 116.035 73.4127C117.29 73.669 118.707 73.8286 120.199 74.2309C121.689 74.6446 123.3 75.0921 125.021 75.5701C126.744 76.0486 128.577 76.5578 130.509 77.0945C132.394 77.7759 134.376 78.4923 136.443 79.2399C140.622 80.6347 144.978 82.5666 149.587 84.6076C154.218 86.6001 158.914 89.1033 163.834 91.5516C173.558 96.6845 183.718 102.539 193.87 108.385C198.973 111.257 204.028 114.219 209.117 116.915C214.147 119.727 219.234 122.221 224.139 124.663C226.585 125.899 229.091 126.891 231.489 127.984C233.903 129.038 236.235 130.143 238.613 130.945C243.311 132.695 247.739 134.388 251.988 135.435C254.09 136.024 256.105 136.589 258.021 137.127C259.976 137.488 261.831 137.831 263.574 138.153C265.316 138.476 266.946 138.778 268.454 139.057C269.964 139.315 271.38 139.323 272.643 139.452C277.709 139.847 280.604 140.073 280.604 140.073L280.555 141.927C280.555 141.927 277.611 141.671 272.46 141.221C271.177 141.077 269.738 141.053 268.206 140.777C266.679 140.479 265.027 140.158 263.261 139.814C261.497 139.47 259.619 139.103 257.64 138.717C255.706 138.155 253.672 137.564 251.549 136.948C247.26 135.845 242.806 134.096 238.085 132.284C235.694 131.451 233.357 130.318 230.937 129.233C228.536 128.111 226.022 127.087 223.577 125.823C218.672 123.322 213.589 120.769 208.575 117.903C203.497 115.15 198.469 112.138 193.389 109.215C183.289 103.27 173.197 97.326 163.539 92.109C158.653 89.6196 153.988 87.0749 149.388 85.0435C144.808 82.9635 140.478 80.9929 136.324 79.5623C134.267 78.7963 132.296 78.0622 130.421 77.3641C128.5 76.8106 126.678 76.2857 124.965 75.7923C123.251 75.2985 121.647 74.8364 120.164 74.4091C118.678 73.9928 117.262 73.8194 116.01 73.5513C110.974 72.5924 108.096 72.0445 108.096 72.0445L108.108 71.9817Z" fill="#EFEFEF"/>
</g>
<defs>
<clipPath id="clip0_2_7238">
<rect width="282" height="282" fill="white"/>
</clipPath>
</defs>
</svg>
