<svg width="267" height="247" viewBox="0 0 267 247" fill="none" xmlns="http://www.w3.org/2000/svg">
<g clip-path="url(#clip0_2_6666)">
<path d="M105.553 303.98L35.5634 182.755L35.7828 182.377L105.55 61.5313L245.529 61.5312L315.518 182.756L315.299 183.134L245.528 303.98L105.553 303.98ZM37.3146 182.756L106.427 302.463L244.653 302.464L313.767 182.755L244.654 63.0483L106.425 63.0469L37.3146 182.756Z" fill="#EFEFEF"/>
<path d="M112.724 296.526L45.6037 180.27L45.8231 179.892L112.723 64.0168L246.963 64.0149L314.083 180.271L313.864 180.649L246.962 296.527L112.724 296.526ZM47.3549 180.271L113.599 295.009L246.087 295.011L312.332 180.27L246.088 65.532L113.598 65.5324L47.3549 180.271Z" fill="#EFEFEF"/>
<path d="M119.897 289.073L55.6447 177.786L55.8641 177.408L119.895 66.501L248.398 66.4998L312.65 177.787L312.43 178.165L248.396 289.072L119.897 289.073ZM57.396 177.787L120.771 287.556L247.521 287.557L310.898 177.786L247.523 68.017L120.77 68.0166L57.396 177.787Z" fill="#EFEFEF"/>
<path d="M127.066 281.621L65.6825 175.302L65.9019 174.924L127.067 68.9853L249.832 68.9835L311.215 175.302L310.995 175.68L249.831 281.619L127.066 281.621ZM67.4337 175.303L127.94 280.104L248.956 280.104L309.464 175.301L248.957 70.5007L127.942 70.5009L67.4337 175.303Z" fill="#EFEFEF"/>
<path d="M134.237 274.167L75.7235 172.818L75.9429 172.44L134.238 71.4695L251.266 71.4685L309.78 172.817L309.561 173.195L251.265 274.166L134.237 274.167ZM77.4748 172.819L135.112 272.65L250.39 272.65L308.029 172.816L250.392 72.9856L135.113 72.9851L77.4748 172.819Z" fill="#EFEFEF"/>
<path d="M141.41 266.715L85.7638 170.333L85.9832 169.955L141.41 73.9537L252.7 73.9522L308.346 170.334L308.127 170.712L252.7 266.713L141.41 266.715ZM87.5151 170.334L142.284 265.197L251.825 265.197L306.595 170.333L251.825 75.4693L142.285 75.4693L87.5151 170.334Z" fill="#EFEFEF"/>
<path d="M148.581 259.261L95.8048 167.849L96.0243 167.471L148.582 76.4379L254.135 76.4371L306.911 167.849L306.692 168.227L254.134 259.26L148.581 259.261ZM97.5561 167.85L149.456 257.744L253.259 257.744L305.16 167.848L253.26 77.9543L149.457 77.9535L97.5561 167.85Z" fill="#EFEFEF"/>
<path d="M155.754 251.808L105.845 165.364L106.065 164.986L155.754 78.9221L255.569 78.9208L305.478 165.365L305.258 165.743L255.569 251.807L155.754 251.808ZM107.596 165.365L156.629 250.291L254.694 250.291L303.726 165.364L254.694 80.438L156.629 80.4377L107.596 165.365Z" fill="#EFEFEF"/>
<path d="M162.925 244.354L115.886 162.88L116.106 162.502L162.926 81.4063L257.004 81.4058L304.043 162.88L303.823 163.258L257.003 244.354L162.925 244.354ZM117.637 162.881L163.8 242.837L256.128 242.838L302.292 162.879L256.129 82.9229L163.801 82.9219L117.637 162.881Z" fill="#EFEFEF"/>
<path d="M170.098 236.902L125.927 160.395L126.146 160.017L170.097 83.8905L258.438 83.8895L302.609 160.396L302.389 160.774L258.438 236.901L170.098 236.902ZM127.678 160.396L170.973 235.385L257.563 235.385L300.858 160.395L257.563 85.4066L170.973 85.4061L127.678 160.396Z" fill="#EFEFEF"/>
<path d="M177.269 229.448L135.968 157.911L136.187 157.533L177.269 86.3748L259.872 86.3744L301.174 157.911L300.955 158.289L259.872 229.448L177.269 229.448ZM137.719 157.912L178.144 227.931L258.997 227.932L299.423 157.91L258.997 87.8916L178.144 87.8904L137.719 157.912Z" fill="#EFEFEF"/>
<path d="M184.442 221.995L146.008 155.426L146.227 155.048L184.441 88.859L261.306 88.8581L299.74 155.428L299.521 155.806L261.307 221.994L184.442 221.995ZM147.759 155.427L185.317 220.478L260.432 220.479L297.989 155.427L260.431 90.3753L185.316 90.3746L147.759 155.427Z" fill="#EFEFEF"/>
<path d="M191.612 214.542L156.048 152.942L191.613 91.3432L262.741 91.3431L298.306 152.943L288.034 170.731L262.741 214.541L191.612 214.542ZM157.799 152.944L192.487 213.025L261.866 213.026L296.554 152.942L261.866 92.8602L192.488 92.8588L157.799 152.944Z" fill="#EFEFEF"/>
<path d="M198.785 207.09L166.089 150.459L198.784 93.8294L264.176 93.828L296.872 150.459L296.652 150.837L264.175 207.089L198.785 207.09ZM167.84 150.46L199.659 205.573L263.3 205.573L295.12 150.458L263.301 95.3452L199.659 95.345L167.84 150.46Z" fill="#EFEFEF"/>
<path d="M205.956 199.636L176.129 147.973L176.348 147.595L205.956 96.3136L265.61 96.3117L295.437 147.974L295.217 148.352L265.608 199.635L205.956 199.636ZM177.88 147.974L206.831 198.119L264.733 198.119L293.686 147.973L264.735 97.8289L206.831 97.8292L177.88 147.974Z" fill="#EFEFEF"/>
<path d="M213.128 192.182L186.17 145.489L213.128 98.7979L267.044 98.7967L294.002 145.489L267.043 192.182L213.128 192.182ZM187.921 145.491L214.003 190.665L266.168 190.666L292.251 145.488L266.169 100.314L214.003 100.313L187.921 145.491Z" fill="#EFEFEF"/>
<path d="M220.3 184.729L196.21 143.004L220.3 101.282L268.478 101.28L292.568 143.006L268.478 184.728L220.3 184.729ZM197.962 143.005L221.175 183.212L267.602 183.213L290.817 143.005L267.603 102.798L221.175 102.798L197.962 143.005Z" fill="#EFEFEF"/>
<path d="M227.472 177.276L206.251 140.52L227.472 103.766L269.913 103.765L291.134 140.521L269.912 177.275L227.472 177.276ZM208.003 140.521L228.347 175.758L269.037 175.76L289.382 140.52L269.038 105.282L228.347 105.282L208.003 140.521Z" fill="#EFEFEF"/>
<path d="M234.643 169.824L216.29 138.036L234.643 106.25L271.347 106.249L289.7 138.037L271.347 169.822L234.643 169.824ZM218.042 138.037L235.518 168.307L270.472 168.307L287.948 138.036L270.472 107.766L235.518 107.766L218.042 138.037Z" fill="#EFEFEF"/>
<path d="M241.815 162.37L226.331 135.552L241.815 108.735L272.782 108.734L288.265 135.552L272.781 162.369L241.815 162.37ZM228.083 135.553L242.689 160.853L271.906 160.854L286.514 135.551L271.907 110.251L242.69 110.25L228.083 135.553Z" fill="#EFEFEF"/>
<path d="M248.987 154.917L236.372 133.067L248.987 111.219L274.215 111.218L286.831 133.068L274.216 154.916L248.987 154.917ZM238.123 133.068L249.862 153.4L273.341 153.401L285.08 133.067L273.341 112.735L249.862 112.735L238.123 133.068Z" fill="#EFEFEF"/>
<path d="M256.159 147.463L246.413 130.583L256.159 113.703L275.65 113.703L285.396 130.583L275.65 147.463L256.159 147.463ZM248.164 130.584L257.033 145.946L274.775 145.947L283.645 130.582L274.775 115.22L257.034 115.219L248.164 130.584Z" fill="#EFEFEF"/>
<path d="M263.331 140.011L256.453 128.098L263.331 116.187L277.084 116.186L283.962 128.1L277.085 140.01L263.331 140.011ZM258.204 128.099L264.206 138.494L276.21 138.494L282.211 128.099L276.209 117.703L264.206 117.703L258.204 128.099Z" fill="#EFEFEF"/>
</g>
<defs>
<clipPath id="clip0_2_6666">
<rect width="282" height="242.581" fill="white" transform="translate(210.081) rotate(60)"/>
</clipPath>
</defs>
</svg>
