<svg width="28" height="28" viewBox="0 0 28 28" fill="none" xmlns="http://www.w3.org/2000/svg">
  <path d="M16.488 1.11806C19.9285 1.11806 23.0397 2.83422 25.1591 5.54594C26.9414 7.89483 28 10.8236 28 14C28 21.7319 21.7322 28 14.0002 28C13.6957 28 13.4627 27.9829 13.4627 27.9829C16.2562 27.5213 18.7968 26.0664 20.7584 23.7724C23.0058 21.1443 24.2829 17.5824 24.295 14C24.295 9.14939 21.0929 4.57644 16.488 4.57644C12.2657 4.57644 8.68285 8.70372 8.68285 14C8.68285 17.3262 10.1603 20.3933 12.4691 22.0772C12.1541 22.1352 11.8344 22.1643 11.5124 22.1643C8.06489 22.1643 4.96579 18.6698 4.96579 14C4.96579 7.30139 9.83397 1.11806 16.488 1.11806ZM14.0002 0C14.3047 0 14.5373 0.0171111 14.5373 0.0171111C11.7442 0.478722 9.20357 1.93356 7.2416 4.22761C4.99457 6.85572 3.71706 10.4176 3.70539 14C3.70539 18.8506 6.90715 23.4236 11.5124 23.4236C15.7347 23.4236 19.3172 19.2963 19.3172 14C19.3172 10.6738 17.8401 7.60667 15.5309 5.92278C15.8463 5.86444 16.1656 5.83528 16.488 5.83528C19.9351 5.83528 23.0342 9.32983 23.0342 14C23.0342 20.6986 18.1664 26.8819 11.5124 26.8819C8.07189 26.8819 4.96035 25.1654 2.84126 22.4544C1.05857 20.1048 0 17.1761 0 14C0 6.26811 6.2682 0 14.0002 0Z" fill="#F4F5F7"/>
</svg>
