<?xml version="1.0" encoding="UTF-8"?>
<svg id="Layer_1" xmlns="http://www.w3.org/2000/svg" version="1.1" viewBox="0 0 198.1 194.7">
  <!-- Generator: Adobe Illustrator 30.1.0, SVG Export Plug-In . SVG Version: 2.1.1 Build 136)  -->
  <g id="Layer_11" data-name="Layer_1">
    <g id="Layer_1-2">
      <path d="M14,0h169.5s.2.2.3.2c8.1,1.7,12.3,6.9,12.3,15.1v165c-.1,7.1-4.4,12.4-11.2,14.1-.5,0-.9.3-1.4.4H14c-.2,0-.4-.2-.6-.2-7.2-1.3-12-6.9-12-14.2V14.3c0-6.3,3.9-11.7,9.9-13.5.9-.3,1.7-.5,2.6-.7h.1ZM106.1,165.8v-45.5c0-4,.4-8.1,1.2-12,1.1-5.5,4.2-9.8,10-11.4,1.7-.5,3.4-.7,5.2-.8,7.8-.6,12.9,3.1,14.8,10.6,1.1,4.4,1.2,8.8,1.2,13.3v45.8h28.7v-53.6c0-7-.6-14-2.7-20.7-2.3-7.5-6.5-13.7-13.8-17.2-7.8-3.7-16-4.4-24.4-3-8.8,1.5-15.9,6-20.6,13.8,0,.2-.3.4-.8.9v-12.9h-27.6v92.6h28.8ZM30.4,165.7h28.7v-92.6h-28.7s0,92.6,0,92.6ZM44.8,26.9c-9.3,0-16.7,7.6-16.7,16.9s7.6,16.5,16.8,16.5,16.7-7.6,16.7-16.7-7.6-16.7-16.7-16.7c0,0,0,0,0,0Z"/>
    </g>
  </g>
</svg>