<?xml version="1.0" encoding="UTF-8"?>
<svg id="Layer_1" xmlns="http://www.w3.org/2000/svg" version="1.1" viewBox="0 0 54 45">
  <!-- Generator: Adobe Illustrator 30.1.0, SVG Export Plug-In . SVG Version: 2.1.1 Build 136)  -->
  <path d="M20.2,42c0-2.2.1-4.1,0-6-.5-5.2,2.5-8.4,6.2-11.5,5.6-4.6,10.9-9.6,16.3-14.4.3-.3.5-.6.5-1.4-.8.4-1.7.7-2.4,1.1-8.3,5.1-16.5,10.2-24.8,15.5-1.5.9-2.7,1.2-4.4.6-2.9-1-6-1.7-8.9-2.8-1-.4-1.8-1.4-2.7-2.1.9-.8,1.6-1.9,2.6-2.3C15.5,13.7,28.3,8.8,41.2,3.9c2.4-.9,4.9-1.9,7.3-2.8,3.6-1.3,5.3,0,4.5,3.8-1.5,7.6-3.2,15.2-4.8,22.7-1,4.5-1.9,9.1-2.9,13.6-.8,3.8-2.6,4.4-5.7,2.2-3.1-2.1-6.2-4.3-9.1-6.7-1.7-1.4-2.7-1.1-4.1.4-1.4,1.5-2.9,2.8-4.5,4.2-.3.3-.9.3-1.7.6h0Z"/>
</svg>