<?xml version="1.0" encoding="UTF-8"?>
<svg id="Layer_1" xmlns="http://www.w3.org/2000/svg" version="1.1" viewBox="0 0 46 33">
  <!-- Generator: Adobe Illustrator 30.1.0, SVG Export Plug-In . SVG Version: 2.1.1 Build 136)  -->
  <path d="M22.9.2c5.1.2,10.1.4,15.2.7,4.9.3,7.3,2.5,7.4,7.4.2,5.5.2,11.1,0,16.6-.2,4.8-2.4,7.2-7.2,7.3-10.3.2-20.6.2-30.9,0-4.8-.1-7-2.6-7.2-7.3C0,19.4,0,13.8.2,8.3.4,3.5,2.8,1.2,7.7.9c5.1-.3,10.1-.5,15.2-.7h0ZM18.8,10.3v12.6c3.8-2.2,7.2-4.2,11-6.4-3.9-2.2-7.3-4.1-11-6.2Z"/>
</svg>