<?xml version="1.0" encoding="UTF-8" standalone="no"?>
<!DOCTYPE svg PUBLIC "-//W3C//DTD SVG 1.1//EN" "http://www.w3.org/Graphics/SVG/1.1/DTD/svg11.dtd">
<svg width="100%" height="100%" viewBox="0 0 673 694" version="1.1" xmlns="http://www.w3.org/2000/svg" xmlns:xlink="http://www.w3.org/1999/xlink" xml:space="preserve" xmlns:serif="http://www.serif.com/" style="fill-rule:evenodd;clip-rule:evenodd;stroke-linejoin:round;stroke-miterlimit:2;">
    <g transform="matrix(1,0,0,1,-236.67,-2845.95)">
        <path d="M562.155,2847.07C549,2851.07 541.994,2859.08 538.705,2873.66L537.132,2880.67L527.123,2882.53C479.938,2891.11 427.32,2913.56 395.291,2938.44L391.859,2941.15L396.149,2948.16C398.436,2952.02 401.868,2959.31 403.727,2964.32C407.302,2973.76 414.165,2982.76 423.602,2990.2L429.178,2994.63L441.046,2985.48C447.623,2980.47 455.059,2975.18 457.632,2973.76C461.779,2971.32 462.208,2970.32 462.208,2964.18C462.208,2949.16 471.359,2941.87 489.089,2942.87C490.805,2942.87 494.666,2945.16 497.525,2947.88L502.816,2952.74L512.253,2950.16C517.4,2948.73 524.406,2947.16 527.981,2946.59C531.556,2946.16 536.703,2945.16 539.42,2944.44C542.137,2943.59 549.429,2943.01 555.434,2943.01L566.444,2943.01L566.873,2929.72L567.302,2916.56L573.45,2916.13L579.456,2915.7L579.456,2928.57C579.456,2943.59 577.883,2942.3 598.33,2943.59C605.193,2944.01 616.775,2945.73 624.067,2947.45C631.359,2949.16 638.795,2950.88 640.653,2951.31C642.941,2951.74 644.657,2951.02 646.087,2949.02C648.947,2944.87 659.813,2941.01 665.533,2942.16C676.829,2944.44 686.695,2956.45 684.836,2965.75C683.835,2970.18 686.123,2972.18 714.577,2992.34C716.007,2993.34 718.866,2991.77 724.872,2986.48C731.735,2980.47 734.595,2976.47 741.744,2962.6C746.462,2953.45 751.181,2944.73 752.182,2943.01C753.898,2940.3 753.04,2939.58 739.742,2930.86C708.857,2910.56 660.671,2890.82 625.926,2884.1C617.347,2882.53 609.34,2880.96 608.482,2880.67C607.481,2880.39 606.623,2878.1 606.623,2875.52C606.48,2864.51 595.184,2850.36 584.174,2847.36C578.026,2845.64 567.588,2845.5 562.155,2847.07Z" style="fill:rgb(0,73,103);fill-rule:nonzero;"/>
        <path d="M335.809,2939.44C311.359,2948.16 303.065,2978.33 319.938,2997.06C328.66,3006.79 338.812,3010.93 351.537,3009.79C356.542,3009.5 361.689,3008.22 362.976,3007.22C364.835,3005.64 378.133,3018.37 461.207,3101.44L557.15,3197.39L463.638,3290.47C412.163,3341.51 369.268,3383.41 368.41,3383.41C367.552,3383.41 364.835,3382.41 362.404,3381.12C351.68,3375.83 336.238,3377.55 325.943,3385.41C319.08,3390.7 312.645,3401.43 311.216,3410.15C309.071,3424.16 318.508,3440.03 332.949,3447.18C339.527,3450.47 342.1,3450.9 349.107,3450.18C369.982,3448.32 383.995,3432.74 384.281,3410.72L384.424,3400.28L478.365,3306.34L572.306,3212.54L761.619,3401.28L761.19,3410.86C760.189,3437.03 783.067,3455.62 807.517,3448.47C828.965,3442.32 839.832,3417.72 829.823,3397.99C828.25,3394.85 823.96,3389.7 820.243,3386.41C809.805,3377.26 798.652,3375.4 785.068,3380.55C780.922,3382.12 776.918,3383.41 776.06,3383.41C774.917,3383.41 603.477,3213.4 592.181,3200.96L588.178,3196.53L681.69,3103.16C733.165,3051.68 776.06,3009.22 777.204,3008.5C778.348,3007.93 781.351,3008.07 784.068,3008.79C791.503,3010.93 803.943,3010.36 810.949,3007.5C818.241,3004.5 826.963,2996.35 830.681,2988.91C834.112,2981.91 834.112,2965.46 830.681,2959.17C821.244,2941.73 804.371,2934.01 786.641,2939.15C767.338,2944.87 756.757,2965.03 761.762,2987.05L762.763,2991.91L667.535,3086.86L572.164,3181.8L477.078,3086.57C393.289,3002.93 381.993,2991.06 382.994,2988.34C383.709,2986.62 384.138,2980.62 384.138,2975.19C384.138,2967.32 383.423,2963.6 380.706,2958.17C371.984,2941.01 353.253,2933.15 335.809,2939.44Z" style="fill:rgb(0,73,103);fill-rule:nonzero;"/>
        <path d="M535.845,2956.03C527.981,2957.46 518.115,2959.6 513.826,2960.61C506.247,2962.46 506.104,2962.61 504.389,2969.18C503.388,2972.9 501.529,2977.34 499.956,2978.91C493.665,2985.91 480.939,2987.92 472.217,2983.2L467.212,2980.62L455.059,2988.92C448.338,2993.49 441.332,2998.5 439.33,3000.07L435.756,3002.93L504.246,3071.42L572.592,3139.91L640.51,3071.85C688.41,3023.8 707.999,3003.22 707.142,3001.93C706.57,3000.93 699.849,2995.64 692.414,2990.2L678.83,2980.48L674.398,2983.2C668.679,2986.63 656.525,2986.77 650.948,2983.63C646.23,2980.77 642.798,2975.19 641.225,2968.04C640.224,2963.18 639.51,2962.46 633.79,2960.75C624.21,2957.89 594.326,2953.03 586.462,2953.03L579.456,2953.03L579.456,2981.62C579.456,3009.93 579.456,3010.22 582.744,3012.37C590.323,3017.23 591.61,3027.81 585.461,3034.67C582.172,3038.39 580.028,3039.39 574.022,3039.96C567.016,3040.53 566.301,3040.25 561.583,3035.53C558.008,3031.95 556.578,3029.24 556.578,3026.09C556.578,3020.52 559.867,3013.94 564.013,3010.94C567.159,3008.79 567.302,3007.93 567.731,2980.91L568.303,2953.03L559.152,2953.17C554.29,2953.17 543.709,2954.46 535.845,2956.03Z" style="fill:rgb(0,73,103);fill-rule:nonzero;"/>
        <path d="M311.501,3027.23C291.913,3059.26 274.468,3111.02 271.18,3146.05C269.893,3159.49 269.75,3159.92 263.744,3160.92C256.595,3161.92 249.732,3166.64 243.869,3174.36C234.861,3186.23 234.289,3199.81 242.44,3213.54C247.301,3221.69 255.737,3227.41 264.745,3228.98L269.75,3229.7L272.895,3248.29C276.041,3266.87 279.616,3282.17 284.191,3295.47C292.198,3319.21 314.933,3367.68 318.079,3367.68C318.794,3367.68 321.224,3366.53 323.226,3364.96C328.374,3361.39 336.953,3359.1 345.818,3359.1C353.253,3359.1 353.253,3359.1 364.406,3347.52C370.697,3341.23 375.702,3335.22 375.559,3334.36C375.416,3333.36 371.698,3327.5 367.123,3321.21C362.69,3314.92 358.544,3308.91 358.258,3307.91C357.829,3306.91 354.683,3306.2 349.679,3306.2C345.389,3306.2 339.956,3305.19 337.668,3303.91C332.949,3301.48 327.802,3292.18 327.802,3286.18C327.802,3280.89 332.806,3271.02 336.81,3268.3L340.384,3266.02L336.81,3255.01C332.806,3242.42 329.232,3220.55 329.232,3208.54L329.232,3200.39L306.354,3200.39L306.354,3188.95L327.516,3188.95L328.517,3177.08C329.375,3167.5 332.234,3150.77 337.239,3126.18C337.668,3123.89 336.81,3121.6 334.522,3119.03C329.375,3113.45 327.802,3109.73 327.802,3102.73C327.802,3090.43 338.24,3080.99 350.679,3082.14C356.971,3082.71 357.4,3082.42 359.83,3077.42C361.26,3074.56 364.978,3068.7 367.981,3064.69C371.126,3060.55 373.557,3056.54 373.271,3055.83C372.985,3055.11 367.552,3049.11 360.974,3042.53C349.822,3031.38 348.535,3030.52 341.671,3029.66C333.092,3028.52 323.655,3024.66 320.796,3021.22C319.795,3019.8 318.365,3018.79 317.65,3018.79C317.078,3018.79 314.218,3022.66 311.501,3027.23Z" style="fill:rgb(0,73,103);fill-rule:nonzero;"/>
        <path d="M822.245,3022.37C815.381,3027.09 811.092,3028.66 802.084,3029.66C795.22,3030.52 794.22,3031.24 784.068,3042.1C778.062,3048.39 772.772,3054.26 772.2,3055.26C771.485,3056.26 772.772,3059.26 775.203,3062.26C777.49,3065.12 781.494,3070.7 783.925,3074.56C788.357,3081.42 788.786,3081.71 794.791,3081.71C807.803,3081.71 815.667,3088.43 817.526,3101.01C818.67,3108.16 816.668,3113.74 811.092,3118.89L806.802,3122.89L808.947,3131.33C810.091,3135.9 811.378,3141.48 811.807,3143.91C812.093,3146.2 812.808,3149.77 813.237,3151.77C814.237,3157.2 815.095,3164.35 816.096,3177.08L817.097,3188.95L839.689,3188.95L839.689,3200.39L816.811,3200.39L816.668,3205.39C816.525,3208.11 816.382,3210.82 816.239,3211.4C816.096,3212.11 815.381,3217.12 814.809,3222.69C814.237,3228.27 811.95,3239.99 809.805,3248.72L805.801,3264.73L809.376,3267.88C815.381,3273.45 818.527,3282.17 816.954,3289.04C814.237,3301.19 807.803,3306.62 796.364,3306.48L788.929,3306.34L779.635,3319.78C774.631,3327.07 770.198,3333.79 769.912,3334.65C769.626,3335.51 774.345,3341.37 780.35,3347.52L791.217,3358.67L802.227,3359.39C811.092,3359.96 814.666,3360.82 820.243,3364.11L827.106,3368.11L829.68,3364.82C830.967,3363.1 837.115,3351.66 843.12,3339.65C858.42,3309.2 871.146,3269.02 874.72,3240.14C875.864,3230.99 876.579,3230.27 884.729,3227.84C900.315,3223.12 909.037,3210.97 909.037,3193.81C909.037,3185.23 908.465,3182.94 905.033,3177.8C900.029,3170.07 890.735,3163.35 883.728,3162.35C880.726,3161.78 878.009,3161.07 877.723,3160.49C877.437,3160.07 876.865,3156.35 876.293,3152.49C874.863,3140.19 871.432,3123.75 866.999,3107.45C865.283,3101.58 863.71,3095.72 863.424,3094.29C859.564,3079.28 837.544,3031.09 830.824,3022.66L827.535,3018.65L822.245,3022.37Z" style="fill:rgb(0,73,103);fill-rule:nonzero;"/>
        <path d="M379.705,3066.98C378.848,3068.41 375.273,3073.7 371.698,3078.7L365.407,3087.86L367.838,3092.29C372.127,3099.87 372.556,3105.16 369.41,3112.31C366.265,3119.46 359.545,3124.6 353.253,3124.6C349.822,3124.6 349.107,3125.46 347.248,3132.04C344.102,3143.05 340.813,3163.64 340.242,3177.08L339.527,3188.95L428.606,3188.95L432.61,3184.8C437.757,3179.22 443.477,3178.08 450.197,3181.23C457.203,3184.51 460.349,3191.66 458.061,3199.24C454.916,3209.39 440.903,3212.54 433.611,3204.68L429.607,3200.39L339.527,3200.39L340.099,3209.25C341.671,3233.84 347.248,3261.01 351.251,3263.59C352.109,3264.16 354.254,3264.73 355.827,3264.73C359.83,3264.73 365.979,3269.59 368.839,3275.17C371.841,3281.03 371.698,3290.04 368.696,3296.04C366.265,3300.62 366.265,3300.9 369.839,3305.91C371.841,3308.91 376.417,3314.92 379.991,3319.49L386.569,3327.64L391.859,3321.64C394.862,3318.2 423.459,3289.18 455.488,3256.87C487.516,3224.69 513.54,3197.81 513.397,3197.24C513.111,3196.53 381.993,3064.55 381.421,3064.55C381.421,3064.55 380.706,3065.69 379.705,3066.98Z" style="fill:rgb(0,73,103);fill-rule:nonzero;"/>
        <path d="M734.595,3092.01C719.581,3107.17 690.126,3137.19 668.822,3158.5L630.358,3197.53L695.131,3261.88C730.877,3297.19 760.475,3326.22 760.904,3326.22C761.333,3326.22 764.479,3322.07 767.91,3317.21C771.199,3312.35 775.345,3306.63 776.918,3304.63L779.921,3300.91L776.918,3295.05C773.058,3287.47 773.201,3281.18 777.204,3274.03C779.778,3269.45 781.78,3267.88 787.213,3266.02C790.931,3264.88 794.22,3263.45 794.648,3263.02C796.221,3261.45 803.657,3227.42 804.657,3217.84C805.086,3212.55 805.944,3206.54 806.23,3204.25L807.088,3200.39L761.19,3200.39C725.015,3200.39 715.149,3200.82 714.291,3202.25C710.716,3208.11 701.136,3210.69 694.845,3207.4C683.406,3201.54 684.55,3185.38 696.704,3180.38C702.137,3178.09 706.856,3179.37 713.004,3184.66L717.865,3188.95L807.088,3188.95L806.087,3179.23C804.943,3167.36 804.086,3160.64 803.228,3156.07C802.799,3154.07 802.227,3150.92 801.798,3148.92C801.369,3146.92 800.082,3140.62 798.652,3134.91C796.507,3125.47 795.935,3124.61 792.647,3124.61C778.205,3124.61 769.483,3106.88 776.775,3092.58L779.492,3087.15L773.916,3079C768.053,3070.7 763.049,3064.56 762.191,3064.56C761.905,3064.56 749.465,3077 734.595,3092.01Z" style="fill:rgb(0,73,103);fill-rule:nonzero;"/>
        <path d="M506.247,3320.35C470.215,3356.38 440.76,3386.41 440.76,3387.12C440.76,3387.84 445.479,3391.56 451.055,3395.56C467.069,3406.71 466.64,3406.57 473.075,3403.43C483.084,3398.28 494.237,3400.42 500.671,3408.57C502.387,3410.72 503.674,3413.86 503.674,3415.58C503.674,3417.29 504.532,3419.44 505.532,3420.3C508.249,3422.44 540.85,3429.02 554.433,3430.02L566.587,3431.02L566.587,3410.57C566.587,3390.56 566.587,3390.27 563.012,3387.41C556.578,3382.41 555.148,3377.97 557.436,3370.25C559.152,3364.53 560.296,3363.25 565.872,3360.53C573.593,3356.81 578.884,3357.53 584.317,3363.25C591.895,3371.11 591.467,3379.97 583.173,3387.55C579.456,3390.99 579.456,3391.27 579.456,3411.72L579.456,3432.31L583.459,3431.45C585.604,3431.16 591.181,3430.31 595.899,3429.88C600.475,3429.31 605.622,3428.59 607.338,3428.3C608.911,3427.88 614.773,3426.73 620.207,3425.59C641.511,3421.01 640.081,3421.73 642.226,3415.15C646.087,3402.71 662.101,3396.7 673.254,3403.28L678.545,3406.43L688.696,3399.56C694.273,3395.85 700.278,3391.7 702.137,3390.41C705.283,3387.98 704.997,3387.7 639.224,3321.35C602.762,3284.75 572.735,3254.72 572.306,3254.72C571.878,3254.86 542.137,3284.32 506.247,3320.35Z" style="fill:rgb(0,73,103);fill-rule:nonzero;"/>
        <path d="M707.285,3399.28C704.139,3401.71 697.99,3406.29 693.558,3409.29C685.98,3414.44 685.265,3415.44 685.265,3420.16C685.265,3427.31 680.117,3437.46 674.684,3440.89C671.252,3443.03 668.393,3443.46 661.1,3443.03C651.806,3442.6 649.376,3441.18 644.514,3432.88C643.227,3430.74 642.369,3430.74 633.075,3433.31C627.642,3434.88 620.207,3436.46 616.632,3437.03C613.2,3437.6 609.912,3438.17 609.483,3438.46C608.625,3439.03 601.19,3440.03 588.464,3441.32L579.456,3442.32L579.456,3473.49L566.587,3473.49L566.587,3457.76C566.587,3442.46 566.444,3442.03 563.441,3442.03C557.722,3441.89 544.71,3440.32 533.7,3438.32C519.116,3435.74 516.828,3435.31 509.107,3433.02C502.673,3431.02 502.53,3431.02 500.957,3434.31C498.526,3439.74 491.091,3443.46 482.941,3443.46C470.358,3443.32 463.638,3436.89 462.351,3423.44L461.493,3415.15L447.48,3405.71C439.759,3400.57 432.753,3396.28 431.752,3396.28C430.751,3396.28 424.603,3401.57 418.168,3408.14C409.875,3416.44 404.156,3423.87 399.294,3432.74C395.291,3439.6 392.288,3445.46 392.431,3445.75C392.717,3445.89 399.008,3449.9 406.444,3454.62C440.76,3476.06 474.934,3489.5 514.255,3497.08C524.549,3499.08 534.415,3501.09 536.274,3501.51C538.848,3502.09 539.42,3503.09 539.42,3507.95C539.42,3515.24 542.137,3521.68 548.142,3528.54C561.297,3543.41 585.89,3543.12 598.044,3527.82C602.905,3521.68 606.623,3512.38 606.623,3506.23C606.623,3502.66 607.195,3502.09 612.056,3501.37C648.232,3495.22 682.262,3484.64 713.862,3469.49C723.156,3465.05 744.032,3453.18 749.894,3449.04L754.041,3446.04L751.038,3441.6C749.465,3439.03 746.034,3433.17 743.746,3428.45C740.886,3423.02 734.738,3415.29 727.016,3407.29C720.153,3400.42 714.291,3394.85 713.719,3394.85C713.29,3394.85 710.287,3396.85 707.285,3399.28Z" style="fill:rgb(0,73,103);fill-rule:nonzero;"/>
    </g>
</svg>
