<svg width="228" height="58" xmlns="http://www.w3.org/2000/svg" xmlns:xlink="http://www.w3.org/1999/xlink" xml:space="preserve" overflow="hidden"><defs><clipPath id="clip0"><rect x="96" y="100" width="228" height="58"/></clipPath><clipPath id="clip1"><rect x="97" y="100" width="227" height="58"/></clipPath><clipPath id="clip2"><rect x="97" y="100" width="227" height="58"/></clipPath><clipPath id="clip3"><rect x="97" y="100" width="227" height="58"/></clipPath></defs><g clip-path="url(#clip0)" transform="translate(-96 -100)"><g clip-path="url(#clip1)"><g clip-path="url(#clip2)"><g clip-path="url(#clip3)"><path d="M3.00273-18.4516 17.4506-18.4516 17.4506-13.2294 3.00273-13.2294Z" fill="#004967" fill-rule="evenodd" fill-opacity="1" transform="matrix(1 0 0 1.00042 277.94 132.095)"/><path d="M29.244-31.6375 22.5422-31.6375 22.5422-11.7498 22.2811-11.7498 8.61653-31.6375 2.74163-31.6375 2.74163 0 9.44334 0 9.44334-19.9312 9.66101-19.9312 23.4562 0 29.244 0 29.244-31.6375Z" fill="#004967" fill-rule="nonzero" fill-opacity="1" transform="matrix(1 0 0 1.00042 154.693 132.095)"/><path d="M1.56668-26.1108 11.2276-26.1108 11.2276 0 17.8424 0 17.8424-26.1108 27.5468-26.1108 27.5468-31.6375 1.56668-31.6375 1.56668-26.1108Z" fill="#004967" fill-rule="nonzero" fill-opacity="1" transform="matrix(1 0 0 1.00042 186.683 132.095)"/><path d="M22.2811-31.6375 22.2811-11.6628C22.2811-8.05081 19.7571-5.43973 15.884-5.43973 12.0109-5.43973 9.44334-8.05081 9.44334-11.6628L9.44334-31.6375 2.74163-31.6375 2.74163-11.0971C2.74163-4.17775 7.96378 0.435166 15.884 0.435166 23.7173 0.435166 28.9829-4.17775 28.9829-11.0971L28.9829-31.6375 22.2811-31.6375Z" fill="#004967" fill-rule="nonzero" fill-opacity="1" transform="matrix(1 0 0 1.00042 215.766 132.095)"/><path d="M19.9312-22.5422 26.3283-22.5422C26.2413-28.1996 21.5849-32.0727 14.5785-32.0727 7.61565-32.0727 2.52404-28.2431 2.56756-22.4987 2.56756-17.8424 5.83138-15.1443 11.1841-13.8822L14.622-13.0119C18.0599-12.185 20.0182-11.1841 20.0182-9.05169 20.0182-6.74531 17.7988-5.17864 14.4044-5.17864 10.923-5.17864 8.44246-6.78883 8.22488-9.92211L1.74074-9.92211C1.91481-3.08976 6.78883 0.435166 14.4914 0.435166 22.1941 0.435166 26.7635-3.26383 26.7635-9.05169 26.7635-14.3174 22.7598-17.1025 17.2766-18.3646L14.4479-19.0173C11.6628-19.6701 9.39983-20.671 9.44334-22.9339 9.44334-24.9792 11.2276-26.5024 14.4914-26.5024 17.7118-26.5024 19.6701-25.0228 19.9312-22.5422Z" fill="#004967" fill-rule="nonzero" fill-opacity="1" transform="matrix(1 0 0 1.00042 247.509 132.095)"/><path d="M9.00818-31.6375 1.43613-31.6375 11.1406-15.8405 1.26198 0 8.92114 0 15.4054-10.7924 15.6665-10.7924 22.1506 0 29.8533 0 19.9747-15.8405 29.6357-31.6375 22.0636-31.6375 15.6665-20.8451 15.4054-20.8451 9.00818-31.6375Z" fill="#004967" fill-rule="nonzero" fill-opacity="1" transform="matrix(1 0 0 1.00042 294.14 132.544)"/><path d="M2.74163 0 9.44334 0 9.44334-10.2702 15.0572-10.2702C22.3247-10.2702 26.5894-14.622 26.5894-20.9321 26.5894-27.1987 22.4117-31.6375 15.2313-31.6375L2.74163-31.6375 2.74163 0ZM9.44334-15.6229 9.44334-26.1978 13.9692-26.1978C17.7988-26.1978 19.6701-24.0654 19.6701-20.9321 19.6701-17.7988 17.7988-15.6229 13.9692-15.6229L9.44334-15.6229Z" fill="#004967" fill-rule="nonzero" fill-opacity="1" transform="matrix(1 0 0 1.00042 94.4101 132.095)"/><path d="M26.7615 135.536C26.1353 135.726 25.8017 136.107 25.6452 136.801L25.5703 137.135 25.0939 137.224C22.8476 137.632 20.3427 138.701 18.818 139.885L18.6545 140.014 18.8588 140.348C18.9677 140.532 19.131 140.879 19.2195 141.118 19.3897 141.567 19.7164 141.995 20.1657 142.349L20.4311 142.56 20.9961 142.124C21.3092 141.886 21.6632 141.634 21.7857 141.567 21.9831 141.45 22.0035 141.403 22.0035 141.11 22.0035 140.396 22.4391 140.049 23.2832 140.096 23.3649 140.096 23.5487 140.205 23.6848 140.334L23.9367 140.566 24.3859 140.444C24.631 140.375 24.9645 140.3 25.1346 140.274 25.3049 140.253 25.5498 140.205 25.6792 140.171 25.8085 140.13 26.1557 140.103 26.4416 140.103L26.9657 140.103 26.9862 139.47 27.0066 138.844 27.2993 138.824 27.5851 138.802 27.5851 139.415C27.5851 140.13 27.5103 140.069 28.4837 140.13 28.8103 140.151 29.3617 140.232 29.7089 140.314 30.056 140.396 30.41 140.478 30.4984 140.498 30.6073 140.518 30.6891 140.484 30.7571 140.389 30.8933 140.191 31.4105 140.007 31.6828 140.062 32.2206 140.171 32.6903 140.743 32.6018 141.186 32.5542 141.396 32.6631 141.491 34.0176 142.451 34.0857 142.499 34.2218 142.424 34.5077 142.172 34.8344 141.886 34.9706 141.695 35.311 141.035 35.5355 140.6 35.7601 140.185 35.8078 140.103 35.8895 139.973 35.8487 139.939 35.2156 139.524 33.7453 138.558 31.4514 137.619 29.7974 137.298 29.389 137.224 29.0078 137.148 28.9669 137.135 28.9193 137.122 28.8785 137.013 28.8785 136.89 28.8716 136.366 28.3339 135.692 27.8098 135.549 27.5171 135.468 27.0202 135.46 26.7615 135.536Z" fill="#004967" fill-rule="nonzero" fill-opacity="1" transform="matrix(1.03107 -4.69128e-19 4.83705e-19 1 111.09 -35.4835)"/><path d="M15.9863 139.933C14.8223 140.348 14.4275 141.784 15.2307 142.676 15.6459 143.139 16.1292 143.336 16.735 143.282 16.9732 143.268 17.2183 143.207 17.2796 143.159 17.368 143.084 18.0011 143.69 21.9559 147.645L26.5233 152.212 22.0716 156.644C19.6211 159.074 17.5791 161.068 17.5382 161.068 17.4974 161.068 17.368 161.021 17.2523 160.959 16.7418 160.707 16.0067 160.789 15.5166 161.163 15.1899 161.415 14.8836 161.926 14.8155 162.341 14.7134 163.008 15.1627 163.764 15.8502 164.104 16.1632 164.261 16.2857 164.281 16.6193 164.247 17.6131 164.158 18.2802 163.417 18.2938 162.368L18.3006 161.871 22.7727 157.399 27.2448 152.933 36.2571 161.919 36.2367 162.375C36.189 163.621 37.2781 164.506 38.4421 164.165 39.4631 163.872 39.9804 162.701 39.504 161.762 39.429 161.613 39.2248 161.368 39.0479 161.211 38.551 160.775 38.0201 160.686 37.3734 160.932 37.176 161.007 36.9853 161.068 36.9446 161.068 36.8901 161.068 28.7287 152.975 28.1909 152.382L28.0003 152.172 32.4521 147.727C34.9025 145.276 36.9446 143.255 36.999 143.221 37.0535 143.193 37.1964 143.2 37.3258 143.234 37.6797 143.336 38.2719 143.309 38.6054 143.173 38.9526 143.03 39.3678 142.642 39.5448 142.288 39.7081 141.954 39.7081 141.172 39.5448 140.872 39.0956 140.042 38.2923 139.674 37.4483 139.919 36.5294 140.191 36.0256 141.151 36.2639 142.199L36.3115 142.431 31.7782 146.951 27.238 151.47 22.7114 146.937C18.7226 142.955 18.1849 142.39 18.2325 142.261 18.2666 142.178 18.287 141.894 18.287 141.635 18.287 141.26 18.253 141.083 18.1236 140.825 17.7084 140.007 16.8167 139.634 15.9863 139.933Z" fill="#004967" fill-rule="nonzero" fill-opacity="1" transform="matrix(1.03107 -4.69128e-19 4.83705e-19 1 111.09 -35.4835)"/><path d="M25.5091 140.723C25.1346 140.791 24.665 140.893 24.4608 140.94 24.1 141.029 24.0932 141.036 24.0116 141.348 23.9639 141.525 23.8755 141.737 23.8005 141.812 23.501 142.145 22.8952 142.241 22.48 142.016L22.2418 141.894 21.6632 142.288C21.3432 142.506 21.0098 142.744 20.9144 142.819L20.7443 142.955 24.0048 146.216 27.2584 149.477 30.4916 146.237C32.7719 143.949 33.7045 142.969 33.6637 142.908 33.6365 142.86 33.3165 142.608 32.9626 142.349L32.3159 141.886 32.1049 142.016C31.8326 142.179 31.254 142.186 30.9885 142.037 30.7639 141.9 30.6005 141.635 30.5257 141.294 30.478 141.063 30.444 141.029 30.1717 140.948 29.7157 140.811 28.293 140.579 27.9187 140.579L27.5851 140.579 27.5851 141.941C27.5851 143.289 27.5851 143.302 27.7417 143.404 28.1025 143.636 28.1637 144.14 27.871 144.466 27.7145 144.643 27.6124 144.691 27.3264 144.718 26.993 144.745 26.9589 144.732 26.7343 144.507 26.5641 144.337 26.496 144.208 26.496 144.058 26.496 143.793 26.6526 143.48 26.85 143.336 26.9998 143.234 27.0066 143.193 27.027 141.907L27.0542 140.579 26.6186 140.587C26.3871 140.587 25.8834 140.647 25.5091 140.723Z" fill="#004967" fill-rule="nonzero" fill-opacity="1" transform="matrix(1.03107 -4.69128e-19 4.83705e-19 1 111.09 -35.4835)"/><path d="M14.8291 144.112C13.8966 145.637 13.0661 148.101 12.9096 149.769 12.8484 150.408 12.8415 150.429 12.5556 150.477 12.2152 150.524 11.8886 150.749 11.6095 151.116 11.1806 151.682 11.1534 152.327 11.5414 152.981 11.7729 153.37 12.1745 153.642 12.6033 153.717L12.8415 153.751 12.9913 154.636C13.141 155.52 13.3112 156.249 13.529 156.882 13.9102 158.012 14.9925 160.319 15.1423 160.319 15.1763 160.319 15.292 160.265 15.3873 160.19 15.6323 160.02 16.0407 159.911 16.4627 159.911 16.8167 159.911 16.8167 159.911 17.3477 159.359 17.6471 159.06 17.8854 158.774 17.8786 158.733 17.8718 158.685 17.6948 158.407 17.477 158.107 17.2659 157.807 17.0686 157.522 17.055 157.474 17.0346 157.426 16.8848 157.392 16.6466 157.392 16.4423 157.392 16.1837 157.344 16.0748 157.284 15.8502 157.168 15.6051 156.725 15.6051 156.44 15.6051 156.187 15.8433 155.718 16.0339 155.588L16.2041 155.48 16.0339 154.956C15.8433 154.356 15.6732 153.315 15.6732 152.743L15.6732 152.356 14.5841 152.356 14.5841 151.811 15.5915 151.811 15.6391 151.245C15.68 150.79 15.8161 149.993 16.0543 148.823 16.0748 148.714 16.0339 148.604 15.925 148.482 15.68 148.217 15.6051 148.039 15.6051 147.706 15.6051 147.121 16.102 146.671 16.6942 146.726 16.9937 146.753 17.0141 146.739 17.1298 146.501 17.1979 146.365 17.3748 146.086 17.5178 145.895 17.6675 145.698 17.7833 145.507 17.7697 145.473 17.7561 145.439 17.4974 145.154 17.1843 144.841 16.6534 144.31 16.5921 144.269 16.2654 144.228 15.857 144.173 15.4077 143.989 15.2716 143.826 15.2239 143.758 15.1559 143.71 15.1218 143.71 15.0946 143.71 14.9584 143.895 14.8291 144.112Z" fill="#004967" fill-rule="nonzero" fill-opacity="1" transform="matrix(1.03107 -4.69128e-19 4.83705e-19 1 111.09 -35.4835)"/><path d="M39.1432 143.881C38.8164 144.105 38.6122 144.18 38.1834 144.228 37.8567 144.269 37.809 144.303 37.3258 144.82 37.0399 145.119 36.788 145.399 36.7608 145.447 36.7267 145.494 36.788 145.637 36.9038 145.779 37.0126 145.916 37.2033 146.182 37.319 146.365 37.5299 146.692 37.5503 146.706 37.8362 146.706 38.4557 146.706 38.8301 147.026 38.9185 147.624 38.973 147.965 38.8777 148.23 38.6122 148.476L38.408 148.666 38.5101 149.068C38.5646 149.286 38.6258 149.551 38.6463 149.667 38.6599 149.776 38.694 149.946 38.7144 150.041 38.7619 150.3 38.8028 150.639 38.8505 151.245L38.8981 151.811 39.9736 151.811 39.9736 152.356 38.8845 152.356 38.8777 152.594C38.8709 152.723 38.8641 152.852 38.8573 152.879 38.8505 152.913 38.8164 153.152 38.7892 153.417 38.7619 153.683 38.6531 154.24 38.551 154.656L38.3603 155.419 38.5306 155.568C38.8164 155.834 38.9662 156.249 38.8913 156.576 38.7619 157.154 38.4557 157.412 37.9111 157.406L37.5572 157.399 37.1147 158.039C36.8765 158.386 36.6655 158.706 36.6519 158.747 36.6383 158.788 36.8629 159.066 37.1488 159.359L37.6661 159.89 38.1902 159.925C38.6122 159.952 38.7824 159.993 39.0479 160.149L39.3746 160.34 39.4971 160.183C39.5584 160.101 39.8511 159.557 40.1369 158.985 40.8653 157.535 41.4711 155.622 41.6413 154.248 41.6958 153.812 41.7298 153.777 42.1178 153.663 42.8597 153.438 43.2749 152.859 43.2749 152.043 43.2749 151.634 43.2477 151.525 43.0843 151.28 42.8461 150.912 42.4037 150.592 42.0701 150.545 41.9272 150.517 41.7978 150.483 41.7842 150.456 41.7706 150.436 41.7434 150.259 41.7162 150.075 41.6481 149.49 41.4847 148.707 41.2737 147.931 41.192 147.652 41.1171 147.373 41.1035 147.305 40.9197 146.59 39.8715 144.296 39.5516 143.895L39.3951 143.704 39.1432 143.881Z" fill="#004967" fill-rule="nonzero" fill-opacity="1" transform="matrix(1.03107 -4.69128e-19 4.83705e-19 1 111.09 -35.4835)"/><path d="M18.0759 146.004C18.0352 146.072 17.865 146.324 17.6948 146.563L17.3953 146.998 17.511 147.209C17.7152 147.57 17.7356 147.822 17.5859 148.162 17.4361 148.502 17.1162 148.747 16.8167 148.747 16.6534 148.747 16.6193 148.788 16.5309 149.102 16.3811 149.625 16.2245 150.606 16.1973 151.245L16.1632 151.811 20.4039 151.811 20.5945 151.613C20.8395 151.347 21.1118 151.293 21.4318 151.443 21.7652 151.599 21.915 151.94 21.8061 152.301 21.6564 152.784 20.9893 152.933 20.6421 152.56L20.4516 152.356 16.1632 152.356 16.1905 152.777C16.2654 153.947 16.5309 155.241 16.7214 155.364 16.7622 155.391 16.8643 155.419 16.9393 155.419 17.1298 155.419 17.4225 155.65 17.5587 155.915 17.7016 156.195 17.6948 156.623 17.5519 156.909 17.4361 157.127 17.4361 157.141 17.6063 157.378 17.7016 157.522 17.9194 157.807 18.0895 158.025L18.4027 158.413 18.6545 158.128C18.7975 157.963 20.1589 156.582 21.6837 155.044 23.2084 153.512 24.4472 152.233 24.4404 152.205 24.4268 152.172 18.1849 145.889 18.1577 145.889 18.1577 145.889 18.1236 145.943 18.0759 146.004Z" fill="#004967" fill-rule="nonzero" fill-opacity="1" transform="matrix(1.03107 -4.69128e-19 4.83705e-19 1 111.09 -35.4835)"/><path d="M34.9706 147.196C34.2558 147.917 32.8537 149.347 31.8394 150.361L30.0084 152.219 33.0919 155.283C34.7936 156.963 36.2026 158.345 36.223 158.345 36.2435 158.345 36.3933 158.148 36.5566 157.917 36.7131 157.685 36.9105 157.413 36.9853 157.318L37.1283 157.141 36.9853 156.861C36.8017 156.501 36.8085 156.201 36.999 155.861 37.1215 155.643 37.2169 155.568 37.4755 155.48 37.6525 155.426 37.809 155.357 37.8294 155.337 37.9043 155.262 38.2583 153.642 38.3059 153.186 38.3263 152.934 38.3672 152.648 38.3808 152.539L38.4217 152.356 36.2367 152.356C34.5145 152.356 34.0449 152.376 34.004 152.444 33.8338 152.723 33.3778 152.846 33.0783 152.689 32.5337 152.41 32.5882 151.641 33.1667 151.402 33.4254 151.294 33.6501 151.355 33.9428 151.606L34.1741 151.811 38.4217 151.811 38.374 151.348C38.3195 150.783 38.2787 150.463 38.2379 150.245 38.2174 150.151 38.1902 150 38.1698 149.905 38.1494 149.81 38.0881 149.51 38.0201 149.238 37.9179 148.789 37.8907 148.747 37.7342 148.747 37.0467 148.747 36.6314 147.904 36.9785 147.223L37.1079 146.965 36.8424 146.576C36.5633 146.182 36.3251 145.889 36.2843 145.889 36.2707 145.889 35.6785 146.482 34.9706 147.196Z" fill="#004967" fill-rule="nonzero" fill-opacity="1" transform="matrix(1.03107 -4.69128e-19 4.83705e-19 1 111.09 -35.4835)"/><path d="M24.1 158.066C22.3847 159.782 20.9825 161.211 20.9825 161.245 20.9825 161.279 21.2071 161.456 21.4726 161.646 22.235 162.177 22.2145 162.17 22.5209 162.021 22.9973 161.776 23.5283 161.878 23.8346 162.266 23.9162 162.368 23.9775 162.518 23.9775 162.599 23.9775 162.681 24.0184 162.783 24.066 162.824 24.1953 162.926 25.7473 163.239 26.3939 163.287L26.9725 163.335 26.9725 162.361C26.9725 161.408 26.9725 161.394 26.8023 161.258 26.496 161.021 26.428 160.809 26.5369 160.442 26.6186 160.169 26.673 160.109 26.9385 159.979 27.306 159.802 27.558 159.836 27.8166 160.109 28.1773 160.482 28.1569 160.904 27.7621 161.265 27.5851 161.429 27.5851 161.442 27.5851 162.416L27.5851 163.396 27.7757 163.355C27.8778 163.341 28.1433 163.301 28.368 163.281 28.5858 163.253 28.8308 163.219 28.9125 163.205 28.9874 163.185 29.2664 163.13 29.5251 163.076 30.5393 162.858 30.4712 162.892 30.5733 162.579 30.7571 161.987 31.5195 161.701 32.0505 162.014L32.3023 162.164 32.7855 161.837C33.051 161.661 33.3369 161.462 33.4254 161.402 33.5751 161.286 33.5616 161.272 30.4304 158.114 28.6946 156.372 27.2652 154.942 27.2448 154.942 27.2244 154.948 25.8085 156.351 24.1 158.066Z" fill="#004967" fill-rule="nonzero" fill-opacity="1" transform="matrix(1.03107 -4.69128e-19 4.83705e-19 1 111.09 -35.4835)"/><path d="M33.6705 161.823C33.5207 161.939 33.228 162.158 33.017 162.3 32.6562 162.545 32.6222 162.593 32.6222 162.818 32.6222 163.158 32.3771 163.641 32.1185 163.804 31.9551 163.906 31.819 163.926 31.4718 163.906 31.0294 163.886 30.9137 163.818 30.6823 163.423 30.621 163.321 30.5801 163.321 30.1377 163.443 29.8791 163.519 29.5251 163.594 29.3549 163.621 29.1916 163.648 29.035 163.675 29.0146 163.689 28.9737 163.716 28.6198 163.764 28.014 163.825L27.5851 163.872 27.5851 165.356 26.9725 165.356 26.9725 164.608C26.9725 163.88 26.9657 163.858 26.8228 163.858 26.5505 163.852 25.9311 163.778 25.4069 163.682 24.7127 163.559 24.6037 163.539 24.2362 163.43 23.9299 163.335 23.923 163.335 23.8482 163.491 23.7325 163.75 23.3785 163.926 22.9905 163.926 22.3916 163.92 22.0716 163.614 22.0103 162.974L21.9695 162.579 21.3024 162.13C20.9348 161.885 20.6013 161.681 20.5537 161.681 20.506 161.681 20.2134 161.933 19.907 162.246 19.5122 162.641 19.24 162.994 19.0085 163.417 18.818 163.743 18.675 164.022 18.6818 164.036 18.6954 164.042 18.9949 164.233 19.3489 164.458 20.9825 165.478 22.6094 166.119 24.4812 166.479 24.9713 166.575 25.4409 166.67 25.5295 166.691 25.652 166.718 25.6792 166.766 25.6792 166.997 25.6792 167.344 25.8085 167.65 26.0944 167.977 26.7207 168.685 27.8914 168.671 28.4701 167.942 28.7014 167.65 28.8785 167.208 28.8785 166.915 28.8785 166.745 28.9057 166.718 29.1371 166.683 30.8592 166.391 32.4792 165.887 33.9835 165.166 34.426 164.955 35.4199 164.389 35.6989 164.193L35.8963 164.049 35.7533 163.838C35.6785 163.716 35.5151 163.437 35.4062 163.212 35.2701 162.954 34.9774 162.586 34.6098 162.205 34.2831 161.878 34.004 161.613 33.9767 161.613 33.9564 161.613 33.8134 161.708 33.6705 161.823Z" fill="#004967" fill-rule="nonzero" fill-opacity="1" transform="matrix(1.03107 -4.69128e-19 4.83705e-19 1 111.09 -35.4835)"/><path d="M0.802195-12.3739 5.31454-12.3739 5.31454 0 7.92168 0 7.92168-12.3739 12.434-12.3739 12.434-14.5799 0.802195-14.5799 0.802195-12.3739Z" fill="#004967" fill-rule="nonzero" fill-opacity="1" transform="matrix(1 0 0 1.00066 96.2024 153.886)"/><path d="M6.1769 0.220604C8.72387 0.220604 10.4686-1.0228 10.9299-2.92801L8.52332-3.20878C8.16233-2.28626 7.32003-1.78488 6.19696-1.78488 4.5324-1.78488 3.42938-2.8879 3.40933-4.77306L11.0302-4.77306 11.0302-5.5552C11.0302-9.38568 8.72387-11.0903 6.03652-11.0903 2.90796-11.0903 0.86236-8.78404 0.86236-5.41482 0.86236-1.96538 2.86785 0.220604 6.1769 0.220604ZM3.40933-6.49778C3.48955-7.90162 4.5324-9.0648 6.07663-9.0648 7.54063-9.0648 8.54338-7.98184 8.56343-6.49778L3.40933-6.49778Z" fill="#004967" fill-rule="nonzero" fill-opacity="1" transform="matrix(1 0 0 1.00066 107.839 153.886)"/><path d="M9.96727-8.04201C9.60629-9.90711 8.14228-11.0903 5.57526-11.0903 2.92801-11.0903 1.14313-9.78678 1.14313-7.76124 1.14313-6.1769 2.12582-5.11399 4.23158-4.67279L6.09668-4.29174C7.09943-4.07114 7.56069-3.67004 7.56069-3.04834 7.56069-2.28626 6.75849-1.72472 5.53515-1.72472 4.35191-1.72472 3.56977-2.24615 3.34916-3.22884L0.842305-2.98818C1.16318-0.982689 2.84779 0.220604 5.53515 0.220604 8.26261 0.220604 10.2079-1.20329 10.2079-3.26894 10.2079-4.83323 9.18513-5.79586 7.11948-6.23707L5.25438-6.63816C4.15136-6.87882 3.71015-7.27992 3.71015-7.90162 3.71015-8.64365 4.5324-9.16508 5.59531-9.16508 6.7986-9.16508 7.4203-8.50327 7.62085-7.78129L9.96727-8.04201Z" fill="#004967" fill-rule="nonzero" fill-opacity="1" transform="matrix(1 0 0 1.00066 119.726 153.886)"/><path d="M6.77855-10.9299 4.63268-10.9299 4.63268-13.5571 2.0456-13.5571 2.0456-10.9299 0.501372-10.9299 0.501372-8.94448 2.0456-8.94448 2.0456-2.86785C2.0456-0.802195 3.52966 0.200549 5.47498 0.140384 6.19696 0.120329 6.71838-0.0200549 6.9791-0.100274L6.55794-2.12582C6.41756-2.08571 6.11674-2.02554 5.79586-2.02554 5.1541-2.02554 4.63268-2.24615 4.63268-3.289L4.63268-8.94448 6.77855-8.94448 6.77855-10.9299Z" fill="#004967" fill-rule="nonzero" fill-opacity="1" transform="matrix(1 0 0 1.00066 130.736 153.886)"/><path d="M3.9107-6.41756C3.9107-7.98184 4.85328-8.90437 6.21701-8.90437 7.54063-8.90437 8.34283-8.02195 8.34283-6.55794L8.34283 0 10.9299 0 10.9299-6.95904C10.9299-9.58623 9.44585-11.0903 7.17965-11.0903 5.53515-11.0903 4.41207-10.2882 3.9107-9.08486L3.79037-9.08486 3.79037-10.9299 1.32362-10.9299 1.32362 0 3.9107 0 3.9107-6.41756Z" fill="#004967" fill-rule="nonzero" fill-opacity="1" transform="matrix(1 0 0 1.00066 138.356 153.886)"/><path d="M6.1769 0.220604C8.72387 0.220604 10.4686-1.0228 10.9299-2.92801L8.52332-3.20878C8.16233-2.28626 7.32003-1.78488 6.19696-1.78488 4.5324-1.78488 3.42938-2.8879 3.40933-4.77306L11.0302-4.77306 11.0302-5.5552C11.0302-9.38568 8.72387-11.0903 6.03652-11.0903 2.90796-11.0903 0.86236-8.78404 0.86236-5.41482 0.86236-1.96538 2.86785 0.220604 6.1769 0.220604ZM3.40933-6.49778C3.48955-7.90162 4.5324-9.0648 6.07663-9.0648 7.54063-9.0648 8.54338-7.98184 8.56343-6.49778L3.40933-6.49778Z" fill="#004967" fill-rule="nonzero" fill-opacity="1" transform="matrix(1 0 0 1.00066 150.584 153.886)"/><path d="M6.77855-10.9299 4.63268-10.9299 4.63268-13.5571 2.0456-13.5571 2.0456-10.9299 0.501372-10.9299 0.501372-8.94448 2.0456-8.94448 2.0456-2.86785C2.0456-0.802195 3.52966 0.200549 5.47498 0.140384 6.19696 0.120329 6.71838-0.0200549 6.9791-0.100274L6.55794-2.12582C6.41756-2.08571 6.11674-2.02554 5.79586-2.02554 5.1541-2.02554 4.63268-2.24615 4.63268-3.289L4.63268-8.94448 6.77855-8.94448 6.77855-10.9299Z" fill="#004967" fill-rule="nonzero" fill-opacity="1" transform="matrix(1 0 0 1.00066 162.47 153.886)"/><path d="M1.44395 0 10.9901 0 10.9901-2.20604 4.07114-2.20604 4.07114-6.19696 10.4285-6.19696 10.4285-8.40299 4.07114-8.40299 4.07114-12.3739 10.9299-12.3739 10.9299-14.5799 1.44395-14.5799 1.44395 0Z" fill="#004967" fill-rule="nonzero" fill-opacity="1" transform="matrix(1 0 0 1.00066 175.069 153.886)"/><path d="M3.42938-10.9299 0.701921-10.9299 3.95081-5.47498 0.621701 0 3.34916 0 5.63542-3.93076 7.96179 0 10.6692 0 7.32003-5.47498 10.609-10.9299 7.88157-10.9299 5.63542-6.89888 3.42938-10.9299Z" fill="#004967" fill-rule="nonzero" fill-opacity="1" transform="matrix(1 0 0 1.00066 187.254 153.886)"/><path d="M1.32362 4.11125 3.9107 4.11125 3.9107-1.72472 4.01098-1.72472C4.41207-0.922524 5.25438 0.200549 7.13954 0.200549 9.72661 0.200549 11.6519-1.84505 11.6519-5.45493 11.6519-9.10491 9.66645-11.0903 7.13954-11.0903 5.21427-11.0903 4.39202-9.92716 4.01098-9.12497L3.85054-9.12497 3.85054-10.9299 1.32362-10.9299 1.32362 4.11125ZM3.85054-5.47498C3.85054-7.6008 4.77306-8.96453 6.41756-8.96453 8.14228-8.96453 9.02469-7.50052 9.02469-5.47498 9.02469-3.40933 8.12222-1.92527 6.41756-1.92527 4.77306-1.92527 3.85054-3.34916 3.85054-5.47498Z" fill="#004967" fill-rule="nonzero" fill-opacity="1" transform="matrix(1 0 0 1.00066 198.535 153.886)"/><path d="M1.32362-14.5799 3.9107-14.5799 3.9107 3.82516e-08 1.32362 3.82516e-08Z" fill="#004967" fill-rule="nonzero" fill-opacity="1" transform="matrix(1 0 0 1.00066 211.062 153.886)"/><path d="M6.09668 0.220604C9.30546 0.220604 11.331-2.0456 11.331-5.43487 11.331-8.82415 9.30546-11.0903 6.09668-11.0903 2.8879-11.0903 0.86236-8.82415 0.86236-5.43487 0.86236-2.0456 2.8879 0.220604 6.09668 0.220604ZM6.11674-1.84505C4.33185-1.84505 3.46949-3.42938 3.46949-5.43487 3.46949-7.44036 4.33185-9.04475 6.11674-9.04475 7.86151-9.04475 8.72387-7.44036 8.72387-5.43487 8.72387-3.42938 7.86151-1.84505 6.11674-1.84505Z" fill="#004967" fill-rule="nonzero" fill-opacity="1" transform="matrix(1 0 0 1.00066 216.29 153.886)"/><path d="M1.32362 0 3.9107 0 3.9107-6.43762C3.9107-7.8214 4.95355-8.80409 6.3574-8.80409 6.7986-8.80409 7.34008-8.72387 7.56069-8.64365L7.56069-11.0302C7.32003-11.0703 6.91893-11.0903 6.63816-11.0903 5.37471-11.0903 4.33185-10.3884 3.93076-9.12497L3.83048-9.12497 3.83048-10.9299 1.32362-10.9299 1.32362 0Z" fill="#004967" fill-rule="nonzero" fill-opacity="1" transform="matrix(1 0 0 1.00066 228.482 153.886)"/><path d="M6.1769 0.220604C8.72387 0.220604 10.4686-1.0228 10.9299-2.92801L8.52332-3.20878C8.16233-2.28626 7.32003-1.78488 6.19696-1.78488 4.5324-1.78488 3.42938-2.8879 3.40933-4.77306L11.0302-4.77306 11.0302-5.5552C11.0302-9.38568 8.72387-11.0903 6.03652-11.0903 2.90796-11.0903 0.86236-8.78404 0.86236-5.41482 0.86236-1.96538 2.86785 0.220604 6.1769 0.220604ZM3.40933-6.49778C3.48955-7.90162 4.5324-9.0648 6.07663-9.0648 7.54063-9.0648 8.54338-7.98184 8.56343-6.49778L3.40933-6.49778Z" fill="#004967" fill-rule="nonzero" fill-opacity="1" transform="matrix(1 0 0 1.00066 235.981 153.886)"/><path d="M1.32362 0 3.9107 0 3.9107-6.43762C3.9107-7.8214 4.95355-8.80409 6.3574-8.80409 6.7986-8.80409 7.34008-8.72387 7.56069-8.64365L7.56069-11.0302C7.32003-11.0703 6.91893-11.0903 6.63816-11.0903 5.37471-11.0903 4.33185-10.3884 3.93076-9.12497L3.83048-9.12497 3.83048-10.9299 1.32362-10.9299 1.32362 0Z" fill="#004967" fill-rule="nonzero" fill-opacity="1" transform="matrix(1 0 0 1.00066 247.867 153.886)"/></g></g></g></g></svg>