<svg width="573" height="144" xmlns="http://www.w3.org/2000/svg" xmlns:xlink="http://www.w3.org/1999/xlink" xml:space="preserve" overflow="hidden"><defs><clipPath id="clip0"><rect x="97" y="268" width="573" height="144"/></clipPath><clipPath id="clip1"><rect x="97" y="268" width="573" height="144"/></clipPath><clipPath id="clip2"><rect x="98" y="268" width="572" height="144"/></clipPath><clipPath id="clip3"><rect x="98" y="268" width="572" height="144"/></clipPath><clipPath id="clip4"><rect x="98" y="268" width="572" height="144"/></clipPath><clipPath id="clip5"><rect x="98" y="268" width="572" height="144"/></clipPath><clipPath id="clip6"><rect x="100" y="268" width="570" height="144"/></clipPath><clipPath id="clip7"><rect x="100" y="268" width="570" height="144"/></clipPath><clipPath id="clip8"><rect x="100" y="268" width="570" height="144"/></clipPath></defs><g clip-path="url(#clip0)" transform="translate(-97 -268)"><g clip-path="url(#clip1)"><g clip-path="url(#clip2)"><g clip-path="url(#clip3)"><g clip-path="url(#clip4)"><g clip-path="url(#clip5)"><g clip-path="url(#clip6)"><g clip-path="url(#clip7)"><g clip-path="url(#clip8)"><path d="M7.45818-45.8301 43.3438-45.8301 43.3438-32.8592 7.45818-32.8592Z" fill="#FFFFFF" fill-rule="evenodd" fill-opacity="1" transform="matrix(1.01005 0 0 1 554.446 347.684)"/><path d="M72.6363-78.5813 55.9903-78.5813 55.9903-29.1842 55.3418-29.1842 21.4018-78.5813 6.80966-78.5813 6.80966 0 23.4554 0 23.4554-49.5051 23.996-49.5051 58.2605 0 72.6363 0 72.6363-78.5813Z" fill="#FFFFFF" fill-rule="nonzero" fill-opacity="1" transform="matrix(1.01005 0 0 1 245.247 347.684)"/><path d="M3.89132-64.854 27.8871-64.854 27.8871 0 44.317 0 44.317-64.854 68.4208-64.854 68.4208-78.5813 3.89132-78.5813 3.89132-64.854Z" fill="#FFFFFF" fill-rule="nonzero" fill-opacity="1" transform="matrix(1.01005 0 0 1 325.503 347.684)"/><path d="M55.3418-78.5813 55.3418-28.9681C55.3418-19.9966 49.0727-13.5112 39.4527-13.5112 29.8327-13.5112 23.4554-19.9966 23.4554-28.9681L23.4554-78.5813 6.80966-78.5813 6.80966-27.563C6.80966-10.3767 19.7804 1.08087 39.4527 1.08087 58.9091 1.08087 71.9878-10.3767 71.9878-27.563L71.9878-78.5813 55.3418-78.5813Z" fill="#FFFFFF" fill-rule="nonzero" fill-opacity="1" transform="matrix(1.01005 0 0 1 398.466 347.684)"/><path d="M49.5051-55.9903 65.3943-55.9903C65.1782-70.0422 53.6126-79.6622 36.2101-79.6622 18.9158-79.6622 6.26921-70.1502 6.37731-55.8823 6.37731-44.317 14.484-37.6154 27.7791-34.4806L36.3181-32.319C44.8572-30.2651 49.7212-27.7791 49.7212-22.4826 49.7212-16.754 44.2087-12.8627 35.7777-12.8627 27.1306-12.8627 20.9694-16.8621 20.429-24.6446L4.32365-24.6446C4.75601-7.67435 16.8621 1.08087 35.9938 1.08087 55.1257 1.08087 66.4752-8.10671 66.4752-22.4826 66.4752-35.5616 56.5308-42.4792 42.9116-45.614L35.8857-47.2352C28.9681-48.8566 23.3473-51.3427 23.4554-56.9633 23.4554-62.0434 27.8871-65.8267 35.9938-65.8267 43.9926-65.8267 48.8566-62.1517 49.5051-55.9903Z" fill="#FFFFFF" fill-rule="nonzero" fill-opacity="1" transform="matrix(1.01005 0 0 1 478.102 347.684)"/><path d="M22.3745-78.5813 3.56706-78.5813 27.671-39.3447 3.13451 0 22.1583 0 38.264-26.8062 38.9125-26.8062 55.0177 0 74.1497 0 49.6132-39.3447 73.6092-78.5813 54.8016-78.5813 38.9125-51.7751 38.264-51.7751 22.3745-78.5813Z" fill="#FFFFFF" fill-rule="nonzero" fill-opacity="1" transform="matrix(1.01005 0 0 1 595.088 348.799)"/><path d="M6.80966 0 23.4554 0 23.4554-25.5091 37.3991-25.5091C55.4501-25.5091 66.0428-36.3181 66.0428-51.9912 66.0428-67.5562 55.6662-78.5813 37.8315-78.5813L6.80966-78.5813 6.80966 0ZM23.4554-38.8042 23.4554-65.0701 34.6967-65.0701C44.2087-65.0701 48.8566-59.7737 48.8566-51.9912 48.8566-44.2087 44.2087-38.8042 34.6967-38.8042L23.4554-38.8042Z" fill="#FFFFFF" fill-rule="nonzero" fill-opacity="1" transform="matrix(1.01005 0 0 1 94.0113 347.684)"/><path d="M66.4423 336.503C64.8876 336.975 64.0594 337.921 63.6708 339.644L63.4849 340.473 62.3021 340.694C56.7251 341.707 50.506 344.361 46.7206 347.301L46.3146 347.621 46.8218 348.45C47.0922 348.907 47.4977 349.769 47.7174 350.362 48.1399 351.477 48.9511 352.539 50.0666 353.418L50.7255 353.942 52.1282 352.86C52.9056 352.269 53.7845 351.643 54.0886 351.477 54.5787 351.186 54.6294 351.069 54.6294 350.342 54.6294 348.569 55.7109 347.708 57.8066 347.825 58.0094 347.825 58.4657 348.095 58.8036 348.415L59.429 348.991 60.5443 348.689C61.1528 348.517 61.9808 348.331 62.4031 348.266 62.826 348.214 63.434 348.095 63.7552 348.011 64.0763 347.909 64.9383 347.842 65.6481 347.842L66.9493 347.842 67.0002 346.27 67.0509 344.716 67.7776 344.666 68.4871 344.612 68.4871 346.134C68.4871 347.909 68.3014 347.758 70.7181 347.909 71.529 347.961 72.898 348.162 73.76 348.366 74.6218 348.569 75.5007 348.773 75.7202 348.823 75.9905 348.872 76.1936 348.788 76.3624 348.552 76.7006 348.06 77.9847 347.604 78.6607 347.74 79.996 348.011 81.1621 349.431 80.9424 350.531 80.8242 351.052 81.0946 351.288 84.4575 353.671 84.6266 353.791 84.9645 353.604 85.6743 352.979 86.4854 352.269 86.8236 351.794 87.6687 350.156 88.2261 349.076 88.7837 348.046 88.9021 347.842 89.105 347.519 89.0037 347.435 87.4318 346.404 83.7814 344.006 78.0862 341.675 73.9797 340.878 72.9658 340.694 72.0194 340.505 71.9178 340.473 71.7996 340.441 71.6983 340.17 71.6983 339.865 71.6812 338.564 70.3462 336.89 69.045 336.535 68.3183 336.334 67.0846 336.314 66.4423 336.503Z" fill="#FFFFFF" fill-rule="nonzero" fill-opacity="1" transform="matrix(1.04187 -4.69128e-19 4.88773e-19 1 135.857 -68.3728)"/><path d="M39.6901 347.42C36.8002 348.45 35.82 352.015 37.8141 354.23 38.845 355.38 40.0449 355.869 41.549 355.735 42.1404 355.7 42.7489 355.548 42.9011 355.429 43.1205 355.243 44.6924 356.748 54.5112 366.567L65.851 377.906 54.7985 388.909C48.7145 394.942 43.6447 399.893 43.5431 399.893 43.4418 399.893 43.1205 399.776 42.8333 399.622 41.5658 398.997 39.7408 399.2 38.524 400.129 37.7129 400.754 36.9524 402.023 36.7833 403.053 36.5298 404.71 37.6453 406.586 39.3522 407.431 40.1293 407.82 40.4335 407.87 41.2617 407.786 43.7291 407.565 45.3853 405.725 45.4191 403.121L45.436 401.887 56.5391 390.784 67.6423 379.696 90.0176 402.006 89.967 403.138C89.8485 406.231 92.5525 408.429 95.4425 407.582 97.9773 406.855 99.2617 403.947 98.0789 401.616 97.8927 401.246 97.3857 400.638 96.9465 400.248 95.7128 399.165 94.3947 398.945 92.7891 399.555 92.299 399.742 91.8256 399.893 91.7245 399.893 91.5892 399.893 71.3264 379.8 69.9912 378.328L69.518 377.806 80.5707 366.77C86.6545 360.685 91.7245 355.668 91.8596 355.583 91.9949 355.514 92.3497 355.531 92.671 355.615 93.5496 355.869 95.0199 355.802 95.8479 355.464 96.7099 355.109 97.7407 354.146 98.1802 353.267 98.5856 352.438 98.5856 350.496 98.1802 349.751 97.0649 347.69 95.0705 346.777 92.9751 347.385 90.6937 348.06 89.4429 350.444 90.0345 353.046L90.1527 353.622 78.8976 364.844 67.6254 376.063 56.3869 364.809C46.4837 354.923 45.1487 353.52 45.2669 353.2 45.3516 352.994 45.4022 352.289 45.4022 351.645 45.4022 350.714 45.3178 350.275 44.9965 349.634 43.9657 347.604 41.7518 346.678 39.6901 347.42Z" fill="#FFFFFF" fill-rule="nonzero" fill-opacity="1" transform="matrix(1.04187 -4.69128e-19 4.88773e-19 1 135.857 -68.3728)"/><path d="M63.3329 349.381C62.4031 349.55 61.2372 349.803 60.7303 349.92 59.8345 350.141 59.8176 350.158 59.615 350.933 59.4966 351.372 59.2771 351.899 59.0909 352.085 58.3473 352.912 56.8433 353.15 55.8124 352.591L55.221 352.289 53.7845 353.267C52.99 353.808 52.1623 354.399 51.9254 354.585L51.5031 354.923 59.5981 363.019 67.676 371.115 75.7033 363.071C81.3647 357.391 83.6801 354.957 83.5788 354.806 83.5113 354.687 82.7168 354.061 81.8382 353.418L80.2326 352.269 79.7087 352.591C79.0327 352.996 77.5961 353.014 76.937 352.644 76.3793 352.303 75.9737 351.645 75.7879 350.799 75.6695 350.225 75.5851 350.141 74.909 349.94 73.7769 349.6 70.2447 349.024 69.3154 349.024L68.4871 349.024 68.4871 352.405C68.4871 355.752 68.4871 355.784 68.8759 356.038 69.7717 356.613 69.9237 357.865 69.197 358.674 68.8084 359.114 68.5549 359.233 67.8449 359.3 67.0171 359.367 66.9324 359.335 66.3748 358.776 65.9522 358.354 65.7832 358.034 65.7832 357.661 65.7832 357.003 66.172 356.226 66.6621 355.869 67.034 355.615 67.0509 355.514 67.1015 352.321L67.169 349.024 66.0876 349.044C65.5128 349.044 64.2622 349.193 63.3329 349.381Z" fill="#FFFFFF" fill-rule="nonzero" fill-opacity="1" transform="matrix(1.04187 -4.69128e-19 4.88773e-19 1 135.857 -68.3728)"/><path d="M36.8171 357.795C34.5019 361.581 32.44 367.699 32.0514 371.84 31.8995 373.427 31.8823 373.479 31.1725 373.598 30.3274 373.715 29.5165 374.273 28.8236 375.185 27.7587 376.59 27.6912 378.191 28.6545 379.815 29.2293 380.781 30.2263 381.456 31.291 381.642L31.8823 381.727 32.2543 383.924C32.6259 386.119 33.0485 387.929 33.5892 389.5 34.5357 392.306 37.2228 398.033 37.5947 398.033 37.6791 398.033 37.9663 397.899 38.2029 397.713 38.8112 397.291 39.8252 397.02 40.8729 397.02 41.7518 397.02 41.7518 397.02 43.0701 395.65 43.8135 394.908 44.4051 394.198 44.3882 394.096 44.3714 393.977 43.9319 393.286 43.3912 392.541 42.8671 391.797 42.3772 391.089 42.3434 390.97 42.2928 390.851 41.9209 390.766 41.3295 390.766 40.8223 390.766 40.1802 390.647 39.9098 390.498 39.3522 390.21 38.7437 389.11 38.7437 388.403 38.7437 387.775 39.3351 386.61 39.8083 386.287L40.2309 386.019 39.8083 384.718C39.3351 383.229 38.9128 380.644 38.9128 379.224L38.9128 378.263 36.2088 378.263 36.2088 376.91 38.7099 376.91 38.8281 375.505C38.9297 374.375 39.2676 372.396 39.859 369.492 39.9098 369.221 39.8083 368.948 39.5379 368.645 38.9297 367.987 38.7437 367.545 38.7437 366.718 38.7437 365.266 39.9774 364.149 41.4477 364.285 42.1913 364.352 42.2419 364.318 42.5292 363.727 42.6982 363.389 43.1374 362.696 43.4925 362.222 43.8641 361.733 44.1516 361.259 44.1179 361.174 44.0841 361.09 43.4418 360.382 42.6645 359.605 41.3464 358.287 41.1942 358.185 40.3831 358.083 39.3691 357.947 38.2536 357.49 37.9157 357.085 37.7973 356.916 37.6284 356.797 37.5438 356.797 37.4762 356.797 37.1381 357.257 36.8171 357.795Z" fill="#FFFFFF" fill-rule="nonzero" fill-opacity="1" transform="matrix(1.04187 -4.69128e-19 4.88773e-19 1 135.857 -68.3728)"/><path d="M97.1831 357.222C96.3717 357.778 95.8648 357.964 94.8002 358.083 93.989 358.185 93.8706 358.27 92.671 359.553 91.9611 360.295 91.3357 360.991 91.2682 361.11 91.1835 361.226 91.3357 361.581 91.6232 361.934 91.8933 362.274 92.3668 362.935 92.6541 363.389 93.1777 364.201 93.2283 364.236 93.9381 364.236 95.4762 364.236 96.4058 365.03 96.6252 366.515 96.7605 367.361 96.5239 368.019 95.8648 368.63L95.3578 369.102 95.6113 370.1C95.7466 370.641 95.8985 371.299 95.9494 371.587 95.9832 371.858 96.0679 372.28 96.1185 372.516 96.2364 373.159 96.338 374 96.4564 375.505L96.5746 376.91 99.2448 376.91 99.2448 378.263 96.5408 378.263 96.5239 378.854C96.5071 379.174 96.4902 379.495 96.4733 379.562 96.4564 379.646 96.3717 380.239 96.3042 380.897 96.2364 381.558 95.9663 382.941 95.7128 383.974L95.2394 385.868 95.6622 386.238C96.3717 386.898 96.7437 387.929 96.5577 388.74 96.2364 390.175 95.4762 390.816 94.1241 390.801L93.2455 390.784 92.1468 392.373C91.5554 393.234 91.0316 394.029 90.9978 394.13 90.9641 394.232 91.5217 394.922 92.2315 395.65L93.5158 396.968 94.817 397.055C95.8648 397.122 96.2873 397.224 96.9465 397.611L97.7576 398.085 98.0618 397.696C98.214 397.492 98.9407 396.142 99.6502 394.721 101.459 391.121 102.963 386.372 103.385 382.961 103.521 381.878 103.605 381.791 104.568 381.508 106.41 380.95 107.441 379.512 107.441 377.486 107.441 376.471 107.374 376.2 106.968 375.592 106.377 374.678 105.278 373.884 104.45 373.767 104.095 373.697 103.774 373.613 103.74 373.546 103.706 373.496 103.639 373.057 103.571 372.6 103.402 371.148 102.996 369.204 102.473 367.277 102.27 366.584 102.084 365.892 102.05 365.723 101.594 363.948 98.9913 358.252 98.1971 357.257L97.8085 356.782 97.1831 357.222Z" fill="#FFFFFF" fill-rule="nonzero" fill-opacity="1" transform="matrix(1.04187 -4.69128e-19 4.88773e-19 1 135.857 -68.3728)"/><path d="M44.8781 362.493C44.777 362.662 44.3545 363.287 43.9319 363.881L43.1883 364.961 43.4756 365.484C43.9826 366.381 44.0332 367.006 43.6615 367.85 43.2896 368.695 42.4954 369.303 41.7518 369.303 41.3464 369.303 41.2617 369.405 41.0422 370.184 40.6703 371.483 40.2815 373.918 40.214 375.505L40.1293 376.91 50.658 376.91 51.1312 376.418C51.7394 375.758 52.4155 375.624 53.21 375.996 54.0377 376.384 54.4097 377.23 54.1393 378.127 53.7676 379.326 52.1114 379.696 51.2493 378.77L50.7764 378.263 40.1293 378.263 40.1971 379.308C40.3831 382.213 41.0422 385.426 41.5152 385.731 41.6165 385.798 41.87 385.868 42.0562 385.868 42.5292 385.868 43.2559 386.441 43.594 387.099 43.9488 387.794 43.9319 388.857 43.5771 389.567 43.2896 390.108 43.2896 390.143 43.7122 390.732 43.9488 391.089 44.4895 391.797 44.9119 392.338L45.6895 393.301 46.3146 392.594C46.6697 392.184 50.0497 388.755 53.8354 384.937 57.6209 381.133 60.6965 377.958 60.6796 377.888 60.6458 377.806 45.1487 362.207 45.0812 362.207 45.0812 362.207 44.9965 362.341 44.8781 362.493Z" fill="#FFFFFF" fill-rule="nonzero" fill-opacity="1" transform="matrix(1.04187 -4.69128e-19 4.88773e-19 1 135.857 -68.3728)"/><path d="M86.8236 365.452C85.0489 367.242 81.5678 370.793 79.0495 373.31L74.5036 377.923 82.1592 385.53C86.3841 389.701 89.8823 393.132 89.933 393.132 89.9839 393.132 90.3558 392.643 90.7612 392.07 91.1498 391.494 91.6399 390.818 91.8256 390.583L92.1806 390.143 91.8256 389.448C91.3697 388.554 91.3866 387.809 91.8596 386.965 92.1637 386.424 92.4006 386.238 93.0426 386.019 93.4821 385.885 93.8706 385.714 93.9213 385.664 94.1072 385.478 94.9861 381.456 95.1043 380.324 95.155 379.698 95.2565 378.988 95.2903 378.717L95.3918 378.263 89.967 378.263C85.6912 378.263 84.5253 378.313 84.4237 378.482 84.0012 379.174 82.869 379.48 82.1254 379.09 80.7733 378.397 80.9086 376.488 82.3449 375.895 82.9872 375.626 83.5451 375.778 84.2718 376.401L84.846 376.91 95.3918 376.91 95.2734 375.761C95.1381 374.358 95.0368 373.563 94.9355 373.022 94.8846 372.789 94.817 372.414 94.7664 372.178 94.7157 371.942 94.5636 371.197 94.3947 370.522 94.141 369.407 94.0735 369.303 93.6849 369.303 91.978 369.303 90.9469 367.21 91.8087 365.519L92.13 364.879 91.4708 363.913C90.7778 362.935 90.1865 362.207 90.0852 362.207 90.0514 362.207 88.5811 363.679 86.8236 365.452Z" fill="#FFFFFF" fill-rule="nonzero" fill-opacity="1" transform="matrix(1.04187 -4.69128e-19 4.88773e-19 1 135.857 -68.3728)"/><path d="M59.8345 392.44C55.5758 396.7 52.0945 400.248 52.0945 400.332 52.0945 400.417 52.6521 400.856 53.3113 401.328 55.2041 402.646 55.1532 402.629 55.914 402.259 57.0967 401.651 58.4151 401.904 59.1756 402.867 59.3782 403.121 59.5303 403.493 59.5303 403.694 59.5303 403.898 59.6319 404.151 59.7501 404.253 60.0711 404.506 63.9243 405.283 65.5297 405.402L66.9662 405.521 66.9662 403.103C66.9662 400.737 66.9662 400.702 66.5436 400.365 65.7832 399.776 65.6143 399.25 65.8847 398.339 66.0876 397.661 66.2226 397.512 66.8818 397.189 67.7942 396.75 68.4199 396.834 69.0619 397.512 69.9574 398.438 69.9068 399.486 68.9266 400.382 68.4871 400.789 68.4871 400.822 68.4871 403.24L68.4871 405.673 68.9604 405.571C69.2138 405.536 69.873 405.437 70.4309 405.387 70.9716 405.318 71.5799 405.233 71.7828 405.199 71.9687 405.149 72.6614 405.012 73.3037 404.878 75.8217 404.337 75.6526 404.422 75.9061 403.644 76.3624 402.175 78.2553 401.465 79.5736 402.242L80.1988 402.614 81.3985 401.802C82.0576 401.365 82.7675 400.871 82.9872 400.722 83.3589 400.434 83.3253 400.399 75.5513 392.559 71.2418 388.234 67.6929 384.684 67.6423 384.684 67.5916 384.698 64.0763 388.182 59.8345 392.44Z" fill="#FFFFFF" fill-rule="nonzero" fill-opacity="1" transform="matrix(1.04187 -4.69128e-19 4.88773e-19 1 135.857 -68.3728)"/><path d="M83.5957 401.767C83.2238 402.055 82.4971 402.599 81.9732 402.952 81.0775 403.56 80.993 403.679 80.993 404.238 80.993 405.082 80.3845 406.281 79.7425 406.686 79.3368 406.939 78.9989 406.989 78.1369 406.939 77.0385 406.889 76.7513 406.721 76.1767 405.74 76.0246 405.487 75.923 405.487 74.8246 405.789 74.1826 405.978 73.3037 406.164 72.8811 406.231 72.4757 406.298 72.0869 406.366 72.0362 406.4 71.9347 406.467 71.0561 406.586 69.552 406.738L68.4871 406.855 68.4871 410.539 66.9662 410.539 66.9662 408.682C66.9662 406.874 66.9493 406.82 66.5945 406.82 65.9185 406.805 64.3807 406.621 63.0792 406.383 61.3557 406.078 61.085 406.028 60.1726 405.757 59.4122 405.521 59.395 405.521 59.2093 405.909 58.9221 406.552 58.0432 406.989 57.0799 406.989 55.5929 406.974 54.7985 406.214 54.6463 404.625L54.545 403.644 52.8887 402.53C51.9761 401.921 51.1481 401.415 51.0299 401.415 50.9114 401.415 50.185 402.041 49.4243 402.818 48.4441 403.798 47.7683 404.675 47.1935 405.725 46.7206 406.534 46.3655 407.227 46.3824 407.262 46.4162 407.277 47.1597 407.751 48.0386 408.309 52.0945 410.842 56.1337 412.433 60.7809 413.327 61.9977 413.565 63.1636 413.801 63.3836 413.853 63.6877 413.921 63.7552 414.04 63.7552 414.613 63.7552 415.475 64.0763 416.234 64.7861 417.046 66.341 418.804 69.2476 418.769 70.6844 416.959 71.2586 416.234 71.6983 415.137 71.6983 414.41 71.6983 413.988 71.7659 413.921 72.3404 413.834 76.6159 413.109 80.638 411.857 84.3728 410.067 85.4714 409.543 87.9391 408.138 88.6317 407.652L89.1218 407.294 88.7668 406.77C88.5811 406.467 88.1754 405.775 87.905 405.216 87.5671 404.575 86.8404 403.662 85.9278 402.716 85.1167 401.904 84.4237 401.246 84.3559 401.246 84.3055 401.246 83.9505 401.482 83.5957 401.767Z" fill="#FFFFFF" fill-rule="nonzero" fill-opacity="1" transform="matrix(1.04187 -4.69128e-19 4.88773e-19 1 135.857 -68.3728)"/><path d="M1.99297-30.7417 13.2034-30.7417 13.2034 0 19.6806 0 19.6806-30.7417 30.891-30.7417 30.891-36.2223 1.99297-36.2223 1.99297-30.7417Z" fill="#FFFFFF" fill-rule="nonzero" fill-opacity="1" transform="matrix(1.00981 0 0 1 98.5078 401.786)"/><path d="M15.3459 0.548068C21.6736 0.548068 26.0082-2.54104 27.1542-7.27434L21.1753-7.97188C20.2785-5.67998 18.1859-4.43435 15.3957-4.43435 11.2603-4.43435 8.51994-7.17469 8.47013-11.8582L27.4034-11.8582 27.4034-13.8013C27.4034-23.3178 21.6736-27.5527 14.9971-27.5527 7.22453-27.5527 2.14244-21.823 2.14244-13.4526 2.14244-4.88278 7.12488 0.548068 15.3459 0.548068ZM8.47013-16.1431C8.66943-19.6308 11.2603-22.5206 15.0968-22.5206 18.7339-22.5206 21.2251-19.8301 21.275-16.1431L8.47013-16.1431Z" fill="#FFFFFF" fill-rule="nonzero" fill-opacity="1" transform="matrix(1.00981 0 0 1 127.701 401.786)"/><path d="M24.7627-19.9795C23.8658-24.6132 20.2287-27.5527 13.8512-27.5527 7.27434-27.5527 2.83999-24.3142 2.83999-19.282 2.83999-15.3459 5.28138-12.7052 10.5129-11.6091L15.1466-10.6624C17.6378-10.1143 18.7838-9.11784 18.7838-7.57329 18.7838-5.67998 16.7908-4.28489 13.7515-4.28489 10.8119-4.28489 8.86873-5.58033 8.32064-8.02172L2.09262-7.42383C2.8898-2.44139 7.07504 0.548068 13.7515 0.548068 20.5276 0.548068 25.3605-2.98945 25.3605-8.12135 25.3605-12.0077 22.8195-14.3992 17.6876-15.4954L13.054-16.4918C10.3136-17.0897 9.21749-18.0862 9.21749-19.6308 9.21749-21.4743 11.2603-22.7697 13.901-22.7697 16.8904-22.7697 18.435-21.1255 18.9332-19.3318L24.7627-19.9795Z" fill="#FFFFFF" fill-rule="nonzero" fill-opacity="1" transform="matrix(1.00981 0 0 1 157.523 401.786)"/><path d="M16.8406-27.1542 11.5094-27.1542 11.5094-33.6812 5.08208-33.6812 5.08208-27.1542 1.24561-27.1542 1.24561-22.2216 5.08208-22.2216 5.08208-7.12488C5.08208-1.99297 8.76908 0.498243 13.602 0.34877 15.3957 0.298945 16.6911-0.0498243 17.3389-0.24912L16.2925-5.28138C15.9438-5.18173 15.1964-5.03225 14.3992-5.03225 12.8048-5.03225 11.5094-5.58033 11.5094-8.17118L11.5094-22.2216 16.8406-22.2216 16.8406-27.1542Z" fill="#FFFFFF" fill-rule="nonzero" fill-opacity="1" transform="matrix(1.00981 0 0 1 185.145 401.786)"/><path d="M9.71573-15.9438C9.71573-19.8301 12.0575-22.122 15.4455-22.122 18.7339-22.122 20.7269-19.9297 20.7269-16.2925L20.7269 0 27.1542 0 27.1542-17.289C27.1542-23.816 23.4672-27.5527 17.8371-27.5527 13.7515-27.5527 10.9613-25.56 9.71573-22.5704L9.41678-22.5704 9.41678-27.1542 3.2884-27.1542 3.2884 0 9.71573 0 9.71573-15.9438Z" fill="#FFFFFF" fill-rule="nonzero" fill-opacity="1" transform="matrix(1.00981 0 0 1 204.262 401.786)"/><path d="M15.3459 0.548068C21.6736 0.548068 26.0082-2.54104 27.1542-7.27434L21.1753-7.97188C20.2785-5.67998 18.1859-4.43435 15.3957-4.43435 11.2603-4.43435 8.51994-7.17469 8.47013-11.8582L27.4034-11.8582 27.4034-13.8013C27.4034-23.3178 21.6736-27.5527 14.9971-27.5527 7.22453-27.5527 2.14244-21.823 2.14244-13.4526 2.14244-4.88278 7.12488 0.548068 15.3459 0.548068ZM8.47013-16.1431C8.66943-19.6308 11.2603-22.5206 15.0968-22.5206 18.7339-22.5206 21.2251-19.8301 21.275-16.1431L8.47013-16.1431Z" fill="#FFFFFF" fill-rule="nonzero" fill-opacity="1" transform="matrix(1.00981 0 0 1 234.939 401.786)"/><path d="M16.8406-27.1542 11.5094-27.1542 11.5094-33.6812 5.08208-33.6812 5.08208-27.1542 1.24561-27.1542 1.24561-22.2216 5.08208-22.2216 5.08208-7.12488C5.08208-1.99297 8.76908 0.498243 13.602 0.34877 15.3957 0.298945 16.6911-0.0498243 17.3389-0.24912L16.2925-5.28138C15.9438-5.18173 15.1964-5.03225 14.3992-5.03225 12.8048-5.03225 11.5094-5.58033 11.5094-8.17118L11.5094-22.2216 16.8406-22.2216 16.8406-27.1542Z" fill="#FFFFFF" fill-rule="nonzero" fill-opacity="1" transform="matrix(1.00981 0 0 1 264.758 401.786)"/><path d="M3.58735 0 27.3038 0 27.3038-5.48068 10.1143-5.48068 10.1143-15.3957 25.9085-15.3957 25.9085-20.8764 10.1143-20.8764 10.1143-30.7417 27.1542-30.7417 27.1542-36.2223 3.58735-36.2223 3.58735 0Z" fill="#FFFFFF" fill-rule="nonzero" fill-opacity="1" transform="matrix(1.00981 0 0 1 296.366 401.786)"/><path d="M8.51994-27.1542 1.74385-27.1542 9.81538-13.602 1.54455 0 8.32064 0 14.0006-9.76557 19.7802 0 26.5065 0 18.1859-13.602 26.357-27.1542 19.5809-27.1542 14.0006-17.1396 8.51994-27.1542Z" fill="#FFFFFF" fill-rule="nonzero" fill-opacity="1" transform="matrix(1.00981 0 0 1 326.935 401.786)"/><path d="M3.2884 10.214 9.71573 10.214 9.71573-4.28489 9.96487-4.28489C10.9613-2.29192 13.054 0.498243 17.7375 0.498243 24.1648 0.498243 28.9479-4.58384 28.9479-13.5522 28.9479-22.6202 24.0153-27.5527 17.7375-27.5527 12.9543-27.5527 10.9115-24.663 9.96487-22.6701L9.56627-22.6701 9.56627-27.1542 3.2884-27.1542 3.2884 10.214ZM9.56627-13.602C9.56627-18.8834 11.8582-22.2715 15.9438-22.2715 20.2287-22.2715 22.4209-18.6343 22.4209-13.602 22.4209-8.47013 20.1788-4.78314 15.9438-4.78314 11.8582-4.78314 9.56627-8.32064 9.56627-13.602Z" fill="#FFFFFF" fill-rule="nonzero" fill-opacity="1" transform="matrix(1.00981 0 0 1 355.237 401.786)"/><path d="M3.2884-36.2223 9.71573-36.2223 9.71573 9.50322e-08 3.2884 9.50322e-08Z" fill="#FFFFFF" fill-rule="nonzero" fill-opacity="1" transform="matrix(1.00981 0 0 1 386.664 401.786)"/><path d="M15.1466 0.548068C23.1185 0.548068 28.1507-5.08208 28.1507-13.5024 28.1507-21.9227 23.1185-27.5527 15.1466-27.5527 7.17469-27.5527 2.14244-21.9227 2.14244-13.5024 2.14244-5.08208 7.17469 0.548068 15.1466 0.548068ZM15.1964-4.58384C10.762-4.58384 8.61959-8.51994 8.61959-13.5024 8.61959-18.4848 10.762-22.4708 15.1964-22.4708 19.5311-22.4708 21.6736-18.4848 21.6736-13.5024 21.6736-8.51994 19.5311-4.58384 15.1964-4.58384Z" fill="#FFFFFF" fill-rule="nonzero" fill-opacity="1" transform="matrix(1.00981 0 0 1 399.78 401.786)"/><path d="M3.2884 0 9.71573 0 9.71573-15.9936C9.71573-19.4315 12.3066-21.8729 15.7943-21.8729 16.8904-21.8729 18.2357-21.6736 18.7838-21.4743L18.7838-27.4034C18.1859-27.503 17.1894-27.5527 16.4918-27.5527 13.3529-27.5527 10.762-25.8089 9.76557-22.6701L9.51643-22.6701 9.51643-27.1542 3.2884-27.1542 3.2884 0Z" fill="#FFFFFF" fill-rule="nonzero" fill-opacity="1" transform="matrix(1.00981 0 0 1 430.367 401.786)"/><path d="M15.3459 0.548068C21.6736 0.548068 26.0082-2.54104 27.1542-7.27434L21.1753-7.97188C20.2785-5.67998 18.1859-4.43435 15.3957-4.43435 11.2603-4.43435 8.51994-7.17469 8.47013-11.8582L27.4034-11.8582 27.4034-13.8013C27.4034-23.3178 21.6736-27.5527 14.9971-27.5527 7.22453-27.5527 2.14244-21.823 2.14244-13.4526 2.14244-4.88278 7.12488 0.548068 15.3459 0.548068ZM8.47013-16.1431C8.66943-19.6308 11.2603-22.5206 15.0968-22.5206 18.7339-22.5206 21.2251-19.8301 21.275-16.1431L8.47013-16.1431Z" fill="#FFFFFF" fill-rule="nonzero" fill-opacity="1" transform="matrix(1.00981 0 0 1 449.18 401.786)"/><path d="M3.2884 0 9.71573 0 9.71573-15.9936C9.71573-19.4315 12.3066-21.8729 15.7943-21.8729 16.8904-21.8729 18.2357-21.6736 18.7838-21.4743L18.7838-27.4034C18.1859-27.503 17.1894-27.5527 16.4918-27.5527 13.3529-27.5527 10.762-25.8089 9.76557-22.6701L9.51643-22.6701 9.51643-27.1542 3.2884-27.1542 3.2884 0Z" fill="#FFFFFF" fill-rule="nonzero" fill-opacity="1" transform="matrix(1.00981 0 0 1 479 401.786)"/></g></g></g></g></g></g></g></g></g></svg>