<svg width="40" height="40" viewBox="0 0 40 40" fill="none" xmlns="http://www.w3.org/2000/svg">
<path fill-rule="evenodd" clip-rule="evenodd" d="M26.5704 26.5707C27.63 25.5111 29.3479 25.5111 30.4075 26.5707L38.0816 34.2449C39.1412 35.3044 39.1412 37.0224 38.0816 38.0819C37.022 39.1415 35.3041 39.1415 34.2445 38.0819L26.5704 30.4078C25.5108 29.3482 25.5108 27.6303 26.5704 26.5707Z" fill="white"/>
<path fill-rule="evenodd" clip-rule="evenodd" d="M29.2697 6.42151C28.0909 4.85104 26.5688 3.57007 24.8193 2.67623C23.0698 1.7824 21.139 1.29929 19.1743 1.26371C11.4284 1.26371 5.76106 8.44595 5.76106 16.2471C5.76106 21.6757 9.37578 25.7375 13.3907 25.7375C13.7631 25.7351 14.1345 25.7006 14.5009 25.6343C13.0866 24.5188 11.9513 23.09 11.1851 21.4608C10.4188 19.8316 10.0425 18.0466 10.0858 16.2471C10.0858 10.0836 14.2557 5.2868 19.1226 5.2868C24.4931 5.2868 28.1594 10.5993 28.1594 16.2471C28.2025 20.3853 26.796 24.4083 24.1832 27.6201C22.0243 30.2093 19.013 31.9464 15.6886 32.52H16.3212C19.3482 32.5081 22.312 31.6547 24.8809 30.0556C27.4498 28.4565 29.5223 26.1746 30.8664 23.4656C32.2104 20.7566 32.7729 17.7274 32.4909 14.7171C32.2089 11.7069 31.0935 8.83445 29.2697 6.42151ZM26.7652 16.26C26.7652 10.8185 23.1505 6.75677 19.1355 6.75677C18.7631 6.75851 18.3916 6.79303 18.0253 6.85993C19.4353 7.98142 20.5664 9.41355 21.3301 11.0443C22.0938 12.675 22.4694 14.4602 22.4275 16.26C22.4275 22.4107 18.2577 27.2203 13.3907 27.2203C8.03317 27.2203 4.3539 21.8949 4.3539 16.26C4.35953 12.1058 5.81595 8.08375 8.47211 4.88707C10.6287 2.2973 13.6418 0.563807 16.9667 5.41676e-05C16.9667 5.41676e-05 16.6956 5.41676e-05 16.347 5.41676e-05C13.3124 -0.00776203 10.3358 0.830455 7.75222 2.42039C5.1686 4.01032 3.08048 6.28888 1.72281 8.99966C0.365152 11.7104 -0.208174 14.7459 0.0673527 17.7644C0.34288 20.7829 1.45633 23.6648 3.2824 26.0856C4.46114 27.6561 5.98327 28.9371 7.73278 29.8309C9.4823 30.7247 11.413 31.2079 13.3778 31.2434C21.1236 31.2434 26.8039 24.0612 26.8039 16.2729L26.7652 16.26Z" fill="white"/>
</svg>
